<?xml version="1.0" encoding="utf-8" standalone="no"?>
<!DOCTYPE svg PUBLIC "-//W3C//DTD SVG 1.1//EN"
  "http://www.w3.org/Graphics/SVG/1.1/DTD/svg11.dtd">
<svg xmlns:xlink="http://www.w3.org/1999/xlink" width="664.78125pt" height="223.434375pt" viewBox="0 0 664.78125 223.434375" xmlns="http://www.w3.org/2000/svg" version="1.1">
 <metadata>
  <rdf:RDF xmlns:dc="http://purl.org/dc/elements/1.1/" xmlns:cc="http://creativecommons.org/ns#" xmlns:rdf="http://www.w3.org/1999/02/22-rdf-syntax-ns#">
   <cc:Work>
    <dc:type rdf:resource="http://purl.org/dc/dcmitype/StillImage"/>
    <dc:date>2022-12-11T23:38:53.973352</dc:date>
    <dc:format>image/svg+xml</dc:format>
    <dc:creator>
     <cc:Agent>
      <dc:title>Matplotlib v3.5.1, https://matplotlib.org/</dc:title>
     </cc:Agent>
    </dc:creator>
   </cc:Work>
  </rdf:RDF>
 </metadata>
 <defs>
  <style type="text/css">*{stroke-linejoin: round; stroke-linecap: butt}</style>
 </defs>
 <g id="figure_1">
  <g id="patch_1">
   <path d="M 0 223.434375 
L 664.78125 223.434375 
L 664.78125 0 
L 0 0 
L 0 223.434375 
z
" style="fill: none"/>
  </g>
  <g id="axes_1">
   <g id="patch_2">
    <path d="M 43.78125 185.878125 
L 657.58125 185.878125 
L 657.58125 22.798125 
L 43.78125 22.798125 
z
" style="fill: #ffffff"/>
   </g>
   <g id="PolyCollection_1">
    <path d="M 397.452726 30.210852 
L 397.452726 178.465398 
L 397.918114 178.465398 
L 398.383502 178.465398 
L 398.84889 178.465398 
L 399.314278 178.465398 
L 399.779665 178.465398 
L 400.245053 178.465398 
L 400.710441 178.465398 
L 401.175829 178.465398 
L 401.641217 178.465398 
L 402.106604 178.465398 
L 402.571992 178.465398 
L 403.03738 178.465398 
L 403.502768 178.465398 
L 403.968156 178.465398 
L 404.433544 178.465398 
L 404.898931 178.465398 
L 405.364319 178.465398 
L 405.829707 178.465398 
L 406.295095 178.465398 
L 406.760483 178.465398 
L 407.225871 178.465398 
L 407.691258 178.465398 
L 408.156646 178.465398 
L 408.622034 178.465398 
L 409.087422 178.465398 
L 409.55281 178.465398 
L 410.018197 178.465398 
L 410.483585 178.465398 
L 410.948973 178.465398 
L 411.414361 178.465398 
L 411.879749 178.465398 
L 412.345137 178.465398 
L 412.810524 178.465398 
L 413.275912 178.465398 
L 413.7413 178.465398 
L 414.206688 178.465398 
L 414.672076 178.465398 
L 415.137464 178.465398 
L 415.602851 178.465398 
L 416.068239 178.465398 
L 416.533627 178.465398 
L 416.999015 178.465398 
L 417.464403 178.465398 
L 417.92979 178.465398 
L 418.395178 178.465398 
L 418.860566 178.465398 
L 419.325954 178.465398 
L 419.791342 178.465398 
L 420.25673 178.465398 
L 420.722117 178.465398 
L 421.187505 178.465398 
L 421.652893 178.465398 
L 422.118281 178.465398 
L 422.583669 178.465398 
L 423.049057 178.465398 
L 423.514444 178.465398 
L 423.979832 178.465398 
L 424.44522 178.465398 
L 424.910608 178.465398 
L 425.375996 178.465398 
L 425.841383 178.465398 
L 426.306771 178.465398 
L 426.772159 178.465398 
L 427.237547 178.465398 
L 427.702935 178.465398 
L 428.168323 178.465398 
L 428.63371 178.465398 
L 429.099098 178.465398 
L 429.564486 178.465398 
L 430.029874 178.465398 
L 430.495262 178.465398 
L 430.960649 178.465398 
L 431.426037 178.465398 
L 431.891425 178.465398 
L 432.356813 178.465398 
L 432.822201 178.465398 
L 433.287589 178.465398 
L 433.752976 178.465398 
L 434.218364 178.465398 
L 434.683752 178.465398 
L 435.14914 178.465398 
L 435.614528 178.465398 
L 436.079916 178.465398 
L 436.545303 178.465398 
L 437.010691 178.465398 
L 437.476079 178.465398 
L 437.941467 178.465398 
L 438.406855 178.465398 
L 438.872242 178.465398 
L 439.33763 178.465398 
L 439.803018 178.465398 
L 440.268406 178.465398 
L 440.733794 178.465398 
L 441.199182 178.465398 
L 441.664569 178.465398 
L 442.129957 178.465398 
L 442.595345 178.465398 
L 443.060733 178.465398 
L 443.526121 178.465398 
L 443.991509 178.465398 
L 444.456896 178.465398 
L 444.922284 178.465398 
L 445.387672 178.465398 
L 445.85306 178.465398 
L 446.318448 178.465398 
L 446.783835 178.465398 
L 447.249223 178.465398 
L 447.714611 178.465398 
L 448.179999 178.465398 
L 448.645387 178.465398 
L 449.110775 178.465398 
L 449.576162 178.465398 
L 450.04155 178.465398 
L 450.506938 178.465398 
L 450.972326 178.465398 
L 451.437714 178.465398 
L 451.903102 178.465398 
L 452.368489 178.465398 
L 452.833877 178.465398 
L 453.299265 178.465398 
L 453.764653 178.465398 
L 454.230041 178.465398 
L 454.695428 178.465398 
L 455.160816 178.465398 
L 455.626204 178.465398 
L 456.091592 178.465398 
L 456.55698 178.465398 
L 457.022368 178.465398 
L 457.487755 178.465398 
L 457.953143 178.465398 
L 458.418531 178.465398 
L 458.883919 178.465398 
L 459.349307 178.465398 
L 459.814695 178.465398 
L 460.280082 178.465398 
L 460.74547 178.465398 
L 461.210858 178.465398 
L 461.676246 178.465398 
L 462.141634 178.465398 
L 462.607021 178.465398 
L 463.072409 178.465398 
L 463.537797 178.465398 
L 464.003185 178.465398 
L 464.468573 178.465398 
L 464.933961 178.465398 
L 465.399348 178.465398 
L 465.864736 178.465398 
L 466.330124 178.465398 
L 466.795512 178.465398 
L 467.2609 178.465398 
L 467.726288 178.465398 
L 468.191675 178.465398 
L 468.657063 178.465398 
L 469.122451 178.465398 
L 469.587839 178.465398 
L 470.053227 178.465398 
L 470.518614 178.465398 
L 470.984002 178.465398 
L 471.44939 178.465398 
L 471.914778 178.465398 
L 472.380166 178.465398 
L 472.845554 178.465398 
L 473.310941 178.465398 
L 473.776329 178.465398 
L 474.241717 178.465398 
L 474.707105 178.465398 
L 475.172493 178.465398 
L 475.637881 178.465398 
L 476.103268 178.465398 
L 476.568656 178.465398 
L 477.034044 178.465398 
L 477.499432 178.465398 
L 477.96482 178.465398 
L 478.430207 178.465398 
L 478.895595 178.465398 
L 479.360983 178.465398 
L 479.826371 178.465398 
L 480.291759 178.465398 
L 480.757147 178.465398 
L 481.222534 178.465398 
L 481.687922 178.465398 
L 482.15331 178.465398 
L 482.618698 178.465398 
L 483.084086 178.465398 
L 483.549474 178.465398 
L 484.014861 178.465398 
L 484.480249 178.465398 
L 484.945637 178.465398 
L 485.411025 178.465398 
L 485.876413 178.465398 
L 486.3418 178.465398 
L 486.807188 178.465398 
L 487.272576 178.465398 
L 487.737964 178.465398 
L 488.203352 178.465398 
L 488.66874 178.465398 
L 489.134127 178.465398 
L 489.599515 178.465398 
L 490.064903 178.465398 
L 490.530291 178.465398 
L 490.995679 178.465398 
L 491.461067 178.465398 
L 491.926454 178.465398 
L 492.391842 178.465398 
L 492.85723 178.465398 
L 493.322618 178.465398 
L 493.788006 178.465398 
L 494.253393 178.465398 
L 494.718781 178.465398 
L 495.184169 178.465398 
L 495.649557 178.465398 
L 496.114945 178.465398 
L 496.580333 178.465398 
L 497.04572 178.465398 
L 497.511108 178.465398 
L 497.976496 178.465398 
L 498.441884 178.465398 
L 498.907272 178.465398 
L 499.37266 178.465398 
L 499.838047 178.465398 
L 500.303435 178.465398 
L 500.768823 178.465398 
L 501.234211 178.465398 
L 501.699599 178.465398 
L 502.164986 178.465398 
L 502.630374 178.465398 
L 503.095762 178.465398 
L 503.56115 178.465398 
L 504.026538 178.465398 
L 504.491926 178.465398 
L 504.957313 178.465398 
L 505.422701 178.465398 
L 505.888089 178.465398 
L 506.353477 178.465398 
L 506.818865 178.465398 
L 507.284253 178.465398 
L 507.74964 178.465398 
L 508.215028 178.465398 
L 508.680416 178.465398 
L 509.145804 178.465398 
L 509.611192 178.465398 
L 510.076579 178.465398 
L 510.541967 178.465398 
L 511.007355 178.465398 
L 511.472743 178.465398 
L 511.938131 178.465398 
L 512.403519 178.465398 
L 512.868906 178.465398 
L 513.334294 178.465398 
L 513.799682 178.465398 
L 514.26507 178.465398 
L 514.730458 178.465398 
L 515.195845 178.465398 
L 515.661233 178.465398 
L 516.126621 178.465398 
L 516.592009 178.465398 
L 517.057397 178.465398 
L 517.522785 178.465398 
L 517.988172 178.465398 
L 518.45356 178.465398 
L 518.918948 178.465398 
L 519.384336 178.465398 
L 519.849724 178.465398 
L 520.315112 178.465398 
L 520.780499 178.465398 
L 521.245887 178.465398 
L 521.711275 178.465398 
L 522.176663 178.465398 
L 522.642051 178.465398 
L 523.107438 178.465398 
L 523.572826 178.465398 
L 524.038214 178.465398 
L 524.503602 178.465398 
L 524.96899 178.465398 
L 525.434378 178.465398 
L 525.899765 178.465398 
L 526.365153 178.465398 
L 526.830541 178.465398 
L 527.295929 178.465398 
L 527.761317 178.465398 
L 528.226705 178.465398 
L 528.692092 178.465398 
L 529.15748 178.465398 
L 529.622868 178.465398 
L 530.088256 178.465398 
L 530.553644 178.465398 
L 531.019031 178.465398 
L 531.484419 178.465398 
L 531.949807 178.465398 
L 532.415195 178.465398 
L 532.880583 178.465398 
L 533.345971 178.465398 
L 533.811358 178.465398 
L 534.276746 178.465398 
L 534.742134 178.465398 
L 535.207522 178.465398 
L 535.67291 178.465398 
L 536.138298 178.465398 
L 536.603685 178.465398 
L 537.069073 178.465398 
L 537.534461 178.465398 
L 537.999849 178.465398 
L 538.465237 178.465398 
L 538.930624 178.465398 
L 539.396012 178.465398 
L 539.8614 178.465398 
L 540.326788 178.465398 
L 540.792176 178.465398 
L 541.257564 178.465398 
L 541.722951 178.465398 
L 542.188339 178.465398 
L 542.653727 178.465398 
L 543.119115 178.465398 
L 543.584503 178.465398 
L 544.049891 178.465398 
L 544.515278 178.465398 
L 544.980666 178.465398 
L 545.446054 178.465398 
L 545.911442 178.465398 
L 546.37683 178.465398 
L 546.842217 178.465398 
L 547.307605 178.465398 
L 547.772993 178.465398 
L 548.238381 178.465398 
L 548.703769 178.465398 
L 549.169157 178.465398 
L 549.634544 178.465398 
L 550.099932 178.465398 
L 550.56532 178.465398 
L 551.030708 178.465398 
L 551.496096 178.465398 
L 551.961484 178.465398 
L 552.426871 178.465398 
L 552.892259 178.465398 
L 553.357647 178.465398 
L 553.823035 178.465398 
L 554.288423 178.465398 
L 554.75381 178.465398 
L 555.219198 178.465398 
L 555.684586 178.465398 
L 556.149974 178.465398 
L 556.615362 178.465398 
L 557.08075 178.465398 
L 557.546137 178.465398 
L 558.011525 178.465398 
L 558.476913 178.465398 
L 558.942301 178.465398 
L 559.407689 178.465398 
L 559.873077 178.465398 
L 560.338464 178.465398 
L 560.803852 178.465398 
L 561.26924 178.465398 
L 561.734628 178.465398 
L 562.200016 178.465398 
L 562.665403 178.465398 
L 563.130791 178.465398 
L 563.596179 178.465398 
L 564.061567 178.465398 
L 564.526955 178.465398 
L 564.992343 178.465398 
L 565.45773 178.465398 
L 565.923118 178.465398 
L 566.388506 178.465398 
L 566.853894 178.465398 
L 567.319282 178.465398 
L 567.78467 178.465398 
L 568.250057 178.465398 
L 568.715445 178.465398 
L 569.180833 178.465398 
L 569.646221 178.465398 
L 570.111609 178.465398 
L 570.576996 178.465398 
L 571.042384 178.465398 
L 571.507772 178.465398 
L 571.97316 178.465398 
L 572.438548 178.465398 
L 572.903936 178.465398 
L 573.369323 178.465398 
L 573.834711 178.465398 
L 574.300099 178.465398 
L 574.765487 178.465398 
L 575.230875 178.465398 
L 575.696263 178.465398 
L 576.16165 178.465398 
L 576.627038 178.465398 
L 577.092426 178.465398 
L 577.557814 178.465398 
L 578.023202 178.465398 
L 578.488589 178.465398 
L 578.953977 178.465398 
L 579.419365 178.465398 
L 579.884753 178.465398 
L 580.350141 178.465398 
L 580.815529 178.465398 
L 581.280916 178.465398 
L 581.746304 178.465398 
L 582.211692 178.465398 
L 582.67708 178.465398 
L 583.142468 178.465398 
L 583.607856 178.465398 
L 584.073243 178.465398 
L 584.538631 178.465398 
L 585.004019 178.465398 
L 585.469407 178.465398 
L 585.934795 178.465398 
L 586.400182 178.465398 
L 586.86557 178.465398 
L 587.330958 178.465398 
L 587.796346 178.465398 
L 588.261734 178.465398 
L 588.727122 178.465398 
L 589.192509 178.465398 
L 589.657897 178.465398 
L 590.123285 178.465398 
L 590.588673 178.465398 
L 591.054061 178.465398 
L 591.519448 178.465398 
L 591.984836 178.465398 
L 592.450224 178.465398 
L 592.915612 178.465398 
L 593.381 178.465398 
L 593.846388 178.465398 
L 594.311775 178.465398 
L 594.777163 178.465398 
L 595.242551 178.465398 
L 595.707939 178.465398 
L 596.173327 178.465398 
L 596.638715 178.465398 
L 597.104102 178.465398 
L 597.56949 178.465398 
L 598.034878 178.465398 
L 598.500266 178.465398 
L 598.965654 178.465398 
L 599.431041 178.465398 
L 599.896429 178.465398 
L 600.361817 178.465398 
L 600.827205 178.465398 
L 601.292593 178.465398 
L 601.757981 178.465398 
L 602.223368 178.465398 
L 602.688756 178.465398 
L 603.154144 178.465398 
L 603.619532 178.465398 
L 604.08492 178.465398 
L 604.550308 178.465398 
L 605.015695 178.465398 
L 605.481083 178.465398 
L 605.946471 178.465398 
L 606.411859 178.465398 
L 606.877247 178.465398 
L 607.342634 178.465398 
L 607.808022 178.465398 
L 608.27341 178.465398 
L 608.738798 178.465398 
L 609.204186 178.465398 
L 609.669574 178.465398 
L 610.134961 178.465398 
L 610.600349 178.465398 
L 611.065737 178.465398 
L 611.531125 178.465398 
L 611.996513 178.465398 
L 612.461901 178.465398 
L 612.927288 178.465398 
L 613.392676 178.465398 
L 613.858064 178.465398 
L 614.323452 178.465398 
L 614.78884 178.465398 
L 615.254227 178.465398 
L 615.719615 178.465398 
L 616.185003 178.465398 
L 616.650391 178.465398 
L 617.115779 178.465398 
L 617.581167 178.465398 
L 618.046554 178.465398 
L 618.511942 178.465398 
L 618.97733 178.465398 
L 619.442718 178.465398 
L 619.908106 178.465398 
L 620.373494 178.465398 
L 620.838881 178.465398 
L 621.304269 178.465398 
L 621.769657 178.465398 
L 622.235045 178.465398 
L 622.700433 178.465398 
L 623.16582 178.465398 
L 623.631208 178.465398 
L 624.096596 178.465398 
L 624.561984 178.465398 
L 625.027372 178.465398 
L 625.49276 178.465398 
L 625.958147 178.465398 
L 626.423535 178.465398 
L 626.888923 178.465398 
L 627.354311 178.465398 
L 627.819699 178.465398 
L 628.285087 178.465398 
L 628.750474 178.465398 
L 629.215862 178.465398 
L 629.68125 178.465398 
L 629.68125 30.210852 
L 629.68125 30.210852 
L 629.215862 30.210852 
L 628.750474 30.210852 
L 628.285087 30.210852 
L 627.819699 30.210852 
L 627.354311 30.210852 
L 626.888923 30.210852 
L 626.423535 30.210852 
L 625.958147 30.210852 
L 625.49276 30.210852 
L 625.027372 30.210852 
L 624.561984 30.210852 
L 624.096596 30.210852 
L 623.631208 30.210852 
L 623.16582 30.210852 
L 622.700433 30.210852 
L 622.235045 30.210852 
L 621.769657 30.210852 
L 621.304269 30.210852 
L 620.838881 30.210852 
L 620.373494 30.210852 
L 619.908106 30.210852 
L 619.442718 30.210852 
L 618.97733 30.210852 
L 618.511942 30.210852 
L 618.046554 30.210852 
L 617.581167 30.210852 
L 617.115779 30.210852 
L 616.650391 30.210852 
L 616.185003 30.210852 
L 615.719615 30.210852 
L 615.254227 30.210852 
L 614.78884 30.210852 
L 614.323452 30.210852 
L 613.858064 30.210852 
L 613.392676 30.210852 
L 612.927288 30.210852 
L 612.461901 30.210852 
L 611.996513 30.210852 
L 611.531125 30.210852 
L 611.065737 30.210852 
L 610.600349 30.210852 
L 610.134961 30.210852 
L 609.669574 30.210852 
L 609.204186 30.210852 
L 608.738798 30.210852 
L 608.27341 30.210852 
L 607.808022 30.210852 
L 607.342634 30.210852 
L 606.877247 30.210852 
L 606.411859 30.210852 
L 605.946471 30.210852 
L 605.481083 30.210852 
L 605.015695 30.210852 
L 604.550308 30.210852 
L 604.08492 30.210852 
L 603.619532 30.210852 
L 603.154144 30.210852 
L 602.688756 30.210852 
L 602.223368 30.210852 
L 601.757981 30.210852 
L 601.292593 30.210852 
L 600.827205 30.210852 
L 600.361817 30.210852 
L 599.896429 30.210852 
L 599.431041 30.210852 
L 598.965654 30.210852 
L 598.500266 30.210852 
L 598.034878 30.210852 
L 597.56949 30.210852 
L 597.104102 30.210852 
L 596.638715 30.210852 
L 596.173327 30.210852 
L 595.707939 30.210852 
L 595.242551 30.210852 
L 594.777163 30.210852 
L 594.311775 30.210852 
L 593.846388 30.210852 
L 593.381 30.210852 
L 592.915612 30.210852 
L 592.450224 30.210852 
L 591.984836 30.210852 
L 591.519448 30.210852 
L 591.054061 30.210852 
L 590.588673 30.210852 
L 590.123285 30.210852 
L 589.657897 30.210852 
L 589.192509 30.210852 
L 588.727122 30.210852 
L 588.261734 30.210852 
L 587.796346 30.210852 
L 587.330958 30.210852 
L 586.86557 30.210852 
L 586.400182 30.210852 
L 585.934795 30.210852 
L 585.469407 30.210852 
L 585.004019 30.210852 
L 584.538631 30.210852 
L 584.073243 30.210852 
L 583.607856 30.210852 
L 583.142468 30.210852 
L 582.67708 30.210852 
L 582.211692 30.210852 
L 581.746304 30.210852 
L 581.280916 30.210852 
L 580.815529 30.210852 
L 580.350141 30.210852 
L 579.884753 30.210852 
L 579.419365 30.210852 
L 578.953977 30.210852 
L 578.488589 30.210852 
L 578.023202 30.210852 
L 577.557814 30.210852 
L 577.092426 30.210852 
L 576.627038 30.210852 
L 576.16165 30.210852 
L 575.696263 30.210852 
L 575.230875 30.210852 
L 574.765487 30.210852 
L 574.300099 30.210852 
L 573.834711 30.210852 
L 573.369323 30.210852 
L 572.903936 30.210852 
L 572.438548 30.210852 
L 571.97316 30.210852 
L 571.507772 30.210852 
L 571.042384 30.210852 
L 570.576996 30.210852 
L 570.111609 30.210852 
L 569.646221 30.210852 
L 569.180833 30.210852 
L 568.715445 30.210852 
L 568.250057 30.210852 
L 567.78467 30.210852 
L 567.319282 30.210852 
L 566.853894 30.210852 
L 566.388506 30.210852 
L 565.923118 30.210852 
L 565.45773 30.210852 
L 564.992343 30.210852 
L 564.526955 30.210852 
L 564.061567 30.210852 
L 563.596179 30.210852 
L 563.130791 30.210852 
L 562.665403 30.210852 
L 562.200016 30.210852 
L 561.734628 30.210852 
L 561.26924 30.210852 
L 560.803852 30.210852 
L 560.338464 30.210852 
L 559.873077 30.210852 
L 559.407689 30.210852 
L 558.942301 30.210852 
L 558.476913 30.210852 
L 558.011525 30.210852 
L 557.546137 30.210852 
L 557.08075 30.210852 
L 556.615362 30.210852 
L 556.149974 30.210852 
L 555.684586 30.210852 
L 555.219198 30.210852 
L 554.75381 30.210852 
L 554.288423 30.210852 
L 553.823035 30.210852 
L 553.357647 30.210852 
L 552.892259 30.210852 
L 552.426871 30.210852 
L 551.961484 30.210852 
L 551.496096 30.210852 
L 551.030708 30.210852 
L 550.56532 30.210852 
L 550.099932 30.210852 
L 549.634544 30.210852 
L 549.169157 30.210852 
L 548.703769 30.210852 
L 548.238381 30.210852 
L 547.772993 30.210852 
L 547.307605 30.210852 
L 546.842217 30.210852 
L 546.37683 30.210852 
L 545.911442 30.210852 
L 545.446054 30.210852 
L 544.980666 30.210852 
L 544.515278 30.210852 
L 544.049891 30.210852 
L 543.584503 30.210852 
L 543.119115 30.210852 
L 542.653727 30.210852 
L 542.188339 30.210852 
L 541.722951 30.210852 
L 541.257564 30.210852 
L 540.792176 30.210852 
L 540.326788 30.210852 
L 539.8614 30.210852 
L 539.396012 30.210852 
L 538.930624 30.210852 
L 538.465237 30.210852 
L 537.999849 30.210852 
L 537.534461 30.210852 
L 537.069073 30.210852 
L 536.603685 30.210852 
L 536.138298 30.210852 
L 535.67291 30.210852 
L 535.207522 30.210852 
L 534.742134 30.210852 
L 534.276746 30.210852 
L 533.811358 30.210852 
L 533.345971 30.210852 
L 532.880583 30.210852 
L 532.415195 30.210852 
L 531.949807 30.210852 
L 531.484419 30.210852 
L 531.019031 30.210852 
L 530.553644 30.210852 
L 530.088256 30.210852 
L 529.622868 30.210852 
L 529.15748 30.210852 
L 528.692092 30.210852 
L 528.226705 30.210852 
L 527.761317 30.210852 
L 527.295929 30.210852 
L 526.830541 30.210852 
L 526.365153 30.210852 
L 525.899765 30.210852 
L 525.434378 30.210852 
L 524.96899 30.210852 
L 524.503602 30.210852 
L 524.038214 30.210852 
L 523.572826 30.210852 
L 523.107438 30.210852 
L 522.642051 30.210852 
L 522.176663 30.210852 
L 521.711275 30.210852 
L 521.245887 30.210852 
L 520.780499 30.210852 
L 520.315112 30.210852 
L 519.849724 30.210852 
L 519.384336 30.210852 
L 518.918948 30.210852 
L 518.45356 30.210852 
L 517.988172 30.210852 
L 517.522785 30.210852 
L 517.057397 30.210852 
L 516.592009 30.210852 
L 516.126621 30.210852 
L 515.661233 30.210852 
L 515.195845 30.210852 
L 514.730458 30.210852 
L 514.26507 30.210852 
L 513.799682 30.210852 
L 513.334294 30.210852 
L 512.868906 30.210852 
L 512.403519 30.210852 
L 511.938131 30.210852 
L 511.472743 30.210852 
L 511.007355 30.210852 
L 510.541967 30.210852 
L 510.076579 30.210852 
L 509.611192 30.210852 
L 509.145804 30.210852 
L 508.680416 30.210852 
L 508.215028 30.210852 
L 507.74964 30.210852 
L 507.284253 30.210852 
L 506.818865 30.210852 
L 506.353477 30.210852 
L 505.888089 30.210852 
L 505.422701 30.210852 
L 504.957313 30.210852 
L 504.491926 30.210852 
L 504.026538 30.210852 
L 503.56115 30.210852 
L 503.095762 30.210852 
L 502.630374 30.210852 
L 502.164986 30.210852 
L 501.699599 30.210852 
L 501.234211 30.210852 
L 500.768823 30.210852 
L 500.303435 30.210852 
L 499.838047 30.210852 
L 499.37266 30.210852 
L 498.907272 30.210852 
L 498.441884 30.210852 
L 497.976496 30.210852 
L 497.511108 30.210852 
L 497.04572 30.210852 
L 496.580333 30.210852 
L 496.114945 30.210852 
L 495.649557 30.210852 
L 495.184169 30.210852 
L 494.718781 30.210852 
L 494.253393 30.210852 
L 493.788006 30.210852 
L 493.322618 30.210852 
L 492.85723 30.210852 
L 492.391842 30.210852 
L 491.926454 30.210852 
L 491.461067 30.210852 
L 490.995679 30.210852 
L 490.530291 30.210852 
L 490.064903 30.210852 
L 489.599515 30.210852 
L 489.134127 30.210852 
L 488.66874 30.210852 
L 488.203352 30.210852 
L 487.737964 30.210852 
L 487.272576 30.210852 
L 486.807188 30.210852 
L 486.3418 30.210852 
L 485.876413 30.210852 
L 485.411025 30.210852 
L 484.945637 30.210852 
L 484.480249 30.210852 
L 484.014861 30.210852 
L 483.549474 30.210852 
L 483.084086 30.210852 
L 482.618698 30.210852 
L 482.15331 30.210852 
L 481.687922 30.210852 
L 481.222534 30.210852 
L 480.757147 30.210852 
L 480.291759 30.210852 
L 479.826371 30.210852 
L 479.360983 30.210852 
L 478.895595 30.210852 
L 478.430207 30.210852 
L 477.96482 30.210852 
L 477.499432 30.210852 
L 477.034044 30.210852 
L 476.568656 30.210852 
L 476.103268 30.210852 
L 475.637881 30.210852 
L 475.172493 30.210852 
L 474.707105 30.210852 
L 474.241717 30.210852 
L 473.776329 30.210852 
L 473.310941 30.210852 
L 472.845554 30.210852 
L 472.380166 30.210852 
L 471.914778 30.210852 
L 471.44939 30.210852 
L 470.984002 30.210852 
L 470.518614 30.210852 
L 470.053227 30.210852 
L 469.587839 30.210852 
L 469.122451 30.210852 
L 468.657063 30.210852 
L 468.191675 30.210852 
L 467.726288 30.210852 
L 467.2609 30.210852 
L 466.795512 30.210852 
L 466.330124 30.210852 
L 465.864736 30.210852 
L 465.399348 30.210852 
L 464.933961 30.210852 
L 464.468573 30.210852 
L 464.003185 30.210852 
L 463.537797 30.210852 
L 463.072409 30.210852 
L 462.607021 30.210852 
L 462.141634 30.210852 
L 461.676246 30.210852 
L 461.210858 30.210852 
L 460.74547 30.210852 
L 460.280082 30.210852 
L 459.814695 30.210852 
L 459.349307 30.210852 
L 458.883919 30.210852 
L 458.418531 30.210852 
L 457.953143 30.210852 
L 457.487755 30.210852 
L 457.022368 30.210852 
L 456.55698 30.210852 
L 456.091592 30.210852 
L 455.626204 30.210852 
L 455.160816 30.210852 
L 454.695428 30.210852 
L 454.230041 30.210852 
L 453.764653 30.210852 
L 453.299265 30.210852 
L 452.833877 30.210852 
L 452.368489 30.210852 
L 451.903102 30.210852 
L 451.437714 30.210852 
L 450.972326 30.210852 
L 450.506938 30.210852 
L 450.04155 30.210852 
L 449.576162 30.210852 
L 449.110775 30.210852 
L 448.645387 30.210852 
L 448.179999 30.210852 
L 447.714611 30.210852 
L 447.249223 30.210852 
L 446.783835 30.210852 
L 446.318448 30.210852 
L 445.85306 30.210852 
L 445.387672 30.210852 
L 444.922284 30.210852 
L 444.456896 30.210852 
L 443.991509 30.210852 
L 443.526121 30.210852 
L 443.060733 30.210852 
L 442.595345 30.210852 
L 442.129957 30.210852 
L 441.664569 30.210852 
L 441.199182 30.210852 
L 440.733794 30.210852 
L 440.268406 30.210852 
L 439.803018 30.210852 
L 439.33763 30.210852 
L 438.872242 30.210852 
L 438.406855 30.210852 
L 437.941467 30.210852 
L 437.476079 30.210852 
L 437.010691 30.210852 
L 436.545303 30.210852 
L 436.079916 30.210852 
L 435.614528 30.210852 
L 435.14914 30.210852 
L 434.683752 30.210852 
L 434.218364 30.210852 
L 433.752976 30.210852 
L 433.287589 30.210852 
L 432.822201 30.210852 
L 432.356813 30.210852 
L 431.891425 30.210852 
L 431.426037 30.210852 
L 430.960649 30.210852 
L 430.495262 30.210852 
L 430.029874 30.210852 
L 429.564486 30.210852 
L 429.099098 30.210852 
L 428.63371 30.210852 
L 428.168323 30.210852 
L 427.702935 30.210852 
L 427.237547 30.210852 
L 426.772159 30.210852 
L 426.306771 30.210852 
L 425.841383 30.210852 
L 425.375996 30.210852 
L 424.910608 30.210852 
L 424.44522 30.210852 
L 423.979832 30.210852 
L 423.514444 30.210852 
L 423.049057 30.210852 
L 422.583669 30.210852 
L 422.118281 30.210852 
L 421.652893 30.210852 
L 421.187505 30.210852 
L 420.722117 30.210852 
L 420.25673 30.210852 
L 419.791342 30.210852 
L 419.325954 30.210852 
L 418.860566 30.210852 
L 418.395178 30.210852 
L 417.92979 30.210852 
L 417.464403 30.210852 
L 416.999015 30.210852 
L 416.533627 30.210852 
L 416.068239 30.210852 
L 415.602851 30.210852 
L 415.137464 30.210852 
L 414.672076 30.210852 
L 414.206688 30.210852 
L 413.7413 30.210852 
L 413.275912 30.210852 
L 412.810524 30.210852 
L 412.345137 30.210852 
L 411.879749 30.210852 
L 411.414361 30.210852 
L 410.948973 30.210852 
L 410.483585 30.210852 
L 410.018197 30.210852 
L 409.55281 30.210852 
L 409.087422 30.210852 
L 408.622034 30.210852 
L 408.156646 30.210852 
L 407.691258 30.210852 
L 407.225871 30.210852 
L 406.760483 30.210852 
L 406.295095 30.210852 
L 405.829707 30.210852 
L 405.364319 30.210852 
L 404.898931 30.210852 
L 404.433544 30.210852 
L 403.968156 30.210852 
L 403.502768 30.210852 
L 403.03738 30.210852 
L 402.571992 30.210852 
L 402.106604 30.210852 
L 401.641217 30.210852 
L 401.175829 30.210852 
L 400.710441 30.210852 
L 400.245053 30.210852 
L 399.779665 30.210852 
L 399.314278 30.210852 
L 398.84889 30.210852 
L 398.383502 30.210852 
L 397.918114 30.210852 
L 397.452726 30.210852 
z
" clip-path="url(#p537a9186bf)" style="fill: #ff0000; fill-opacity: 0.4"/>
   </g>
   <g id="PolyCollection_2">
    <path d="M 71.68125 30.210852 
L 71.68125 178.465398 
L 72.146638 178.465398 
L 72.612026 178.465398 
L 73.077413 178.465398 
L 73.542801 178.465398 
L 74.008189 178.465398 
L 74.473577 178.465398 
L 74.938965 178.465398 
L 75.404353 178.465398 
L 75.86974 178.465398 
L 76.335128 178.465398 
L 76.800516 178.465398 
L 77.265904 178.465398 
L 77.731292 178.465398 
L 78.19668 178.465398 
L 78.662067 178.465398 
L 79.127455 178.465398 
L 79.592843 178.465398 
L 80.058231 178.465398 
L 80.523619 178.465398 
L 80.989006 178.465398 
L 81.454394 178.465398 
L 81.919782 178.465398 
L 82.38517 178.465398 
L 82.850558 178.465398 
L 83.315946 178.465398 
L 83.781333 178.465398 
L 84.246721 178.465398 
L 84.712109 178.465398 
L 85.177497 178.465398 
L 85.642885 178.465398 
L 86.108273 178.465398 
L 86.57366 178.465398 
L 87.039048 178.465398 
L 87.504436 178.465398 
L 87.969824 178.465398 
L 88.435212 178.465398 
L 88.900599 178.465398 
L 89.365987 178.465398 
L 89.831375 178.465398 
L 90.296763 178.465398 
L 90.762151 178.465398 
L 91.227539 178.465398 
L 91.692926 178.465398 
L 92.158314 178.465398 
L 92.623702 178.465398 
L 93.08909 178.465398 
L 93.554478 178.465398 
L 94.019866 178.465398 
L 94.485253 178.465398 
L 94.950641 178.465398 
L 95.416029 178.465398 
L 95.881417 178.465398 
L 96.346805 178.465398 
L 96.812192 178.465398 
L 97.27758 178.465398 
L 97.742968 178.465398 
L 98.208356 178.465398 
L 98.673744 178.465398 
L 99.139132 178.465398 
L 99.604519 178.465398 
L 100.069907 178.465398 
L 100.535295 178.465398 
L 101.000683 178.465398 
L 101.466071 178.465398 
L 101.931459 178.465398 
L 102.396846 178.465398 
L 102.862234 178.465398 
L 103.327622 178.465398 
L 103.79301 178.465398 
L 104.258398 178.465398 
L 104.723785 178.465398 
L 105.189173 178.465398 
L 105.654561 178.465398 
L 106.119949 178.465398 
L 106.585337 178.465398 
L 107.050725 178.465398 
L 107.516112 178.465398 
L 107.9815 178.465398 
L 108.446888 178.465398 
L 108.912276 178.465398 
L 109.377664 178.465398 
L 109.843052 178.465398 
L 110.308439 178.465398 
L 110.773827 178.465398 
L 111.239215 178.465398 
L 111.704603 178.465398 
L 112.169991 178.465398 
L 112.635378 178.465398 
L 113.100766 178.465398 
L 113.566154 178.465398 
L 114.031542 178.465398 
L 114.49693 178.465398 
L 114.962318 178.465398 
L 115.427705 178.465398 
L 115.893093 178.465398 
L 116.358481 178.465398 
L 116.823869 178.465398 
L 117.289257 178.465398 
L 117.754644 178.465398 
L 118.220032 178.465398 
L 118.68542 178.465398 
L 119.150808 178.465398 
L 119.616196 178.465398 
L 120.081584 178.465398 
L 120.546971 178.465398 
L 121.012359 178.465398 
L 121.477747 178.465398 
L 121.943135 178.465398 
L 122.408523 178.465398 
L 122.873911 178.465398 
L 123.339298 178.465398 
L 123.804686 178.465398 
L 124.270074 178.465398 
L 124.735462 178.465398 
L 125.20085 178.465398 
L 125.666237 178.465398 
L 126.131625 178.465398 
L 126.597013 178.465398 
L 127.062401 178.465398 
L 127.527789 178.465398 
L 127.993177 178.465398 
L 128.458564 178.465398 
L 128.923952 178.465398 
L 129.38934 178.465398 
L 129.854728 178.465398 
L 130.320116 178.465398 
L 130.785504 178.465398 
L 131.250891 178.465398 
L 131.716279 178.465398 
L 132.181667 178.465398 
L 132.647055 178.465398 
L 133.112443 178.465398 
L 133.57783 178.465398 
L 134.043218 178.465398 
L 134.508606 178.465398 
L 134.973994 178.465398 
L 135.439382 178.465398 
L 135.90477 178.465398 
L 136.370157 178.465398 
L 136.835545 178.465398 
L 137.300933 178.465398 
L 137.766321 178.465398 
L 138.231709 178.465398 
L 138.697097 178.465398 
L 139.162484 178.465398 
L 139.627872 178.465398 
L 140.09326 178.465398 
L 140.558648 178.465398 
L 141.024036 178.465398 
L 141.489423 178.465398 
L 141.954811 178.465398 
L 142.420199 178.465398 
L 142.885587 178.465398 
L 143.350975 178.465398 
L 143.816363 178.465398 
L 144.28175 178.465398 
L 144.747138 178.465398 
L 145.212526 178.465398 
L 145.677914 178.465398 
L 146.143302 178.465398 
L 146.60869 178.465398 
L 147.074077 178.465398 
L 147.539465 178.465398 
L 148.004853 178.465398 
L 148.470241 178.465398 
L 148.935629 178.465398 
L 149.401016 178.465398 
L 149.866404 178.465398 
L 150.331792 178.465398 
L 150.79718 178.465398 
L 151.262568 178.465398 
L 151.727956 178.465398 
L 152.193343 178.465398 
L 152.658731 178.465398 
L 153.124119 178.465398 
L 153.589507 178.465398 
L 154.054895 178.465398 
L 154.520283 178.465398 
L 154.98567 178.465398 
L 155.451058 178.465398 
L 155.916446 178.465398 
L 156.381834 178.465398 
L 156.847222 178.465398 
L 157.312609 178.465398 
L 157.777997 178.465398 
L 158.243385 178.465398 
L 158.708773 178.465398 
L 159.174161 178.465398 
L 159.639549 178.465398 
L 160.104936 178.465398 
L 160.570324 178.465398 
L 161.035712 178.465398 
L 161.5011 178.465398 
L 161.966488 178.465398 
L 162.431876 178.465398 
L 162.897263 178.465398 
L 163.362651 178.465398 
L 163.828039 178.465398 
L 164.293427 178.465398 
L 164.758815 178.465398 
L 165.224202 178.465398 
L 165.68959 178.465398 
L 166.154978 178.465398 
L 166.620366 178.465398 
L 167.085754 178.465398 
L 167.551142 178.465398 
L 168.016529 178.465398 
L 168.481917 178.465398 
L 168.947305 178.465398 
L 169.412693 178.465398 
L 169.878081 178.465398 
L 170.343469 178.465398 
L 170.808856 178.465398 
L 171.274244 178.465398 
L 171.739632 178.465398 
L 172.20502 178.465398 
L 172.670408 178.465398 
L 173.135795 178.465398 
L 173.601183 178.465398 
L 174.066571 178.465398 
L 174.531959 178.465398 
L 174.997347 178.465398 
L 175.462735 178.465398 
L 175.928122 178.465398 
L 176.39351 178.465398 
L 176.858898 178.465398 
L 177.324286 178.465398 
L 177.789674 178.465398 
L 178.255062 178.465398 
L 178.720449 178.465398 
L 179.185837 178.465398 
L 179.651225 178.465398 
L 180.116613 178.465398 
L 180.582001 178.465398 
L 181.047388 178.465398 
L 181.512776 178.465398 
L 181.978164 178.465398 
L 182.443552 178.465398 
L 182.90894 178.465398 
L 183.374328 178.465398 
L 183.839715 178.465398 
L 184.305103 178.465398 
L 184.770491 178.465398 
L 185.235879 178.465398 
L 185.701267 178.465398 
L 186.166655 178.465398 
L 186.632042 178.465398 
L 187.09743 178.465398 
L 187.562818 178.465398 
L 188.028206 178.465398 
L 188.493594 178.465398 
L 188.958981 178.465398 
L 189.424369 178.465398 
L 189.889757 178.465398 
L 190.355145 178.465398 
L 190.820533 178.465398 
L 191.285921 178.465398 
L 191.751308 178.465398 
L 192.216696 178.465398 
L 192.682084 178.465398 
L 193.147472 178.465398 
L 193.61286 178.465398 
L 194.078247 178.465398 
L 194.543635 178.465398 
L 195.009023 178.465398 
L 195.474411 178.465398 
L 195.939799 178.465398 
L 196.405187 178.465398 
L 196.870574 178.465398 
L 197.335962 178.465398 
L 197.80135 178.465398 
L 198.266738 178.465398 
L 198.732126 178.465398 
L 199.197514 178.465398 
L 199.662901 178.465398 
L 200.128289 178.465398 
L 200.593677 178.465398 
L 201.059065 178.465398 
L 201.524453 178.465398 
L 201.98984 178.465398 
L 202.455228 178.465398 
L 202.920616 178.465398 
L 203.386004 178.465398 
L 203.851392 178.465398 
L 204.31678 178.465398 
L 204.782167 178.465398 
L 205.247555 178.465398 
L 205.712943 178.465398 
L 206.178331 178.465398 
L 206.643719 178.465398 
L 207.109107 178.465398 
L 207.574494 178.465398 
L 208.039882 178.465398 
L 208.50527 178.465398 
L 208.970658 178.465398 
L 209.436046 178.465398 
L 209.901433 178.465398 
L 210.366821 178.465398 
L 210.832209 178.465398 
L 211.297597 178.465398 
L 211.762985 178.465398 
L 212.228373 178.465398 
L 212.69376 178.465398 
L 213.159148 178.465398 
L 213.624536 178.465398 
L 214.089924 178.465398 
L 214.555312 178.465398 
L 215.0207 178.465398 
L 215.486087 178.465398 
L 215.951475 178.465398 
L 216.416863 178.465398 
L 216.882251 178.465398 
L 217.347639 178.465398 
L 217.813026 178.465398 
L 218.278414 178.465398 
L 218.743802 178.465398 
L 219.20919 178.465398 
L 219.674578 178.465398 
L 220.139966 178.465398 
L 220.605353 178.465398 
L 221.070741 178.465398 
L 221.536129 178.465398 
L 222.001517 178.465398 
L 222.466905 178.465398 
L 222.932293 178.465398 
L 223.39768 178.465398 
L 223.863068 178.465398 
L 224.328456 178.465398 
L 224.793844 178.465398 
L 225.259232 178.465398 
L 225.724619 178.465398 
L 226.190007 178.465398 
L 226.655395 178.465398 
L 227.120783 178.465398 
L 227.586171 178.465398 
L 228.051559 178.465398 
L 228.516946 178.465398 
L 228.982334 178.465398 
L 229.447722 178.465398 
L 229.91311 178.465398 
L 230.378498 178.465398 
L 230.843886 178.465398 
L 231.309273 178.465398 
L 231.774661 178.465398 
L 232.240049 178.465398 
L 232.705437 178.465398 
L 233.170825 178.465398 
L 233.636212 178.465398 
L 234.1016 178.465398 
L 234.566988 178.465398 
L 235.032376 178.465398 
L 235.497764 178.465398 
L 235.963152 178.465398 
L 236.428539 178.465398 
L 236.893927 178.465398 
L 237.359315 178.465398 
L 237.824703 178.465398 
L 238.290091 178.465398 
L 238.755479 178.465398 
L 239.220866 178.465398 
L 239.686254 178.465398 
L 240.151642 178.465398 
L 240.61703 178.465398 
L 241.082418 178.465398 
L 241.547805 178.465398 
L 242.013193 178.465398 
L 242.478581 178.465398 
L 242.943969 178.465398 
L 243.409357 178.465398 
L 243.874745 178.465398 
L 244.340132 178.465398 
L 244.80552 178.465398 
L 245.270908 178.465398 
L 245.736296 178.465398 
L 246.201684 178.465398 
L 246.667072 178.465398 
L 247.132459 178.465398 
L 247.597847 178.465398 
L 248.063235 178.465398 
L 248.528623 178.465398 
L 248.994011 178.465398 
L 249.459398 178.465398 
L 249.924786 178.465398 
L 250.390174 178.465398 
L 250.855562 178.465398 
L 251.32095 178.465398 
L 251.786338 178.465398 
L 252.251725 178.465398 
L 252.717113 178.465398 
L 253.182501 178.465398 
L 253.647889 178.465398 
L 254.113277 178.465398 
L 254.578665 178.465398 
L 255.044052 178.465398 
L 255.50944 178.465398 
L 255.974828 178.465398 
L 256.440216 178.465398 
L 256.905604 178.465398 
L 257.370991 178.465398 
L 257.836379 178.465398 
L 258.301767 178.465398 
L 258.767155 178.465398 
L 259.232543 178.465398 
L 259.697931 178.465398 
L 260.163318 178.465398 
L 260.628706 178.465398 
L 261.094094 178.465398 
L 261.559482 178.465398 
L 262.02487 178.465398 
L 262.490258 178.465398 
L 262.955645 178.465398 
L 263.421033 178.465398 
L 263.886421 178.465398 
L 264.351809 178.465398 
L 264.817197 178.465398 
L 265.282584 178.465398 
L 265.747972 178.465398 
L 266.21336 178.465398 
L 266.678748 178.465398 
L 267.144136 178.465398 
L 267.609524 178.465398 
L 268.074911 178.465398 
L 268.540299 178.465398 
L 269.005687 178.465398 
L 269.471075 178.465398 
L 269.936463 178.465398 
L 270.401851 178.465398 
L 270.867238 178.465398 
L 271.332626 178.465398 
L 271.798014 178.465398 
L 272.263402 178.465398 
L 272.72879 178.465398 
L 273.194177 178.465398 
L 273.659565 178.465398 
L 274.124953 178.465398 
L 274.590341 178.465398 
L 275.055729 178.465398 
L 275.521117 178.465398 
L 275.986504 178.465398 
L 276.451892 178.465398 
L 276.91728 178.465398 
L 277.382668 178.465398 
L 277.848056 178.465398 
L 278.313443 178.465398 
L 278.778831 178.465398 
L 279.244219 178.465398 
L 279.709607 178.465398 
L 280.174995 178.465398 
L 280.640383 178.465398 
L 281.10577 178.465398 
L 281.571158 178.465398 
L 282.036546 178.465398 
L 282.501934 178.465398 
L 282.967322 178.465398 
L 283.43271 178.465398 
L 283.898097 178.465398 
L 284.363485 178.465398 
L 284.828873 178.465398 
L 285.294261 178.465398 
L 285.759649 178.465398 
L 286.225036 178.465398 
L 286.690424 178.465398 
L 287.155812 178.465398 
L 287.6212 178.465398 
L 288.086588 178.465398 
L 288.551976 178.465398 
L 289.017363 178.465398 
L 289.482751 178.465398 
L 289.948139 178.465398 
L 290.413527 178.465398 
L 290.878915 178.465398 
L 291.344303 178.465398 
L 291.80969 178.465398 
L 292.275078 178.465398 
L 292.740466 178.465398 
L 293.205854 178.465398 
L 293.671242 178.465398 
L 294.136629 178.465398 
L 294.602017 178.465398 
L 295.067405 178.465398 
L 295.532793 178.465398 
L 295.998181 178.465398 
L 296.463569 178.465398 
L 296.928956 178.465398 
L 297.394344 178.465398 
L 297.859732 178.465398 
L 298.32512 178.465398 
L 298.790508 178.465398 
L 299.255896 178.465398 
L 299.721283 178.465398 
L 300.186671 178.465398 
L 300.652059 178.465398 
L 301.117447 178.465398 
L 301.582835 178.465398 
L 302.048222 178.465398 
L 302.51361 178.465398 
L 302.978998 178.465398 
L 303.444386 178.465398 
L 303.909774 178.465398 
L 304.375162 178.465398 
L 304.840549 178.465398 
L 305.305937 178.465398 
L 305.771325 178.465398 
L 306.236713 178.465398 
L 306.702101 178.465398 
L 307.167489 178.465398 
L 307.632876 178.465398 
L 308.098264 178.465398 
L 308.563652 178.465398 
L 309.02904 178.465398 
L 309.494428 178.465398 
L 309.959815 178.465398 
L 310.425203 178.465398 
L 310.890591 178.465398 
L 311.355979 178.465398 
L 311.821367 178.465398 
L 312.286755 178.465398 
L 312.752142 178.465398 
L 313.21753 178.465398 
L 313.682918 178.465398 
L 314.148306 178.465398 
L 314.613694 178.465398 
L 315.079082 178.465398 
L 315.544469 178.465398 
L 316.009857 178.465398 
L 316.475245 178.465398 
L 316.940633 178.465398 
L 317.406021 178.465398 
L 317.871408 178.465398 
L 318.336796 178.465398 
L 318.802184 178.465398 
L 319.267572 178.465398 
L 319.73296 178.465398 
L 320.198348 178.465398 
L 320.663735 178.465398 
L 321.129123 178.465398 
L 321.594511 178.465398 
L 322.059899 178.465398 
L 322.525287 178.465398 
L 322.990675 178.465398 
L 323.456062 178.465398 
L 323.92145 178.465398 
L 324.386838 178.465398 
L 324.852226 178.465398 
L 325.317614 178.465398 
L 325.783001 178.465398 
L 326.248389 178.465398 
L 326.713777 178.465398 
L 327.179165 178.465398 
L 327.644553 178.465398 
L 328.109941 178.465398 
L 328.575328 178.465398 
L 329.040716 178.465398 
L 329.506104 178.465398 
L 329.971492 178.465398 
L 330.43688 178.465398 
L 330.902268 178.465398 
L 331.367655 178.465398 
L 331.833043 178.465398 
L 332.298431 178.465398 
L 332.763819 178.465398 
L 333.229207 178.465398 
L 333.694594 178.465398 
L 334.159982 178.465398 
L 334.62537 178.465398 
L 335.090758 178.465398 
L 335.556146 178.465398 
L 336.021534 178.465398 
L 336.486921 178.465398 
L 336.952309 178.465398 
L 337.417697 178.465398 
L 337.883085 178.465398 
L 338.348473 178.465398 
L 338.813861 178.465398 
L 339.279248 178.465398 
L 339.744636 178.465398 
L 340.210024 178.465398 
L 340.675412 178.465398 
L 341.1408 178.465398 
L 341.606187 178.465398 
L 342.071575 178.465398 
L 342.536963 178.465398 
L 343.002351 178.465398 
L 343.467739 178.465398 
L 343.933127 178.465398 
L 344.398514 178.465398 
L 344.863902 178.465398 
L 345.32929 178.465398 
L 345.794678 178.465398 
L 346.260066 178.465398 
L 346.725454 178.465398 
L 347.190841 178.465398 
L 347.656229 178.465398 
L 348.121617 178.465398 
L 348.587005 178.465398 
L 349.052393 178.465398 
L 349.51778 178.465398 
L 349.983168 178.465398 
L 350.448556 178.465398 
L 350.913944 178.465398 
L 351.379332 178.465398 
L 351.84472 178.465398 
L 352.310107 178.465398 
L 352.775495 178.465398 
L 353.240883 178.465398 
L 353.706271 178.465398 
L 354.171659 178.465398 
L 354.637046 178.465398 
L 355.102434 178.465398 
L 355.567822 178.465398 
L 356.03321 178.465398 
L 356.498598 178.465398 
L 356.963986 178.465398 
L 357.429373 178.465398 
L 357.894761 178.465398 
L 358.360149 178.465398 
L 358.825537 178.465398 
L 359.290925 178.465398 
L 359.756313 178.465398 
L 360.2217 178.465398 
L 360.687088 178.465398 
L 361.152476 178.465398 
L 361.617864 178.465398 
L 362.083252 178.465398 
L 362.548639 178.465398 
L 363.014027 178.465398 
L 363.479415 178.465398 
L 363.944803 178.465398 
L 364.410191 178.465398 
L 364.875579 178.465398 
L 365.340966 178.465398 
L 365.806354 178.465398 
L 366.271742 178.465398 
L 366.73713 178.465398 
L 367.202518 178.465398 
L 367.667906 178.465398 
L 368.133293 178.465398 
L 368.598681 178.465398 
L 369.064069 178.465398 
L 369.529457 178.465398 
L 369.994845 178.465398 
L 370.460232 178.465398 
L 370.92562 178.465398 
L 371.391008 178.465398 
L 371.856396 178.465398 
L 372.321784 178.465398 
L 372.787172 178.465398 
L 373.252559 178.465398 
L 373.717947 178.465398 
L 374.183335 178.465398 
L 374.648723 178.465398 
L 375.114111 178.465398 
L 375.579499 178.465398 
L 376.044886 178.465398 
L 376.510274 178.465398 
L 376.975662 178.465398 
L 377.44105 178.465398 
L 377.906438 178.465398 
L 378.371825 178.465398 
L 378.837213 178.465398 
L 379.302601 178.465398 
L 379.767989 178.465398 
L 380.233377 178.465398 
L 380.698765 178.465398 
L 381.164152 178.465398 
L 381.62954 178.465398 
L 382.094928 178.465398 
L 382.560316 178.465398 
L 383.025704 178.465398 
L 383.491092 178.465398 
L 383.956479 178.465398 
L 384.421867 178.465398 
L 384.887255 178.465398 
L 385.352643 178.465398 
L 385.818031 178.465398 
L 386.283418 178.465398 
L 386.748806 178.465398 
L 387.214194 178.465398 
L 387.679582 178.465398 
L 388.14497 178.465398 
L 388.610358 178.465398 
L 389.075745 178.465398 
L 389.541133 178.465398 
L 390.006521 178.465398 
L 390.471909 178.465398 
L 390.937297 178.465398 
L 391.402685 178.465398 
L 391.868072 178.465398 
L 392.33346 178.465398 
L 392.798848 178.465398 
L 393.264236 178.465398 
L 393.729624 178.465398 
L 394.195011 178.465398 
L 394.660399 178.465398 
L 395.125787 178.465398 
L 395.591175 178.465398 
L 396.056563 178.465398 
L 396.521951 178.465398 
L 396.987338 178.465398 
L 396.987338 30.210852 
L 396.987338 30.210852 
L 396.521951 30.210852 
L 396.056563 30.210852 
L 395.591175 30.210852 
L 395.125787 30.210852 
L 394.660399 30.210852 
L 394.195011 30.210852 
L 393.729624 30.210852 
L 393.264236 30.210852 
L 392.798848 30.210852 
L 392.33346 30.210852 
L 391.868072 30.210852 
L 391.402685 30.210852 
L 390.937297 30.210852 
L 390.471909 30.210852 
L 390.006521 30.210852 
L 389.541133 30.210852 
L 389.075745 30.210852 
L 388.610358 30.210852 
L 388.14497 30.210852 
L 387.679582 30.210852 
L 387.214194 30.210852 
L 386.748806 30.210852 
L 386.283418 30.210852 
L 385.818031 30.210852 
L 385.352643 30.210852 
L 384.887255 30.210852 
L 384.421867 30.210852 
L 383.956479 30.210852 
L 383.491092 30.210852 
L 383.025704 30.210852 
L 382.560316 30.210852 
L 382.094928 30.210852 
L 381.62954 30.210852 
L 381.164152 30.210852 
L 380.698765 30.210852 
L 380.233377 30.210852 
L 379.767989 30.210852 
L 379.302601 30.210852 
L 378.837213 30.210852 
L 378.371825 30.210852 
L 377.906438 30.210852 
L 377.44105 30.210852 
L 376.975662 30.210852 
L 376.510274 30.210852 
L 376.044886 30.210852 
L 375.579499 30.210852 
L 375.114111 30.210852 
L 374.648723 30.210852 
L 374.183335 30.210852 
L 373.717947 30.210852 
L 373.252559 30.210852 
L 372.787172 30.210852 
L 372.321784 30.210852 
L 371.856396 30.210852 
L 371.391008 30.210852 
L 370.92562 30.210852 
L 370.460232 30.210852 
L 369.994845 30.210852 
L 369.529457 30.210852 
L 369.064069 30.210852 
L 368.598681 30.210852 
L 368.133293 30.210852 
L 367.667906 30.210852 
L 367.202518 30.210852 
L 366.73713 30.210852 
L 366.271742 30.210852 
L 365.806354 30.210852 
L 365.340966 30.210852 
L 364.875579 30.210852 
L 364.410191 30.210852 
L 363.944803 30.210852 
L 363.479415 30.210852 
L 363.014027 30.210852 
L 362.548639 30.210852 
L 362.083252 30.210852 
L 361.617864 30.210852 
L 361.152476 30.210852 
L 360.687088 30.210852 
L 360.2217 30.210852 
L 359.756313 30.210852 
L 359.290925 30.210852 
L 358.825537 30.210852 
L 358.360149 30.210852 
L 357.894761 30.210852 
L 357.429373 30.210852 
L 356.963986 30.210852 
L 356.498598 30.210852 
L 356.03321 30.210852 
L 355.567822 30.210852 
L 355.102434 30.210852 
L 354.637046 30.210852 
L 354.171659 30.210852 
L 353.706271 30.210852 
L 353.240883 30.210852 
L 352.775495 30.210852 
L 352.310107 30.210852 
L 351.84472 30.210852 
L 351.379332 30.210852 
L 350.913944 30.210852 
L 350.448556 30.210852 
L 349.983168 30.210852 
L 349.51778 30.210852 
L 349.052393 30.210852 
L 348.587005 30.210852 
L 348.121617 30.210852 
L 347.656229 30.210852 
L 347.190841 30.210852 
L 346.725454 30.210852 
L 346.260066 30.210852 
L 345.794678 30.210852 
L 345.32929 30.210852 
L 344.863902 30.210852 
L 344.398514 30.210852 
L 343.933127 30.210852 
L 343.467739 30.210852 
L 343.002351 30.210852 
L 342.536963 30.210852 
L 342.071575 30.210852 
L 341.606187 30.210852 
L 341.1408 30.210852 
L 340.675412 30.210852 
L 340.210024 30.210852 
L 339.744636 30.210852 
L 339.279248 30.210852 
L 338.813861 30.210852 
L 338.348473 30.210852 
L 337.883085 30.210852 
L 337.417697 30.210852 
L 336.952309 30.210852 
L 336.486921 30.210852 
L 336.021534 30.210852 
L 335.556146 30.210852 
L 335.090758 30.210852 
L 334.62537 30.210852 
L 334.159982 30.210852 
L 333.694594 30.210852 
L 333.229207 30.210852 
L 332.763819 30.210852 
L 332.298431 30.210852 
L 331.833043 30.210852 
L 331.367655 30.210852 
L 330.902268 30.210852 
L 330.43688 30.210852 
L 329.971492 30.210852 
L 329.506104 30.210852 
L 329.040716 30.210852 
L 328.575328 30.210852 
L 328.109941 30.210852 
L 327.644553 30.210852 
L 327.179165 30.210852 
L 326.713777 30.210852 
L 326.248389 30.210852 
L 325.783001 30.210852 
L 325.317614 30.210852 
L 324.852226 30.210852 
L 324.386838 30.210852 
L 323.92145 30.210852 
L 323.456062 30.210852 
L 322.990675 30.210852 
L 322.525287 30.210852 
L 322.059899 30.210852 
L 321.594511 30.210852 
L 321.129123 30.210852 
L 320.663735 30.210852 
L 320.198348 30.210852 
L 319.73296 30.210852 
L 319.267572 30.210852 
L 318.802184 30.210852 
L 318.336796 30.210852 
L 317.871408 30.210852 
L 317.406021 30.210852 
L 316.940633 30.210852 
L 316.475245 30.210852 
L 316.009857 30.210852 
L 315.544469 30.210852 
L 315.079082 30.210852 
L 314.613694 30.210852 
L 314.148306 30.210852 
L 313.682918 30.210852 
L 313.21753 30.210852 
L 312.752142 30.210852 
L 312.286755 30.210852 
L 311.821367 30.210852 
L 311.355979 30.210852 
L 310.890591 30.210852 
L 310.425203 30.210852 
L 309.959815 30.210852 
L 309.494428 30.210852 
L 309.02904 30.210852 
L 308.563652 30.210852 
L 308.098264 30.210852 
L 307.632876 30.210852 
L 307.167489 30.210852 
L 306.702101 30.210852 
L 306.236713 30.210852 
L 305.771325 30.210852 
L 305.305937 30.210852 
L 304.840549 30.210852 
L 304.375162 30.210852 
L 303.909774 30.210852 
L 303.444386 30.210852 
L 302.978998 30.210852 
L 302.51361 30.210852 
L 302.048222 30.210852 
L 301.582835 30.210852 
L 301.117447 30.210852 
L 300.652059 30.210852 
L 300.186671 30.210852 
L 299.721283 30.210852 
L 299.255896 30.210852 
L 298.790508 30.210852 
L 298.32512 30.210852 
L 297.859732 30.210852 
L 297.394344 30.210852 
L 296.928956 30.210852 
L 296.463569 30.210852 
L 295.998181 30.210852 
L 295.532793 30.210852 
L 295.067405 30.210852 
L 294.602017 30.210852 
L 294.136629 30.210852 
L 293.671242 30.210852 
L 293.205854 30.210852 
L 292.740466 30.210852 
L 292.275078 30.210852 
L 291.80969 30.210852 
L 291.344303 30.210852 
L 290.878915 30.210852 
L 290.413527 30.210852 
L 289.948139 30.210852 
L 289.482751 30.210852 
L 289.017363 30.210852 
L 288.551976 30.210852 
L 288.086588 30.210852 
L 287.6212 30.210852 
L 287.155812 30.210852 
L 286.690424 30.210852 
L 286.225036 30.210852 
L 285.759649 30.210852 
L 285.294261 30.210852 
L 284.828873 30.210852 
L 284.363485 30.210852 
L 283.898097 30.210852 
L 283.43271 30.210852 
L 282.967322 30.210852 
L 282.501934 30.210852 
L 282.036546 30.210852 
L 281.571158 30.210852 
L 281.10577 30.210852 
L 280.640383 30.210852 
L 280.174995 30.210852 
L 279.709607 30.210852 
L 279.244219 30.210852 
L 278.778831 30.210852 
L 278.313443 30.210852 
L 277.848056 30.210852 
L 277.382668 30.210852 
L 276.91728 30.210852 
L 276.451892 30.210852 
L 275.986504 30.210852 
L 275.521117 30.210852 
L 275.055729 30.210852 
L 274.590341 30.210852 
L 274.124953 30.210852 
L 273.659565 30.210852 
L 273.194177 30.210852 
L 272.72879 30.210852 
L 272.263402 30.210852 
L 271.798014 30.210852 
L 271.332626 30.210852 
L 270.867238 30.210852 
L 270.401851 30.210852 
L 269.936463 30.210852 
L 269.471075 30.210852 
L 269.005687 30.210852 
L 268.540299 30.210852 
L 268.074911 30.210852 
L 267.609524 30.210852 
L 267.144136 30.210852 
L 266.678748 30.210852 
L 266.21336 30.210852 
L 265.747972 30.210852 
L 265.282584 30.210852 
L 264.817197 30.210852 
L 264.351809 30.210852 
L 263.886421 30.210852 
L 263.421033 30.210852 
L 262.955645 30.210852 
L 262.490258 30.210852 
L 262.02487 30.210852 
L 261.559482 30.210852 
L 261.094094 30.210852 
L 260.628706 30.210852 
L 260.163318 30.210852 
L 259.697931 30.210852 
L 259.232543 30.210852 
L 258.767155 30.210852 
L 258.301767 30.210852 
L 257.836379 30.210852 
L 257.370991 30.210852 
L 256.905604 30.210852 
L 256.440216 30.210852 
L 255.974828 30.210852 
L 255.50944 30.210852 
L 255.044052 30.210852 
L 254.578665 30.210852 
L 254.113277 30.210852 
L 253.647889 30.210852 
L 253.182501 30.210852 
L 252.717113 30.210852 
L 252.251725 30.210852 
L 251.786338 30.210852 
L 251.32095 30.210852 
L 250.855562 30.210852 
L 250.390174 30.210852 
L 249.924786 30.210852 
L 249.459398 30.210852 
L 248.994011 30.210852 
L 248.528623 30.210852 
L 248.063235 30.210852 
L 247.597847 30.210852 
L 247.132459 30.210852 
L 246.667072 30.210852 
L 246.201684 30.210852 
L 245.736296 30.210852 
L 245.270908 30.210852 
L 244.80552 30.210852 
L 244.340132 30.210852 
L 243.874745 30.210852 
L 243.409357 30.210852 
L 242.943969 30.210852 
L 242.478581 30.210852 
L 242.013193 30.210852 
L 241.547805 30.210852 
L 241.082418 30.210852 
L 240.61703 30.210852 
L 240.151642 30.210852 
L 239.686254 30.210852 
L 239.220866 30.210852 
L 238.755479 30.210852 
L 238.290091 30.210852 
L 237.824703 30.210852 
L 237.359315 30.210852 
L 236.893927 30.210852 
L 236.428539 30.210852 
L 235.963152 30.210852 
L 235.497764 30.210852 
L 235.032376 30.210852 
L 234.566988 30.210852 
L 234.1016 30.210852 
L 233.636212 30.210852 
L 233.170825 30.210852 
L 232.705437 30.210852 
L 232.240049 30.210852 
L 231.774661 30.210852 
L 231.309273 30.210852 
L 230.843886 30.210852 
L 230.378498 30.210852 
L 229.91311 30.210852 
L 229.447722 30.210852 
L 228.982334 30.210852 
L 228.516946 30.210852 
L 228.051559 30.210852 
L 227.586171 30.210852 
L 227.120783 30.210852 
L 226.655395 30.210852 
L 226.190007 30.210852 
L 225.724619 30.210852 
L 225.259232 30.210852 
L 224.793844 30.210852 
L 224.328456 30.210852 
L 223.863068 30.210852 
L 223.39768 30.210852 
L 222.932293 30.210852 
L 222.466905 30.210852 
L 222.001517 30.210852 
L 221.536129 30.210852 
L 221.070741 30.210852 
L 220.605353 30.210852 
L 220.139966 30.210852 
L 219.674578 30.210852 
L 219.20919 30.210852 
L 218.743802 30.210852 
L 218.278414 30.210852 
L 217.813026 30.210852 
L 217.347639 30.210852 
L 216.882251 30.210852 
L 216.416863 30.210852 
L 215.951475 30.210852 
L 215.486087 30.210852 
L 215.0207 30.210852 
L 214.555312 30.210852 
L 214.089924 30.210852 
L 213.624536 30.210852 
L 213.159148 30.210852 
L 212.69376 30.210852 
L 212.228373 30.210852 
L 211.762985 30.210852 
L 211.297597 30.210852 
L 210.832209 30.210852 
L 210.366821 30.210852 
L 209.901433 30.210852 
L 209.436046 30.210852 
L 208.970658 30.210852 
L 208.50527 30.210852 
L 208.039882 30.210852 
L 207.574494 30.210852 
L 207.109107 30.210852 
L 206.643719 30.210852 
L 206.178331 30.210852 
L 205.712943 30.210852 
L 205.247555 30.210852 
L 204.782167 30.210852 
L 204.31678 30.210852 
L 203.851392 30.210852 
L 203.386004 30.210852 
L 202.920616 30.210852 
L 202.455228 30.210852 
L 201.98984 30.210852 
L 201.524453 30.210852 
L 201.059065 30.210852 
L 200.593677 30.210852 
L 200.128289 30.210852 
L 199.662901 30.210852 
L 199.197514 30.210852 
L 198.732126 30.210852 
L 198.266738 30.210852 
L 197.80135 30.210852 
L 197.335962 30.210852 
L 196.870574 30.210852 
L 196.405187 30.210852 
L 195.939799 30.210852 
L 195.474411 30.210852 
L 195.009023 30.210852 
L 194.543635 30.210852 
L 194.078247 30.210852 
L 193.61286 30.210852 
L 193.147472 30.210852 
L 192.682084 30.210852 
L 192.216696 30.210852 
L 191.751308 30.210852 
L 191.285921 30.210852 
L 190.820533 30.210852 
L 190.355145 30.210852 
L 189.889757 30.210852 
L 189.424369 30.210852 
L 188.958981 30.210852 
L 188.493594 30.210852 
L 188.028206 30.210852 
L 187.562818 30.210852 
L 187.09743 30.210852 
L 186.632042 30.210852 
L 186.166655 30.210852 
L 185.701267 30.210852 
L 185.235879 30.210852 
L 184.770491 30.210852 
L 184.305103 30.210852 
L 183.839715 30.210852 
L 183.374328 30.210852 
L 182.90894 30.210852 
L 182.443552 30.210852 
L 181.978164 30.210852 
L 181.512776 30.210852 
L 181.047388 30.210852 
L 180.582001 30.210852 
L 180.116613 30.210852 
L 179.651225 30.210852 
L 179.185837 30.210852 
L 178.720449 30.210852 
L 178.255062 30.210852 
L 177.789674 30.210852 
L 177.324286 30.210852 
L 176.858898 30.210852 
L 176.39351 30.210852 
L 175.928122 30.210852 
L 175.462735 30.210852 
L 174.997347 30.210852 
L 174.531959 30.210852 
L 174.066571 30.210852 
L 173.601183 30.210852 
L 173.135795 30.210852 
L 172.670408 30.210852 
L 172.20502 30.210852 
L 171.739632 30.210852 
L 171.274244 30.210852 
L 170.808856 30.210852 
L 170.343469 30.210852 
L 169.878081 30.210852 
L 169.412693 30.210852 
L 168.947305 30.210852 
L 168.481917 30.210852 
L 168.016529 30.210852 
L 167.551142 30.210852 
L 167.085754 30.210852 
L 166.620366 30.210852 
L 166.154978 30.210852 
L 165.68959 30.210852 
L 165.224202 30.210852 
L 164.758815 30.210852 
L 164.293427 30.210852 
L 163.828039 30.210852 
L 163.362651 30.210852 
L 162.897263 30.210852 
L 162.431876 30.210852 
L 161.966488 30.210852 
L 161.5011 30.210852 
L 161.035712 30.210852 
L 160.570324 30.210852 
L 160.104936 30.210852 
L 159.639549 30.210852 
L 159.174161 30.210852 
L 158.708773 30.210852 
L 158.243385 30.210852 
L 157.777997 30.210852 
L 157.312609 30.210852 
L 156.847222 30.210852 
L 156.381834 30.210852 
L 155.916446 30.210852 
L 155.451058 30.210852 
L 154.98567 30.210852 
L 154.520283 30.210852 
L 154.054895 30.210852 
L 153.589507 30.210852 
L 153.124119 30.210852 
L 152.658731 30.210852 
L 152.193343 30.210852 
L 151.727956 30.210852 
L 151.262568 30.210852 
L 150.79718 30.210852 
L 150.331792 30.210852 
L 149.866404 30.210852 
L 149.401016 30.210852 
L 148.935629 30.210852 
L 148.470241 30.210852 
L 148.004853 30.210852 
L 147.539465 30.210852 
L 147.074077 30.210852 
L 146.60869 30.210852 
L 146.143302 30.210852 
L 145.677914 30.210852 
L 145.212526 30.210852 
L 144.747138 30.210852 
L 144.28175 30.210852 
L 143.816363 30.210852 
L 143.350975 30.210852 
L 142.885587 30.210852 
L 142.420199 30.210852 
L 141.954811 30.210852 
L 141.489423 30.210852 
L 141.024036 30.210852 
L 140.558648 30.210852 
L 140.09326 30.210852 
L 139.627872 30.210852 
L 139.162484 30.210852 
L 138.697097 30.210852 
L 138.231709 30.210852 
L 137.766321 30.210852 
L 137.300933 30.210852 
L 136.835545 30.210852 
L 136.370157 30.210852 
L 135.90477 30.210852 
L 135.439382 30.210852 
L 134.973994 30.210852 
L 134.508606 30.210852 
L 134.043218 30.210852 
L 133.57783 30.210852 
L 133.112443 30.210852 
L 132.647055 30.210852 
L 132.181667 30.210852 
L 131.716279 30.210852 
L 131.250891 30.210852 
L 130.785504 30.210852 
L 130.320116 30.210852 
L 129.854728 30.210852 
L 129.38934 30.210852 
L 128.923952 30.210852 
L 128.458564 30.210852 
L 127.993177 30.210852 
L 127.527789 30.210852 
L 127.062401 30.210852 
L 126.597013 30.210852 
L 126.131625 30.210852 
L 125.666237 30.210852 
L 125.20085 30.210852 
L 124.735462 30.210852 
L 124.270074 30.210852 
L 123.804686 30.210852 
L 123.339298 30.210852 
L 122.873911 30.210852 
L 122.408523 30.210852 
L 121.943135 30.210852 
L 121.477747 30.210852 
L 121.012359 30.210852 
L 120.546971 30.210852 
L 120.081584 30.210852 
L 119.616196 30.210852 
L 119.150808 30.210852 
L 118.68542 30.210852 
L 118.220032 30.210852 
L 117.754644 30.210852 
L 117.289257 30.210852 
L 116.823869 30.210852 
L 116.358481 30.210852 
L 115.893093 30.210852 
L 115.427705 30.210852 
L 114.962318 30.210852 
L 114.49693 30.210852 
L 114.031542 30.210852 
L 113.566154 30.210852 
L 113.100766 30.210852 
L 112.635378 30.210852 
L 112.169991 30.210852 
L 111.704603 30.210852 
L 111.239215 30.210852 
L 110.773827 30.210852 
L 110.308439 30.210852 
L 109.843052 30.210852 
L 109.377664 30.210852 
L 108.912276 30.210852 
L 108.446888 30.210852 
L 107.9815 30.210852 
L 107.516112 30.210852 
L 107.050725 30.210852 
L 106.585337 30.210852 
L 106.119949 30.210852 
L 105.654561 30.210852 
L 105.189173 30.210852 
L 104.723785 30.210852 
L 104.258398 30.210852 
L 103.79301 30.210852 
L 103.327622 30.210852 
L 102.862234 30.210852 
L 102.396846 30.210852 
L 101.931459 30.210852 
L 101.466071 30.210852 
L 101.000683 30.210852 
L 100.535295 30.210852 
L 100.069907 30.210852 
L 99.604519 30.210852 
L 99.139132 30.210852 
L 98.673744 30.210852 
L 98.208356 30.210852 
L 97.742968 30.210852 
L 97.27758 30.210852 
L 96.812192 30.210852 
L 96.346805 30.210852 
L 95.881417 30.210852 
L 95.416029 30.210852 
L 94.950641 30.210852 
L 94.485253 30.210852 
L 94.019866 30.210852 
L 93.554478 30.210852 
L 93.08909 30.210852 
L 92.623702 30.210852 
L 92.158314 30.210852 
L 91.692926 30.210852 
L 91.227539 30.210852 
L 90.762151 30.210852 
L 90.296763 30.210852 
L 89.831375 30.210852 
L 89.365987 30.210852 
L 88.900599 30.210852 
L 88.435212 30.210852 
L 87.969824 30.210852 
L 87.504436 30.210852 
L 87.039048 30.210852 
L 86.57366 30.210852 
L 86.108273 30.210852 
L 85.642885 30.210852 
L 85.177497 30.210852 
L 84.712109 30.210852 
L 84.246721 30.210852 
L 83.781333 30.210852 
L 83.315946 30.210852 
L 82.850558 30.210852 
L 82.38517 30.210852 
L 81.919782 30.210852 
L 81.454394 30.210852 
L 80.989006 30.210852 
L 80.523619 30.210852 
L 80.058231 30.210852 
L 79.592843 30.210852 
L 79.127455 30.210852 
L 78.662067 30.210852 
L 78.19668 30.210852 
L 77.731292 30.210852 
L 77.265904 30.210852 
L 76.800516 30.210852 
L 76.335128 30.210852 
L 75.86974 30.210852 
L 75.404353 30.210852 
L 74.938965 30.210852 
L 74.473577 30.210852 
L 74.008189 30.210852 
L 73.542801 30.210852 
L 73.077413 30.210852 
L 72.612026 30.210852 
L 72.146638 30.210852 
L 71.68125 30.210852 
z
" clip-path="url(#p537a9186bf)" style="fill: #ffff00; fill-opacity: 0.4"/>
   </g>
   <g id="matplotlib.axis_1">
    <g id="xtick_1">
     <g id="line2d_1">
      <defs>
       <path id="m912626e0ed" d="M 0 0 
L 0 3.5 
" style="stroke: #000000; stroke-width: 0.8"/>
      </defs>
      <g>
       <use xlink:href="#m912626e0ed" x="71.68125" y="185.878125" style="stroke: #000000; stroke-width: 0.8"/>
      </g>
     </g>
     <g id="text_1">
      <!-- 0 -->
      <g transform="translate(68.5 200.476562)scale(0.1 -0.1)">
       <defs>
        <path id="DejaVuSans-30" d="M 2034 4250 
Q 1547 4250 1301 3770 
Q 1056 3291 1056 2328 
Q 1056 1369 1301 889 
Q 1547 409 2034 409 
Q 2525 409 2770 889 
Q 3016 1369 3016 2328 
Q 3016 3291 2770 3770 
Q 2525 4250 2034 4250 
z
M 2034 4750 
Q 2819 4750 3233 4129 
Q 3647 3509 3647 2328 
Q 3647 1150 3233 529 
Q 2819 -91 2034 -91 
Q 1250 -91 836 529 
Q 422 1150 422 2328 
Q 422 3509 836 4129 
Q 1250 4750 2034 4750 
z
" transform="scale(0.015625)"/>
       </defs>
       <use xlink:href="#DejaVuSans-30"/>
      </g>
     </g>
    </g>
    <g id="xtick_2">
     <g id="line2d_2">
      <g>
       <use xlink:href="#m912626e0ed" x="164.758815" y="185.878125" style="stroke: #000000; stroke-width: 0.8"/>
      </g>
     </g>
     <g id="text_2">
      <!-- 200 -->
      <g transform="translate(155.215065 200.476562)scale(0.1 -0.1)">
       <defs>
        <path id="DejaVuSans-32" d="M 1228 531 
L 3431 531 
L 3431 0 
L 469 0 
L 469 531 
Q 828 903 1448 1529 
Q 2069 2156 2228 2338 
Q 2531 2678 2651 2914 
Q 2772 3150 2772 3378 
Q 2772 3750 2511 3984 
Q 2250 4219 1831 4219 
Q 1534 4219 1204 4116 
Q 875 4013 500 3803 
L 500 4441 
Q 881 4594 1212 4672 
Q 1544 4750 1819 4750 
Q 2544 4750 2975 4387 
Q 3406 4025 3406 3419 
Q 3406 3131 3298 2873 
Q 3191 2616 2906 2266 
Q 2828 2175 2409 1742 
Q 1991 1309 1228 531 
z
" transform="scale(0.015625)"/>
       </defs>
       <use xlink:href="#DejaVuSans-32"/>
       <use xlink:href="#DejaVuSans-30" x="63.623047"/>
       <use xlink:href="#DejaVuSans-30" x="127.246094"/>
      </g>
     </g>
    </g>
    <g id="xtick_3">
     <g id="line2d_3">
      <g>
       <use xlink:href="#m912626e0ed" x="257.836379" y="185.878125" style="stroke: #000000; stroke-width: 0.8"/>
      </g>
     </g>
     <g id="text_3">
      <!-- 400 -->
      <g transform="translate(248.292629 200.476562)scale(0.1 -0.1)">
       <defs>
        <path id="DejaVuSans-34" d="M 2419 4116 
L 825 1625 
L 2419 1625 
L 2419 4116 
z
M 2253 4666 
L 3047 4666 
L 3047 1625 
L 3713 1625 
L 3713 1100 
L 3047 1100 
L 3047 0 
L 2419 0 
L 2419 1100 
L 313 1100 
L 313 1709 
L 2253 4666 
z
" transform="scale(0.015625)"/>
       </defs>
       <use xlink:href="#DejaVuSans-34"/>
       <use xlink:href="#DejaVuSans-30" x="63.623047"/>
       <use xlink:href="#DejaVuSans-30" x="127.246094"/>
      </g>
     </g>
    </g>
    <g id="xtick_4">
     <g id="line2d_4">
      <g>
       <use xlink:href="#m912626e0ed" x="350.913944" y="185.878125" style="stroke: #000000; stroke-width: 0.8"/>
      </g>
     </g>
     <g id="text_4">
      <!-- 600 -->
      <g transform="translate(341.370194 200.476562)scale(0.1 -0.1)">
       <defs>
        <path id="DejaVuSans-36" d="M 2113 2584 
Q 1688 2584 1439 2293 
Q 1191 2003 1191 1497 
Q 1191 994 1439 701 
Q 1688 409 2113 409 
Q 2538 409 2786 701 
Q 3034 994 3034 1497 
Q 3034 2003 2786 2293 
Q 2538 2584 2113 2584 
z
M 3366 4563 
L 3366 3988 
Q 3128 4100 2886 4159 
Q 2644 4219 2406 4219 
Q 1781 4219 1451 3797 
Q 1122 3375 1075 2522 
Q 1259 2794 1537 2939 
Q 1816 3084 2150 3084 
Q 2853 3084 3261 2657 
Q 3669 2231 3669 1497 
Q 3669 778 3244 343 
Q 2819 -91 2113 -91 
Q 1303 -91 875 529 
Q 447 1150 447 2328 
Q 447 3434 972 4092 
Q 1497 4750 2381 4750 
Q 2619 4750 2861 4703 
Q 3103 4656 3366 4563 
z
" transform="scale(0.015625)"/>
       </defs>
       <use xlink:href="#DejaVuSans-36"/>
       <use xlink:href="#DejaVuSans-30" x="63.623047"/>
       <use xlink:href="#DejaVuSans-30" x="127.246094"/>
      </g>
     </g>
    </g>
    <g id="xtick_5">
     <g id="line2d_5">
      <g>
       <use xlink:href="#m912626e0ed" x="443.991509" y="185.878125" style="stroke: #000000; stroke-width: 0.8"/>
      </g>
     </g>
     <g id="text_5">
      <!-- 800 -->
      <g transform="translate(434.447759 200.476562)scale(0.1 -0.1)">
       <defs>
        <path id="DejaVuSans-38" d="M 2034 2216 
Q 1584 2216 1326 1975 
Q 1069 1734 1069 1313 
Q 1069 891 1326 650 
Q 1584 409 2034 409 
Q 2484 409 2743 651 
Q 3003 894 3003 1313 
Q 3003 1734 2745 1975 
Q 2488 2216 2034 2216 
z
M 1403 2484 
Q 997 2584 770 2862 
Q 544 3141 544 3541 
Q 544 4100 942 4425 
Q 1341 4750 2034 4750 
Q 2731 4750 3128 4425 
Q 3525 4100 3525 3541 
Q 3525 3141 3298 2862 
Q 3072 2584 2669 2484 
Q 3125 2378 3379 2068 
Q 3634 1759 3634 1313 
Q 3634 634 3220 271 
Q 2806 -91 2034 -91 
Q 1263 -91 848 271 
Q 434 634 434 1313 
Q 434 1759 690 2068 
Q 947 2378 1403 2484 
z
M 1172 3481 
Q 1172 3119 1398 2916 
Q 1625 2713 2034 2713 
Q 2441 2713 2670 2916 
Q 2900 3119 2900 3481 
Q 2900 3844 2670 4047 
Q 2441 4250 2034 4250 
Q 1625 4250 1398 4047 
Q 1172 3844 1172 3481 
z
" transform="scale(0.015625)"/>
       </defs>
       <use xlink:href="#DejaVuSans-38"/>
       <use xlink:href="#DejaVuSans-30" x="63.623047"/>
       <use xlink:href="#DejaVuSans-30" x="127.246094"/>
      </g>
     </g>
    </g>
    <g id="xtick_6">
     <g id="line2d_6">
      <g>
       <use xlink:href="#m912626e0ed" x="537.069073" y="185.878125" style="stroke: #000000; stroke-width: 0.8"/>
      </g>
     </g>
     <g id="text_6">
      <!-- 1000 -->
      <g transform="translate(524.344073 200.476562)scale(0.1 -0.1)">
       <defs>
        <path id="DejaVuSans-31" d="M 794 531 
L 1825 531 
L 1825 4091 
L 703 3866 
L 703 4441 
L 1819 4666 
L 2450 4666 
L 2450 531 
L 3481 531 
L 3481 0 
L 794 0 
L 794 531 
z
" transform="scale(0.015625)"/>
       </defs>
       <use xlink:href="#DejaVuSans-31"/>
       <use xlink:href="#DejaVuSans-30" x="63.623047"/>
       <use xlink:href="#DejaVuSans-30" x="127.246094"/>
       <use xlink:href="#DejaVuSans-30" x="190.869141"/>
      </g>
     </g>
    </g>
    <g id="xtick_7">
     <g id="line2d_7">
      <g>
       <use xlink:href="#m912626e0ed" x="630.146638" y="185.878125" style="stroke: #000000; stroke-width: 0.8"/>
      </g>
     </g>
     <g id="text_7">
      <!-- 1200 -->
      <g transform="translate(617.421638 200.476562)scale(0.1 -0.1)">
       <use xlink:href="#DejaVuSans-31"/>
       <use xlink:href="#DejaVuSans-32" x="63.623047"/>
       <use xlink:href="#DejaVuSans-30" x="127.246094"/>
       <use xlink:href="#DejaVuSans-30" x="190.869141"/>
      </g>
     </g>
    </g>
    <g id="text_8">
     <!-- Time -->
     <g transform="translate(338.447656 214.154688)scale(0.1 -0.1)">
      <defs>
       <path id="DejaVuSans-54" d="M -19 4666 
L 3928 4666 
L 3928 4134 
L 2272 4134 
L 2272 0 
L 1638 0 
L 1638 4134 
L -19 4134 
L -19 4666 
z
" transform="scale(0.015625)"/>
       <path id="DejaVuSans-69" d="M 603 3500 
L 1178 3500 
L 1178 0 
L 603 0 
L 603 3500 
z
M 603 4863 
L 1178 4863 
L 1178 4134 
L 603 4134 
L 603 4863 
z
" transform="scale(0.015625)"/>
       <path id="DejaVuSans-6d" d="M 3328 2828 
Q 3544 3216 3844 3400 
Q 4144 3584 4550 3584 
Q 5097 3584 5394 3201 
Q 5691 2819 5691 2113 
L 5691 0 
L 5113 0 
L 5113 2094 
Q 5113 2597 4934 2840 
Q 4756 3084 4391 3084 
Q 3944 3084 3684 2787 
Q 3425 2491 3425 1978 
L 3425 0 
L 2847 0 
L 2847 2094 
Q 2847 2600 2669 2842 
Q 2491 3084 2119 3084 
Q 1678 3084 1418 2786 
Q 1159 2488 1159 1978 
L 1159 0 
L 581 0 
L 581 3500 
L 1159 3500 
L 1159 2956 
Q 1356 3278 1631 3431 
Q 1906 3584 2284 3584 
Q 2666 3584 2933 3390 
Q 3200 3197 3328 2828 
z
" transform="scale(0.015625)"/>
       <path id="DejaVuSans-65" d="M 3597 1894 
L 3597 1613 
L 953 1613 
Q 991 1019 1311 708 
Q 1631 397 2203 397 
Q 2534 397 2845 478 
Q 3156 559 3463 722 
L 3463 178 
Q 3153 47 2828 -22 
Q 2503 -91 2169 -91 
Q 1331 -91 842 396 
Q 353 884 353 1716 
Q 353 2575 817 3079 
Q 1281 3584 2069 3584 
Q 2775 3584 3186 3129 
Q 3597 2675 3597 1894 
z
M 3022 2063 
Q 3016 2534 2758 2815 
Q 2500 3097 2075 3097 
Q 1594 3097 1305 2825 
Q 1016 2553 972 2059 
L 3022 2063 
z
" transform="scale(0.015625)"/>
      </defs>
      <use xlink:href="#DejaVuSans-54"/>
      <use xlink:href="#DejaVuSans-69" x="57.958984"/>
      <use xlink:href="#DejaVuSans-6d" x="85.742188"/>
      <use xlink:href="#DejaVuSans-65" x="183.154297"/>
     </g>
    </g>
   </g>
   <g id="matplotlib.axis_2">
    <g id="ytick_1">
     <g id="line2d_8">
      <defs>
       <path id="m770fa4dcda" d="M 0 0 
L -3.5 0 
" style="stroke: #000000; stroke-width: 0.8"/>
      </defs>
      <g>
       <use xlink:href="#m770fa4dcda" x="43.78125" y="178.465398" style="stroke: #000000; stroke-width: 0.8"/>
      </g>
     </g>
     <g id="text_9">
      <!-- 0.0 -->
      <g transform="translate(20.878125 182.264616)scale(0.1 -0.1)">
       <defs>
        <path id="DejaVuSans-2e" d="M 684 794 
L 1344 794 
L 1344 0 
L 684 0 
L 684 794 
z
" transform="scale(0.015625)"/>
       </defs>
       <use xlink:href="#DejaVuSans-30"/>
       <use xlink:href="#DejaVuSans-2e" x="63.623047"/>
       <use xlink:href="#DejaVuSans-30" x="95.410156"/>
      </g>
     </g>
    </g>
    <g id="ytick_2">
     <g id="line2d_9">
      <g>
       <use xlink:href="#m770fa4dcda" x="43.78125" y="141.401761" style="stroke: #000000; stroke-width: 0.8"/>
      </g>
     </g>
     <g id="text_10">
      <!-- 0.5 -->
      <g transform="translate(20.878125 145.20098)scale(0.1 -0.1)">
       <defs>
        <path id="DejaVuSans-35" d="M 691 4666 
L 3169 4666 
L 3169 4134 
L 1269 4134 
L 1269 2991 
Q 1406 3038 1543 3061 
Q 1681 3084 1819 3084 
Q 2600 3084 3056 2656 
Q 3513 2228 3513 1497 
Q 3513 744 3044 326 
Q 2575 -91 1722 -91 
Q 1428 -91 1123 -41 
Q 819 9 494 109 
L 494 744 
Q 775 591 1075 516 
Q 1375 441 1709 441 
Q 2250 441 2565 725 
Q 2881 1009 2881 1497 
Q 2881 1984 2565 2268 
Q 2250 2553 1709 2553 
Q 1456 2553 1204 2497 
Q 953 2441 691 2322 
L 691 4666 
z
" transform="scale(0.015625)"/>
       </defs>
       <use xlink:href="#DejaVuSans-30"/>
       <use xlink:href="#DejaVuSans-2e" x="63.623047"/>
       <use xlink:href="#DejaVuSans-35" x="95.410156"/>
      </g>
     </g>
    </g>
    <g id="ytick_3">
     <g id="line2d_10">
      <g>
       <use xlink:href="#m770fa4dcda" x="43.78125" y="104.338125" style="stroke: #000000; stroke-width: 0.8"/>
      </g>
     </g>
     <g id="text_11">
      <!-- 1.0 -->
      <g transform="translate(20.878125 108.137344)scale(0.1 -0.1)">
       <use xlink:href="#DejaVuSans-31"/>
       <use xlink:href="#DejaVuSans-2e" x="63.623047"/>
       <use xlink:href="#DejaVuSans-30" x="95.410156"/>
      </g>
     </g>
    </g>
    <g id="ytick_4">
     <g id="line2d_11">
      <g>
       <use xlink:href="#m770fa4dcda" x="43.78125" y="67.274489" style="stroke: #000000; stroke-width: 0.8"/>
      </g>
     </g>
     <g id="text_12">
      <!-- 1.5 -->
      <g transform="translate(20.878125 71.073707)scale(0.1 -0.1)">
       <use xlink:href="#DejaVuSans-31"/>
       <use xlink:href="#DejaVuSans-2e" x="63.623047"/>
       <use xlink:href="#DejaVuSans-35" x="95.410156"/>
      </g>
     </g>
    </g>
    <g id="ytick_5">
     <g id="line2d_12">
      <g>
       <use xlink:href="#m770fa4dcda" x="43.78125" y="30.210852" style="stroke: #000000; stroke-width: 0.8"/>
      </g>
     </g>
     <g id="text_13">
      <!-- 2.0 -->
      <g transform="translate(20.878125 34.010071)scale(0.1 -0.1)">
       <use xlink:href="#DejaVuSans-32"/>
       <use xlink:href="#DejaVuSans-2e" x="63.623047"/>
       <use xlink:href="#DejaVuSans-30" x="95.410156"/>
      </g>
     </g>
    </g>
    <g id="text_14">
     <!-- EMI -->
     <g transform="translate(14.798438 113.286563)rotate(-90)scale(0.1 -0.1)">
      <defs>
       <path id="DejaVuSans-45" d="M 628 4666 
L 3578 4666 
L 3578 4134 
L 1259 4134 
L 1259 2753 
L 3481 2753 
L 3481 2222 
L 1259 2222 
L 1259 531 
L 3634 531 
L 3634 0 
L 628 0 
L 628 4666 
z
" transform="scale(0.015625)"/>
       <path id="DejaVuSans-4d" d="M 628 4666 
L 1569 4666 
L 2759 1491 
L 3956 4666 
L 4897 4666 
L 4897 0 
L 4281 0 
L 4281 4097 
L 3078 897 
L 2444 897 
L 1241 4097 
L 1241 0 
L 628 0 
L 628 4666 
z
" transform="scale(0.015625)"/>
       <path id="DejaVuSans-49" d="M 628 4666 
L 1259 4666 
L 1259 0 
L 628 0 
L 628 4666 
z
" transform="scale(0.015625)"/>
      </defs>
      <use xlink:href="#DejaVuSans-45"/>
      <use xlink:href="#DejaVuSans-4d" x="63.183594"/>
      <use xlink:href="#DejaVuSans-49" x="149.462891"/>
     </g>
    </g>
   </g>
   <g id="line2d_13">
    <path d="M 71.68125 178.465398 
L 410.948973 178.465398 
L 411.414361 72.744807 
L 411.879749 97.36742 
L 412.345137 84.053835 
L 412.810524 86.033412 
L 413.275912 89.886271 
L 413.7413 89.197305 
L 414.206688 104.723082 
L 414.672076 95.392549 
L 415.137464 80.788738 
L 415.602851 87.250884 
L 416.068239 75.514447 
L 416.533627 101.779496 
L 416.999015 81.756049 
L 417.464403 72.324133 
L 417.92979 104.514853 
L 418.395178 118.726176 
L 418.860566 100.90466 
L 419.325954 95.254801 
L 419.791342 77.728804 
L 420.25673 68.097799 
L 420.722117 89.769633 
L 421.187505 73.130806 
L 421.652893 102.794967 
L 422.583669 63.169208 
L 423.049057 74.67591 
L 423.514444 52.492571 
L 423.979832 73.518785 
L 424.44522 76.202539 
L 424.910608 104.07894 
L 425.375996 74.438089 
L 425.841383 78.265294 
L 426.306771 86.937869 
L 426.772159 99.931872 
L 427.237547 81.497151 
L 427.702935 79.329057 
L 428.168323 79.938396 
L 428.63371 98.720588 
L 429.099098 88.423301 
L 429.564486 101.876547 
L 430.029874 100.86944 
L 431.426037 76.696245 
L 431.891425 89.928164 
L 432.356813 107.397791 
L 432.822201 99.136432 
L 433.287589 84.837469 
L 434.218364 111.808708 
L 434.683752 79.23065 
L 435.14914 88.527836 
L 435.614528 106.211417 
L 436.079916 115.959651 
L 436.545303 107.030395 
L 437.010691 104.566593 
L 437.476079 91.466733 
L 437.941467 99.778406 
L 438.406855 97.495718 
L 438.872242 102.349666 
L 439.33763 98.88475 
L 439.803018 111.897754 
L 440.268406 98.427673 
L 440.733794 81.475008 
L 441.199182 107.366147 
L 441.664569 91.693549 
L 442.129957 118.458023 
L 442.595345 85.115332 
L 443.060733 116.703949 
L 443.526121 97.794228 
L 443.991509 99.869417 
L 444.456896 84.226076 
L 444.922284 91.477526 
L 445.85306 83.556825 
L 446.318448 105.091475 
L 447.249223 81.358776 
L 447.714611 96.435582 
L 448.179999 93.583303 
L 448.645387 85.760406 
L 449.110775 72.985962 
L 450.04155 78.542853 
L 450.506938 111.316331 
L 450.972326 95.906464 
L 451.437714 104.559227 
L 451.903102 84.456054 
L 452.368489 97.501329 
L 452.833877 83.614734 
L 453.299265 82.446705 
L 453.764653 111.128349 
L 454.230041 98.976465 
L 454.695428 107.743663 
L 455.160816 83.686919 
L 455.626204 96.458962 
L 456.091592 78.154501 
L 456.55698 102.659233 
L 457.022368 118.834763 
L 457.487755 76.063485 
L 457.953143 76.119727 
L 458.418531 121.433099 
L 458.883919 98.650651 
L 459.349307 86.878334 
L 459.814695 113.867708 
L 460.280082 114.254344 
L 460.74547 94.290035 
L 461.210858 99.295772 
L 461.676246 113.493393 
L 462.141634 110.23728 
L 462.607021 112.582392 
L 463.072409 110.967603 
L 463.537797 107.98377 
L 464.003185 107.87098 
L 464.468573 116.786709 
L 464.933961 96.201513 
L 465.399348 116.049459 
L 465.864736 114.885423 
L 466.330124 115.658974 
L 466.795512 120.552302 
L 467.2609 119.722351 
L 467.726288 113.928189 
L 468.191675 99.352306 
L 468.657063 114.111998 
L 469.122451 108.215636 
L 469.587839 97.088093 
L 470.053227 115.357708 
L 470.518614 118.500324 
L 470.984002 107.022066 
L 471.44939 119.036174 
L 471.914778 116.776134 
L 472.380166 109.492992 
L 472.845554 112.977254 
L 473.310941 114.416007 
L 473.776329 117.245822 
L 474.241717 108.110309 
L 474.707105 113.073825 
L 475.172493 111.696038 
L 475.637881 116.591681 
L 476.103268 120.178628 
L 476.568656 117.670856 
L 477.034044 108.86396 
L 477.499432 120.859932 
L 477.96482 82.210309 
L 478.430207 108.716295 
L 478.895595 86.846429 
L 479.360983 94.029875 
L 479.826371 109.647363 
L 480.291759 111.954331 
L 480.757147 108.21817 
L 481.222534 109.564843 
L 481.687922 113.595584 
L 482.15331 106.526647 
L 482.618698 121.293619 
L 483.084086 106.78621 
L 483.549474 113.788804 
L 484.014861 111.713854 
L 484.480249 108.51596 
L 484.945637 97.57213 
L 485.411025 107.523164 
L 485.876413 113.967678 
L 486.3418 101.878631 
L 486.807188 114.227624 
L 487.272576 104.275684 
L 487.737964 113.781429 
L 488.203352 112.199841 
L 488.66874 114.111818 
L 489.134127 110.120976 
L 489.599515 115.426688 
L 490.064903 101.295512 
L 490.995679 121.278345 
L 491.461067 112.937364 
L 491.926454 118.980433 
L 492.391842 109.178132 
L 492.85723 93.651464 
L 493.322618 106.047028 
L 493.788006 108.120403 
L 494.253393 116.7451 
L 494.718781 120.689735 
L 495.184169 115.170114 
L 495.649557 98.883934 
L 496.114945 99.171341 
L 496.580333 116.809493 
L 497.04572 119.15589 
L 497.511108 111.007076 
L 497.976496 119.813596 
L 498.441884 113.420021 
L 498.907272 98.819373 
L 499.37266 121.010987 
L 499.838047 108.664036 
L 500.303435 116.577613 
L 500.768823 111.453387 
L 501.234211 111.935471 
L 501.699599 120.047976 
L 502.164986 108.971482 
L 502.630374 117.397555 
L 503.095762 109.243697 
L 503.56115 95.614896 
L 504.026538 105.295982 
L 504.491926 108.012357 
L 504.957313 101.837144 
L 505.422701 117.194157 
L 505.888089 109.680445 
L 506.353477 85.160137 
L 506.818865 113.953256 
L 507.284253 109.244617 
L 507.74964 110.976119 
L 508.215028 115.463778 
L 508.680416 99.958694 
L 509.145804 104.479579 
L 509.611192 113.496346 
L 510.076579 110.305091 
L 510.541967 109.422931 
L 511.007355 117.737614 
L 511.472743 119.950111 
L 511.938131 120.644947 
L 512.403519 115.514662 
L 512.868906 105.561387 
L 513.334294 121.213852 
L 513.799682 121.011673 
L 514.26507 108.230983 
L 514.730458 102.035415 
L 515.195845 108.422103 
L 515.661233 103.137342 
L 516.126621 106.893288 
L 516.592009 116.216959 
L 517.057397 108.525504 
L 517.522785 119.848587 
L 517.988172 102.283475 
L 518.45356 99.377903 
L 518.918948 112.012171 
L 519.384336 119.152984 
L 519.849724 116.798298 
L 520.315112 102.80854 
L 520.780499 117.707821 
L 521.245887 116.798878 
L 521.711275 120.844152 
L 522.176663 118.704183 
L 522.642051 117.845809 
L 523.107438 117.228542 
L 523.572826 117.103746 
L 524.038214 103.292173 
L 524.503602 102.272727 
L 524.96899 102.197904 
L 525.434378 100.909419 
L 525.899765 114.694313 
L 526.365153 117.609266 
L 526.830541 114.384367 
L 527.295929 86.622478 
L 527.761317 108.186314 
L 528.226705 107.101582 
L 528.692092 104.810056 
L 529.15748 113.889052 
L 529.622868 108.05482 
L 530.088256 119.842652 
L 530.553644 83.459426 
L 531.019031 108.338516 
L 531.484419 108.392687 
L 531.949807 112.035623 
L 532.415195 88.275283 
L 532.880583 105.909514 
L 533.345971 97.92256 
L 534.276746 103.689489 
L 534.742134 100.816079 
L 535.207522 91.485309 
L 535.67291 99.360809 
L 536.138298 92.786503 
L 536.603685 115.495378 
L 537.069073 106.454214 
L 537.534461 100.77291 
L 537.999849 114.693235 
L 538.930624 105.265415 
L 539.396012 107.143148 
L 539.8614 121.328791 
L 540.326788 120.874475 
L 540.792176 100.410686 
L 541.257564 102.597518 
L 541.722951 102.139818 
L 542.188339 115.071775 
L 542.653727 95.55002 
L 543.119115 120.905409 
L 544.049891 113.366466 
L 544.515278 95.413729 
L 544.980666 101.176098 
L 545.446054 98.370105 
L 545.911442 88.087668 
L 546.37683 105.858779 
L 546.842217 102.686213 
L 547.307605 117.704476 
L 547.772993 115.002628 
L 548.238381 114.40979 
L 548.703769 110.920669 
L 549.169157 98.78942 
L 549.634544 90.728521 
L 550.099932 115.701478 
L 550.56532 119.722538 
L 551.030708 117.246224 
L 551.496096 121.408565 
L 551.961484 107.192897 
L 552.426871 109.856039 
L 552.892259 110.007914 
L 553.357647 115.728304 
L 553.823035 88.843728 
L 554.288423 94.799733 
L 554.75381 88.306004 
L 555.219198 93.330588 
L 555.684586 107.126745 
L 556.149974 100.65347 
L 556.615362 99.462393 
L 557.08075 117.106476 
L 557.546137 109.80789 
L 558.011525 110.757112 
L 558.942301 95.618796 
L 559.407689 106.935334 
L 559.873077 115.357094 
L 560.338464 99.660116 
L 560.803852 120.971164 
L 561.26924 109.4607 
L 561.734628 109.95053 
L 562.665403 94.972294 
L 563.130791 104.863645 
L 563.596179 103.813028 
L 564.061567 109.396259 
L 564.526955 118.451057 
L 565.45773 82.943518 
L 565.923118 101.042323 
L 566.388506 106.927915 
L 566.853894 106.280469 
L 567.319282 108.538703 
L 567.78467 103.936605 
L 568.250057 98.0993 
L 568.715445 114.483404 
L 569.646221 89.818403 
L 570.576996 120.106924 
L 571.042384 85.261719 
L 571.507772 93.357292 
L 571.97316 97.383356 
L 572.438548 94.898667 
L 572.903936 96.9888 
L 573.369323 119.44307 
L 573.834711 84.712496 
L 574.300099 74.424972 
L 574.765487 93.627235 
L 575.230875 83.87668 
L 575.696263 115.779854 
L 576.627038 72.985147 
L 577.092426 92.119951 
L 577.557814 79.154884 
L 578.023202 110.409137 
L 578.488589 94.045161 
L 578.953977 69.479272 
L 579.419365 85.203621 
L 579.884753 68.115323 
L 580.350141 97.929896 
L 580.815529 103.49331 
L 581.280916 119.221503 
L 581.746304 78.48405 
L 582.211692 92.678711 
L 582.67708 86.620993 
L 583.142468 85.906282 
L 583.607856 66.54266 
L 584.073243 76.733595 
L 584.538631 72.821453 
L 585.004019 104.54995 
L 585.469407 100.359932 
L 585.934795 73.13372 
L 586.400182 75.058509 
L 586.86557 103.760663 
L 587.330958 89.651789 
L 587.796346 79.228023 
L 588.261734 84.162676 
L 588.727122 63.323251 
L 589.192509 89.535692 
L 589.657897 108.479249 
L 590.123285 100.648103 
L 590.588673 84.798774 
L 591.054061 83.572496 
L 591.519448 107.576853 
L 591.984836 101.166006 
L 592.450224 80.323246 
L 592.915612 76.087575 
L 593.381 85.300222 
L 593.846388 110.25497 
L 594.311775 67.446398 
L 594.777163 110.097076 
L 595.242551 102.417974 
L 595.707939 90.63902 
L 596.173327 96.670072 
L 596.638715 110.328268 
L 597.104102 97.613792 
L 597.56949 95.304081 
L 598.034878 104.528724 
L 598.500266 100.895229 
L 598.965654 88.960574 
L 599.431041 80.102141 
L 599.896429 100.203366 
L 600.361817 85.157629 
L 600.827205 109.760172 
L 601.292593 89.295606 
L 601.757981 91.131748 
L 602.223368 88.94495 
L 602.688756 85.481749 
L 603.154144 96.903651 
L 603.619532 103.265377 
L 604.08492 77.975386 
L 604.550308 100.18199 
L 605.015695 78.123212 
L 605.481083 87.003231 
L 605.946471 77.858507 
L 606.411859 98.396023 
L 606.877247 89.507909 
L 607.808022 60.758946 
L 608.27341 94.837248 
L 608.738798 90.595077 
L 609.204186 75.471902 
L 609.669574 68.346979 
L 610.134961 55.918159 
L 610.600349 77.579434 
L 611.531125 53.377012 
L 611.996513 94.314104 
L 612.461901 79.631571 
L 612.927288 82.387857 
L 613.392676 56.636289 
L 613.858064 93.5377 
L 614.323452 90.610759 
L 614.78884 96.431074 
L 615.254227 97.555898 
L 615.719615 94.887332 
L 616.185003 85.092981 
L 616.650391 69.724472 
L 617.115779 89.090457 
L 617.581167 96.760473 
L 618.046554 68.893342 
L 618.511942 83.645158 
L 618.97733 76.308307 
L 619.442718 95.247735 
L 619.908106 83.339483 
L 620.373494 116.737636 
L 620.838881 106.68398 
L 621.769657 61.745054 
L 622.235045 102.01356 
L 622.700433 87.709422 
L 623.631208 105.008383 
L 624.096596 110.203152 
L 624.561984 83.204344 
L 625.027372 105.502296 
L 625.49276 117.058137 
L 625.958147 93.0872 
L 626.423535 118.265074 
L 626.888923 84.068751 
L 627.354311 100.524723 
L 627.819699 89.588394 
L 628.285087 102.807458 
L 628.750474 102.387753 
L 629.215862 119.848293 
L 629.215862 119.848293 
" clip-path="url(#p537a9186bf)" style="fill: none; stroke: #1f77b4; stroke-linecap: square"/>
   </g>
   <g id="line2d_14">
    <path d="M 397.452726 185.878125 
L 397.452726 22.798125 
" clip-path="url(#p537a9186bf)" style="fill: none; stroke-dasharray: 7.4,3.2; stroke-dashoffset: 0; stroke: #ff0000; stroke-width: 2"/>
   </g>
   <g id="patch_3">
    <path d="M 43.78125 185.878125 
L 43.78125 22.798125 
" style="fill: none; stroke: #000000; stroke-width: 0.8; stroke-linejoin: miter; stroke-linecap: square"/>
   </g>
   <g id="patch_4">
    <path d="M 657.58125 185.878125 
L 657.58125 22.798125 
" style="fill: none; stroke: #000000; stroke-width: 0.8; stroke-linejoin: miter; stroke-linecap: square"/>
   </g>
   <g id="patch_5">
    <path d="M 43.78125 185.878125 
L 657.58125 185.878125 
" style="fill: none; stroke: #000000; stroke-width: 0.8; stroke-linejoin: miter; stroke-linecap: square"/>
   </g>
   <g id="patch_6">
    <path d="M 43.78125 22.798125 
L 657.58125 22.798125 
" style="fill: none; stroke: #000000; stroke-width: 0.8; stroke-linejoin: miter; stroke-linecap: square"/>
   </g>
   <g id="text_15">
    <!-- EMI filtrada del Residuo vs Alguna entrada (datos sintticos) -->
    <g transform="translate(169.340625 16.798125)scale(0.12 -0.12)">
     <defs>
      <path id="DejaVuSans-20" transform="scale(0.015625)"/>
      <path id="DejaVuSans-66" d="M 2375 4863 
L 2375 4384 
L 1825 4384 
Q 1516 4384 1395 4259 
Q 1275 4134 1275 3809 
L 1275 3500 
L 2222 3500 
L 2222 3053 
L 1275 3053 
L 1275 0 
L 697 0 
L 697 3053 
L 147 3053 
L 147 3500 
L 697 3500 
L 697 3744 
Q 697 4328 969 4595 
Q 1241 4863 1831 4863 
L 2375 4863 
z
" transform="scale(0.015625)"/>
      <path id="DejaVuSans-6c" d="M 603 4863 
L 1178 4863 
L 1178 0 
L 603 0 
L 603 4863 
z
" transform="scale(0.015625)"/>
      <path id="DejaVuSans-74" d="M 1172 4494 
L 1172 3500 
L 2356 3500 
L 2356 3053 
L 1172 3053 
L 1172 1153 
Q 1172 725 1289 603 
Q 1406 481 1766 481 
L 2356 481 
L 2356 0 
L 1766 0 
Q 1100 0 847 248 
Q 594 497 594 1153 
L 594 3053 
L 172 3053 
L 172 3500 
L 594 3500 
L 594 4494 
L 1172 4494 
z
" transform="scale(0.015625)"/>
      <path id="DejaVuSans-72" d="M 2631 2963 
Q 2534 3019 2420 3045 
Q 2306 3072 2169 3072 
Q 1681 3072 1420 2755 
Q 1159 2438 1159 1844 
L 1159 0 
L 581 0 
L 581 3500 
L 1159 3500 
L 1159 2956 
Q 1341 3275 1631 3429 
Q 1922 3584 2338 3584 
Q 2397 3584 2469 3576 
Q 2541 3569 2628 3553 
L 2631 2963 
z
" transform="scale(0.015625)"/>
      <path id="DejaVuSans-61" d="M 2194 1759 
Q 1497 1759 1228 1600 
Q 959 1441 959 1056 
Q 959 750 1161 570 
Q 1363 391 1709 391 
Q 2188 391 2477 730 
Q 2766 1069 2766 1631 
L 2766 1759 
L 2194 1759 
z
M 3341 1997 
L 3341 0 
L 2766 0 
L 2766 531 
Q 2569 213 2275 61 
Q 1981 -91 1556 -91 
Q 1019 -91 701 211 
Q 384 513 384 1019 
Q 384 1609 779 1909 
Q 1175 2209 1959 2209 
L 2766 2209 
L 2766 2266 
Q 2766 2663 2505 2880 
Q 2244 3097 1772 3097 
Q 1472 3097 1187 3025 
Q 903 2953 641 2809 
L 641 3341 
Q 956 3463 1253 3523 
Q 1550 3584 1831 3584 
Q 2591 3584 2966 3190 
Q 3341 2797 3341 1997 
z
" transform="scale(0.015625)"/>
      <path id="DejaVuSans-64" d="M 2906 2969 
L 2906 4863 
L 3481 4863 
L 3481 0 
L 2906 0 
L 2906 525 
Q 2725 213 2448 61 
Q 2172 -91 1784 -91 
Q 1150 -91 751 415 
Q 353 922 353 1747 
Q 353 2572 751 3078 
Q 1150 3584 1784 3584 
Q 2172 3584 2448 3432 
Q 2725 3281 2906 2969 
z
M 947 1747 
Q 947 1113 1208 752 
Q 1469 391 1925 391 
Q 2381 391 2643 752 
Q 2906 1113 2906 1747 
Q 2906 2381 2643 2742 
Q 2381 3103 1925 3103 
Q 1469 3103 1208 2742 
Q 947 2381 947 1747 
z
" transform="scale(0.015625)"/>
      <path id="DejaVuSans-52" d="M 2841 2188 
Q 3044 2119 3236 1894 
Q 3428 1669 3622 1275 
L 4263 0 
L 3584 0 
L 2988 1197 
Q 2756 1666 2539 1819 
Q 2322 1972 1947 1972 
L 1259 1972 
L 1259 0 
L 628 0 
L 628 4666 
L 2053 4666 
Q 2853 4666 3247 4331 
Q 3641 3997 3641 3322 
Q 3641 2881 3436 2590 
Q 3231 2300 2841 2188 
z
M 1259 4147 
L 1259 2491 
L 2053 2491 
Q 2509 2491 2742 2702 
Q 2975 2913 2975 3322 
Q 2975 3731 2742 3939 
Q 2509 4147 2053 4147 
L 1259 4147 
z
" transform="scale(0.015625)"/>
      <path id="DejaVuSans-73" d="M 2834 3397 
L 2834 2853 
Q 2591 2978 2328 3040 
Q 2066 3103 1784 3103 
Q 1356 3103 1142 2972 
Q 928 2841 928 2578 
Q 928 2378 1081 2264 
Q 1234 2150 1697 2047 
L 1894 2003 
Q 2506 1872 2764 1633 
Q 3022 1394 3022 966 
Q 3022 478 2636 193 
Q 2250 -91 1575 -91 
Q 1294 -91 989 -36 
Q 684 19 347 128 
L 347 722 
Q 666 556 975 473 
Q 1284 391 1588 391 
Q 1994 391 2212 530 
Q 2431 669 2431 922 
Q 2431 1156 2273 1281 
Q 2116 1406 1581 1522 
L 1381 1569 
Q 847 1681 609 1914 
Q 372 2147 372 2553 
Q 372 3047 722 3315 
Q 1072 3584 1716 3584 
Q 2034 3584 2315 3537 
Q 2597 3491 2834 3397 
z
" transform="scale(0.015625)"/>
      <path id="DejaVuSans-75" d="M 544 1381 
L 544 3500 
L 1119 3500 
L 1119 1403 
Q 1119 906 1312 657 
Q 1506 409 1894 409 
Q 2359 409 2629 706 
Q 2900 1003 2900 1516 
L 2900 3500 
L 3475 3500 
L 3475 0 
L 2900 0 
L 2900 538 
Q 2691 219 2414 64 
Q 2138 -91 1772 -91 
Q 1169 -91 856 284 
Q 544 659 544 1381 
z
M 1991 3584 
L 1991 3584 
z
" transform="scale(0.015625)"/>
      <path id="DejaVuSans-6f" d="M 1959 3097 
Q 1497 3097 1228 2736 
Q 959 2375 959 1747 
Q 959 1119 1226 758 
Q 1494 397 1959 397 
Q 2419 397 2687 759 
Q 2956 1122 2956 1747 
Q 2956 2369 2687 2733 
Q 2419 3097 1959 3097 
z
M 1959 3584 
Q 2709 3584 3137 3096 
Q 3566 2609 3566 1747 
Q 3566 888 3137 398 
Q 2709 -91 1959 -91 
Q 1206 -91 779 398 
Q 353 888 353 1747 
Q 353 2609 779 3096 
Q 1206 3584 1959 3584 
z
" transform="scale(0.015625)"/>
      <path id="DejaVuSans-76" d="M 191 3500 
L 800 3500 
L 1894 563 
L 2988 3500 
L 3597 3500 
L 2284 0 
L 1503 0 
L 191 3500 
z
" transform="scale(0.015625)"/>
      <path id="DejaVuSans-41" d="M 2188 4044 
L 1331 1722 
L 3047 1722 
L 2188 4044 
z
M 1831 4666 
L 2547 4666 
L 4325 0 
L 3669 0 
L 3244 1197 
L 1141 1197 
L 716 0 
L 50 0 
L 1831 4666 
z
" transform="scale(0.015625)"/>
      <path id="DejaVuSans-67" d="M 2906 1791 
Q 2906 2416 2648 2759 
Q 2391 3103 1925 3103 
Q 1463 3103 1205 2759 
Q 947 2416 947 1791 
Q 947 1169 1205 825 
Q 1463 481 1925 481 
Q 2391 481 2648 825 
Q 2906 1169 2906 1791 
z
M 3481 434 
Q 3481 -459 3084 -895 
Q 2688 -1331 1869 -1331 
Q 1566 -1331 1297 -1286 
Q 1028 -1241 775 -1147 
L 775 -588 
Q 1028 -725 1275 -790 
Q 1522 -856 1778 -856 
Q 2344 -856 2625 -561 
Q 2906 -266 2906 331 
L 2906 616 
Q 2728 306 2450 153 
Q 2172 0 1784 0 
Q 1141 0 747 490 
Q 353 981 353 1791 
Q 353 2603 747 3093 
Q 1141 3584 1784 3584 
Q 2172 3584 2450 3431 
Q 2728 3278 2906 2969 
L 2906 3500 
L 3481 3500 
L 3481 434 
z
" transform="scale(0.015625)"/>
      <path id="DejaVuSans-6e" d="M 3513 2113 
L 3513 0 
L 2938 0 
L 2938 2094 
Q 2938 2591 2744 2837 
Q 2550 3084 2163 3084 
Q 1697 3084 1428 2787 
Q 1159 2491 1159 1978 
L 1159 0 
L 581 0 
L 581 3500 
L 1159 3500 
L 1159 2956 
Q 1366 3272 1645 3428 
Q 1925 3584 2291 3584 
Q 2894 3584 3203 3211 
Q 3513 2838 3513 2113 
z
" transform="scale(0.015625)"/>
      <path id="DejaVuSans-28" d="M 1984 4856 
Q 1566 4138 1362 3434 
Q 1159 2731 1159 2009 
Q 1159 1288 1364 580 
Q 1569 -128 1984 -844 
L 1484 -844 
Q 1016 -109 783 600 
Q 550 1309 550 2009 
Q 550 2706 781 3412 
Q 1013 4119 1484 4856 
L 1984 4856 
z
" transform="scale(0.015625)"/>
      <path id="DejaVuSans-e9" d="M 3597 1894 
L 3597 1613 
L 953 1613 
Q 991 1019 1311 708 
Q 1631 397 2203 397 
Q 2534 397 2845 478 
Q 3156 559 3463 722 
L 3463 178 
Q 3153 47 2828 -22 
Q 2503 -91 2169 -91 
Q 1331 -91 842 396 
Q 353 884 353 1716 
Q 353 2575 817 3079 
Q 1281 3584 2069 3584 
Q 2775 3584 3186 3129 
Q 3597 2675 3597 1894 
z
M 3022 2063 
Q 3016 2534 2758 2815 
Q 2500 3097 2075 3097 
Q 1594 3097 1305 2825 
Q 1016 2553 972 2059 
L 3022 2063 
z
M 2469 5119 
L 3091 5119 
L 2072 3944 
L 1594 3944 
L 2469 5119 
z
" transform="scale(0.015625)"/>
      <path id="DejaVuSans-63" d="M 3122 3366 
L 3122 2828 
Q 2878 2963 2633 3030 
Q 2388 3097 2138 3097 
Q 1578 3097 1268 2742 
Q 959 2388 959 1747 
Q 959 1106 1268 751 
Q 1578 397 2138 397 
Q 2388 397 2633 464 
Q 2878 531 3122 666 
L 3122 134 
Q 2881 22 2623 -34 
Q 2366 -91 2075 -91 
Q 1284 -91 818 406 
Q 353 903 353 1747 
Q 353 2603 823 3093 
Q 1294 3584 2113 3584 
Q 2378 3584 2631 3529 
Q 2884 3475 3122 3366 
z
" transform="scale(0.015625)"/>
      <path id="DejaVuSans-29" d="M 513 4856 
L 1013 4856 
Q 1481 4119 1714 3412 
Q 1947 2706 1947 2009 
Q 1947 1309 1714 600 
Q 1481 -109 1013 -844 
L 513 -844 
Q 928 -128 1133 580 
Q 1338 1288 1338 2009 
Q 1338 2731 1133 3434 
Q 928 4138 513 4856 
z
" transform="scale(0.015625)"/>
     </defs>
     <use xlink:href="#DejaVuSans-45"/>
     <use xlink:href="#DejaVuSans-4d" x="63.183594"/>
     <use xlink:href="#DejaVuSans-49" x="149.462891"/>
     <use xlink:href="#DejaVuSans-20" x="178.955078"/>
     <use xlink:href="#DejaVuSans-66" x="210.742188"/>
     <use xlink:href="#DejaVuSans-69" x="245.947266"/>
     <use xlink:href="#DejaVuSans-6c" x="273.730469"/>
     <use xlink:href="#DejaVuSans-74" x="301.513672"/>
     <use xlink:href="#DejaVuSans-72" x="340.722656"/>
     <use xlink:href="#DejaVuSans-61" x="381.835938"/>
     <use xlink:href="#DejaVuSans-64" x="443.115234"/>
     <use xlink:href="#DejaVuSans-61" x="506.591797"/>
     <use xlink:href="#DejaVuSans-20" x="567.871094"/>
     <use xlink:href="#DejaVuSans-64" x="599.658203"/>
     <use xlink:href="#DejaVuSans-65" x="663.134766"/>
     <use xlink:href="#DejaVuSans-6c" x="724.658203"/>
     <use xlink:href="#DejaVuSans-20" x="752.441406"/>
     <use xlink:href="#DejaVuSans-52" x="784.228516"/>
     <use xlink:href="#DejaVuSans-65" x="849.210938"/>
     <use xlink:href="#DejaVuSans-73" x="910.734375"/>
     <use xlink:href="#DejaVuSans-69" x="962.833984"/>
     <use xlink:href="#DejaVuSans-64" x="990.617188"/>
     <use xlink:href="#DejaVuSans-75" x="1054.09375"/>
     <use xlink:href="#DejaVuSans-6f" x="1117.472656"/>
     <use xlink:href="#DejaVuSans-20" x="1178.654297"/>
     <use xlink:href="#DejaVuSans-76" x="1210.441406"/>
     <use xlink:href="#DejaVuSans-73" x="1269.621094"/>
     <use xlink:href="#DejaVuSans-20" x="1321.720703"/>
     <use xlink:href="#DejaVuSans-41" x="1353.507812"/>
     <use xlink:href="#DejaVuSans-6c" x="1421.916016"/>
     <use xlink:href="#DejaVuSans-67" x="1449.699219"/>
     <use xlink:href="#DejaVuSans-75" x="1513.175781"/>
     <use xlink:href="#DejaVuSans-6e" x="1576.554688"/>
     <use xlink:href="#DejaVuSans-61" x="1639.933594"/>
     <use xlink:href="#DejaVuSans-20" x="1701.212891"/>
     <use xlink:href="#DejaVuSans-65" x="1733"/>
     <use xlink:href="#DejaVuSans-6e" x="1794.523438"/>
     <use xlink:href="#DejaVuSans-74" x="1857.902344"/>
     <use xlink:href="#DejaVuSans-72" x="1897.111328"/>
     <use xlink:href="#DejaVuSans-61" x="1938.224609"/>
     <use xlink:href="#DejaVuSans-64" x="1999.503906"/>
     <use xlink:href="#DejaVuSans-61" x="2062.980469"/>
     <use xlink:href="#DejaVuSans-20" x="2124.259766"/>
     <use xlink:href="#DejaVuSans-28" x="2156.046875"/>
     <use xlink:href="#DejaVuSans-64" x="2195.060547"/>
     <use xlink:href="#DejaVuSans-61" x="2258.537109"/>
     <use xlink:href="#DejaVuSans-74" x="2319.816406"/>
     <use xlink:href="#DejaVuSans-6f" x="2359.025391"/>
     <use xlink:href="#DejaVuSans-73" x="2420.207031"/>
     <use xlink:href="#DejaVuSans-20" x="2472.306641"/>
     <use xlink:href="#DejaVuSans-73" x="2504.09375"/>
     <use xlink:href="#DejaVuSans-69" x="2556.193359"/>
     <use xlink:href="#DejaVuSans-6e" x="2583.976562"/>
     <use xlink:href="#DejaVuSans-74" x="2647.355469"/>
     <use xlink:href="#DejaVuSans-e9" x="2686.564453"/>
     <use xlink:href="#DejaVuSans-74" x="2748.087891"/>
     <use xlink:href="#DejaVuSans-69" x="2787.296875"/>
     <use xlink:href="#DejaVuSans-63" x="2815.080078"/>
     <use xlink:href="#DejaVuSans-6f" x="2870.060547"/>
     <use xlink:href="#DejaVuSans-73" x="2931.242188"/>
     <use xlink:href="#DejaVuSans-29" x="2983.341797"/>
    </g>
   </g>
  </g>
 </g>
 <defs>
  <clipPath id="p537a9186bf">
   <rect x="43.78125" y="22.798125" width="613.8" height="163.08"/>
  </clipPath>
 </defs>
</svg>
