<?xml version="1.0" encoding="utf-8" standalone="no"?>
<!DOCTYPE svg PUBLIC "-//W3C//DTD SVG 1.1//EN"
  "http://www.w3.org/Graphics/SVG/1.1/DTD/svg11.dtd">
<svg xmlns:xlink="http://www.w3.org/1999/xlink" width="342.709375pt" height="332.15625pt" viewBox="0 0 342.709375 332.15625" xmlns="http://www.w3.org/2000/svg" version="1.1">
 <metadata>
  <rdf:RDF xmlns:dc="http://purl.org/dc/elements/1.1/" xmlns:cc="http://creativecommons.org/ns#" xmlns:rdf="http://www.w3.org/1999/02/22-rdf-syntax-ns#">
   <cc:Work>
    <dc:type rdf:resource="http://purl.org/dc/dcmitype/StillImage"/>
    <dc:date>2022-12-15T03:49:59.721733</dc:date>
    <dc:format>image/svg+xml</dc:format>
    <dc:creator>
     <cc:Agent>
      <dc:title>Matplotlib v3.5.1, https://matplotlib.org/</dc:title>
     </cc:Agent>
    </dc:creator>
   </cc:Work>
  </rdf:RDF>
 </metadata>
 <defs>
  <style type="text/css">*{stroke-linejoin: round; stroke-linecap: butt}</style>
 </defs>
 <g id="figure_1">
  <g id="patch_1">
   <path d="M 0 332.15625 
L 342.709375 332.15625 
L 342.709375 0 
L 0 0 
L 0 332.15625 
z
" style="fill: none"/>
  </g>
  <g id="axes_1">
   <g id="patch_2">
    <path d="M 46.965625 294.6 
L 325.965625 294.6 
L 325.965625 22.8 
L 46.965625 22.8 
z
" style="fill: #ffffff"/>
   </g>
   <g id="matplotlib.axis_1">
    <g id="xtick_1">
     <g id="line2d_1">
      <path d="M 46.965625 294.6 
L 46.965625 22.8 
" clip-path="url(#p4cdf06514f)" style="fill: none; stroke: #b0b0b0; stroke-width: 0.8; stroke-linecap: square"/>
     </g>
     <g id="line2d_2">
      <defs>
       <path id="m5f2d540448" d="M 0 0 
L 0 3.5 
" style="stroke: #000000; stroke-width: 0.8"/>
      </defs>
      <g>
       <use xlink:href="#m5f2d540448" x="46.965625" y="294.6" style="stroke: #000000; stroke-width: 0.8"/>
      </g>
     </g>
     <g id="text_1">
      <!-- 0 -->
      <g transform="translate(43.784375 309.198438)scale(0.1 -0.1)">
       <defs>
        <path id="DejaVuSans-30" d="M 2034 4250 
Q 1547 4250 1301 3770 
Q 1056 3291 1056 2328 
Q 1056 1369 1301 889 
Q 1547 409 2034 409 
Q 2525 409 2770 889 
Q 3016 1369 3016 2328 
Q 3016 3291 2770 3770 
Q 2525 4250 2034 4250 
z
M 2034 4750 
Q 2819 4750 3233 4129 
Q 3647 3509 3647 2328 
Q 3647 1150 3233 529 
Q 2819 -91 2034 -91 
Q 1250 -91 836 529 
Q 422 1150 422 2328 
Q 422 3509 836 4129 
Q 1250 4750 2034 4750 
z
" transform="scale(0.015625)"/>
       </defs>
       <use xlink:href="#DejaVuSans-30"/>
      </g>
     </g>
    </g>
    <g id="xtick_2">
     <g id="line2d_3">
      <path d="M 102.765625 294.6 
L 102.765625 22.8 
" clip-path="url(#p4cdf06514f)" style="fill: none; stroke: #b0b0b0; stroke-width: 0.8; stroke-linecap: square"/>
     </g>
     <g id="line2d_4">
      <g>
       <use xlink:href="#m5f2d540448" x="102.765625" y="294.6" style="stroke: #000000; stroke-width: 0.8"/>
      </g>
     </g>
     <g id="text_2">
      <!-- 20 -->
      <g transform="translate(96.403125 309.198438)scale(0.1 -0.1)">
       <defs>
        <path id="DejaVuSans-32" d="M 1228 531 
L 3431 531 
L 3431 0 
L 469 0 
L 469 531 
Q 828 903 1448 1529 
Q 2069 2156 2228 2338 
Q 2531 2678 2651 2914 
Q 2772 3150 2772 3378 
Q 2772 3750 2511 3984 
Q 2250 4219 1831 4219 
Q 1534 4219 1204 4116 
Q 875 4013 500 3803 
L 500 4441 
Q 881 4594 1212 4672 
Q 1544 4750 1819 4750 
Q 2544 4750 2975 4387 
Q 3406 4025 3406 3419 
Q 3406 3131 3298 2873 
Q 3191 2616 2906 2266 
Q 2828 2175 2409 1742 
Q 1991 1309 1228 531 
z
" transform="scale(0.015625)"/>
       </defs>
       <use xlink:href="#DejaVuSans-32"/>
       <use xlink:href="#DejaVuSans-30" x="63.623047"/>
      </g>
     </g>
    </g>
    <g id="xtick_3">
     <g id="line2d_5">
      <path d="M 158.565625 294.6 
L 158.565625 22.8 
" clip-path="url(#p4cdf06514f)" style="fill: none; stroke: #b0b0b0; stroke-width: 0.8; stroke-linecap: square"/>
     </g>
     <g id="line2d_6">
      <g>
       <use xlink:href="#m5f2d540448" x="158.565625" y="294.6" style="stroke: #000000; stroke-width: 0.8"/>
      </g>
     </g>
     <g id="text_3">
      <!-- 40 -->
      <g transform="translate(152.203125 309.198438)scale(0.1 -0.1)">
       <defs>
        <path id="DejaVuSans-34" d="M 2419 4116 
L 825 1625 
L 2419 1625 
L 2419 4116 
z
M 2253 4666 
L 3047 4666 
L 3047 1625 
L 3713 1625 
L 3713 1100 
L 3047 1100 
L 3047 0 
L 2419 0 
L 2419 1100 
L 313 1100 
L 313 1709 
L 2253 4666 
z
" transform="scale(0.015625)"/>
       </defs>
       <use xlink:href="#DejaVuSans-34"/>
       <use xlink:href="#DejaVuSans-30" x="63.623047"/>
      </g>
     </g>
    </g>
    <g id="xtick_4">
     <g id="line2d_7">
      <path d="M 214.365625 294.6 
L 214.365625 22.8 
" clip-path="url(#p4cdf06514f)" style="fill: none; stroke: #b0b0b0; stroke-width: 0.8; stroke-linecap: square"/>
     </g>
     <g id="line2d_8">
      <g>
       <use xlink:href="#m5f2d540448" x="214.365625" y="294.6" style="stroke: #000000; stroke-width: 0.8"/>
      </g>
     </g>
     <g id="text_4">
      <!-- 60 -->
      <g transform="translate(208.003125 309.198438)scale(0.1 -0.1)">
       <defs>
        <path id="DejaVuSans-36" d="M 2113 2584 
Q 1688 2584 1439 2293 
Q 1191 2003 1191 1497 
Q 1191 994 1439 701 
Q 1688 409 2113 409 
Q 2538 409 2786 701 
Q 3034 994 3034 1497 
Q 3034 2003 2786 2293 
Q 2538 2584 2113 2584 
z
M 3366 4563 
L 3366 3988 
Q 3128 4100 2886 4159 
Q 2644 4219 2406 4219 
Q 1781 4219 1451 3797 
Q 1122 3375 1075 2522 
Q 1259 2794 1537 2939 
Q 1816 3084 2150 3084 
Q 2853 3084 3261 2657 
Q 3669 2231 3669 1497 
Q 3669 778 3244 343 
Q 2819 -91 2113 -91 
Q 1303 -91 875 529 
Q 447 1150 447 2328 
Q 447 3434 972 4092 
Q 1497 4750 2381 4750 
Q 2619 4750 2861 4703 
Q 3103 4656 3366 4563 
z
" transform="scale(0.015625)"/>
       </defs>
       <use xlink:href="#DejaVuSans-36"/>
       <use xlink:href="#DejaVuSans-30" x="63.623047"/>
      </g>
     </g>
    </g>
    <g id="xtick_5">
     <g id="line2d_9">
      <path d="M 270.165625 294.6 
L 270.165625 22.8 
" clip-path="url(#p4cdf06514f)" style="fill: none; stroke: #b0b0b0; stroke-width: 0.8; stroke-linecap: square"/>
     </g>
     <g id="line2d_10">
      <g>
       <use xlink:href="#m5f2d540448" x="270.165625" y="294.6" style="stroke: #000000; stroke-width: 0.8"/>
      </g>
     </g>
     <g id="text_5">
      <!-- 80 -->
      <g transform="translate(263.803125 309.198438)scale(0.1 -0.1)">
       <defs>
        <path id="DejaVuSans-38" d="M 2034 2216 
Q 1584 2216 1326 1975 
Q 1069 1734 1069 1313 
Q 1069 891 1326 650 
Q 1584 409 2034 409 
Q 2484 409 2743 651 
Q 3003 894 3003 1313 
Q 3003 1734 2745 1975 
Q 2488 2216 2034 2216 
z
M 1403 2484 
Q 997 2584 770 2862 
Q 544 3141 544 3541 
Q 544 4100 942 4425 
Q 1341 4750 2034 4750 
Q 2731 4750 3128 4425 
Q 3525 4100 3525 3541 
Q 3525 3141 3298 2862 
Q 3072 2584 2669 2484 
Q 3125 2378 3379 2068 
Q 3634 1759 3634 1313 
Q 3634 634 3220 271 
Q 2806 -91 2034 -91 
Q 1263 -91 848 271 
Q 434 634 434 1313 
Q 434 1759 690 2068 
Q 947 2378 1403 2484 
z
M 1172 3481 
Q 1172 3119 1398 2916 
Q 1625 2713 2034 2713 
Q 2441 2713 2670 2916 
Q 2900 3119 2900 3481 
Q 2900 3844 2670 4047 
Q 2441 4250 2034 4250 
Q 1625 4250 1398 4047 
Q 1172 3844 1172 3481 
z
" transform="scale(0.015625)"/>
       </defs>
       <use xlink:href="#DejaVuSans-38"/>
       <use xlink:href="#DejaVuSans-30" x="63.623047"/>
      </g>
     </g>
    </g>
    <g id="xtick_6">
     <g id="line2d_11">
      <path d="M 325.965625 294.6 
L 325.965625 22.8 
" clip-path="url(#p4cdf06514f)" style="fill: none; stroke: #b0b0b0; stroke-width: 0.8; stroke-linecap: square"/>
     </g>
     <g id="line2d_12">
      <g>
       <use xlink:href="#m5f2d540448" x="325.965625" y="294.6" style="stroke: #000000; stroke-width: 0.8"/>
      </g>
     </g>
     <g id="text_6">
      <!-- 100 -->
      <g transform="translate(316.421875 309.198438)scale(0.1 -0.1)">
       <defs>
        <path id="DejaVuSans-31" d="M 794 531 
L 1825 531 
L 1825 4091 
L 703 3866 
L 703 4441 
L 1819 4666 
L 2450 4666 
L 2450 531 
L 3481 531 
L 3481 0 
L 794 0 
L 794 531 
z
" transform="scale(0.015625)"/>
       </defs>
       <use xlink:href="#DejaVuSans-31"/>
       <use xlink:href="#DejaVuSans-30" x="63.623047"/>
       <use xlink:href="#DejaVuSans-30" x="127.246094"/>
      </g>
     </g>
    </g>
    <g id="text_7">
     <!-- $f$ -->
     <g transform="translate(184.665625 322.876562)scale(0.1 -0.1)">
      <defs>
       <path id="DejaVuSans-Oblique-66" d="M 3059 4863 
L 2969 4384 
L 2419 4384 
Q 2106 4384 1964 4261 
Q 1822 4138 1753 3809 
L 1691 3500 
L 2638 3500 
L 2553 3053 
L 1606 3053 
L 1013 0 
L 434 0 
L 1031 3053 
L 481 3053 
L 563 3500 
L 1113 3500 
L 1159 3744 
Q 1278 4363 1576 4613 
Q 1875 4863 2516 4863 
L 3059 4863 
z
" transform="scale(0.015625)"/>
      </defs>
      <use xlink:href="#DejaVuSans-Oblique-66" transform="translate(0 0.015625)"/>
     </g>
    </g>
   </g>
   <g id="matplotlib.axis_2">
    <g id="ytick_1">
     <g id="line2d_13">
      <path d="M 46.965625 294.6 
L 325.965625 294.6 
" clip-path="url(#p4cdf06514f)" style="fill: none; stroke: #b0b0b0; stroke-width: 0.8; stroke-linecap: square"/>
     </g>
     <g id="line2d_14">
      <defs>
       <path id="m40e916e641" d="M 0 0 
L -3.5 0 
" style="stroke: #000000; stroke-width: 0.8"/>
      </defs>
      <g>
       <use xlink:href="#m40e916e641" x="46.965625" y="294.6" style="stroke: #000000; stroke-width: 0.8"/>
      </g>
     </g>
     <g id="text_8">
      <!-- 0 -->
      <g transform="translate(33.603125 298.399219)scale(0.1 -0.1)">
       <use xlink:href="#DejaVuSans-30"/>
      </g>
     </g>
    </g>
    <g id="ytick_2">
     <g id="line2d_15">
      <path d="M 46.965625 240.24 
L 325.965625 240.24 
" clip-path="url(#p4cdf06514f)" style="fill: none; stroke: #b0b0b0; stroke-width: 0.8; stroke-linecap: square"/>
     </g>
     <g id="line2d_16">
      <g>
       <use xlink:href="#m40e916e641" x="46.965625" y="240.24" style="stroke: #000000; stroke-width: 0.8"/>
      </g>
     </g>
     <g id="text_9">
      <!-- 100 -->
      <g transform="translate(20.878125 244.039219)scale(0.1 -0.1)">
       <use xlink:href="#DejaVuSans-31"/>
       <use xlink:href="#DejaVuSans-30" x="63.623047"/>
       <use xlink:href="#DejaVuSans-30" x="127.246094"/>
      </g>
     </g>
    </g>
    <g id="ytick_3">
     <g id="line2d_17">
      <path d="M 46.965625 185.88 
L 325.965625 185.88 
" clip-path="url(#p4cdf06514f)" style="fill: none; stroke: #b0b0b0; stroke-width: 0.8; stroke-linecap: square"/>
     </g>
     <g id="line2d_18">
      <g>
       <use xlink:href="#m40e916e641" x="46.965625" y="185.88" style="stroke: #000000; stroke-width: 0.8"/>
      </g>
     </g>
     <g id="text_10">
      <!-- 200 -->
      <g transform="translate(20.878125 189.679219)scale(0.1 -0.1)">
       <use xlink:href="#DejaVuSans-32"/>
       <use xlink:href="#DejaVuSans-30" x="63.623047"/>
       <use xlink:href="#DejaVuSans-30" x="127.246094"/>
      </g>
     </g>
    </g>
    <g id="ytick_4">
     <g id="line2d_19">
      <path d="M 46.965625 131.52 
L 325.965625 131.52 
" clip-path="url(#p4cdf06514f)" style="fill: none; stroke: #b0b0b0; stroke-width: 0.8; stroke-linecap: square"/>
     </g>
     <g id="line2d_20">
      <g>
       <use xlink:href="#m40e916e641" x="46.965625" y="131.52" style="stroke: #000000; stroke-width: 0.8"/>
      </g>
     </g>
     <g id="text_11">
      <!-- 300 -->
      <g transform="translate(20.878125 135.319219)scale(0.1 -0.1)">
       <defs>
        <path id="DejaVuSans-33" d="M 2597 2516 
Q 3050 2419 3304 2112 
Q 3559 1806 3559 1356 
Q 3559 666 3084 287 
Q 2609 -91 1734 -91 
Q 1441 -91 1130 -33 
Q 819 25 488 141 
L 488 750 
Q 750 597 1062 519 
Q 1375 441 1716 441 
Q 2309 441 2620 675 
Q 2931 909 2931 1356 
Q 2931 1769 2642 2001 
Q 2353 2234 1838 2234 
L 1294 2234 
L 1294 2753 
L 1863 2753 
Q 2328 2753 2575 2939 
Q 2822 3125 2822 3475 
Q 2822 3834 2567 4026 
Q 2313 4219 1838 4219 
Q 1578 4219 1281 4162 
Q 984 4106 628 3988 
L 628 4550 
Q 988 4650 1302 4700 
Q 1616 4750 1894 4750 
Q 2613 4750 3031 4423 
Q 3450 4097 3450 3541 
Q 3450 3153 3228 2886 
Q 3006 2619 2597 2516 
z
" transform="scale(0.015625)"/>
       </defs>
       <use xlink:href="#DejaVuSans-33"/>
       <use xlink:href="#DejaVuSans-30" x="63.623047"/>
       <use xlink:href="#DejaVuSans-30" x="127.246094"/>
      </g>
     </g>
    </g>
    <g id="ytick_5">
     <g id="line2d_21">
      <path d="M 46.965625 77.16 
L 325.965625 77.16 
" clip-path="url(#p4cdf06514f)" style="fill: none; stroke: #b0b0b0; stroke-width: 0.8; stroke-linecap: square"/>
     </g>
     <g id="line2d_22">
      <g>
       <use xlink:href="#m40e916e641" x="46.965625" y="77.16" style="stroke: #000000; stroke-width: 0.8"/>
      </g>
     </g>
     <g id="text_12">
      <!-- 400 -->
      <g transform="translate(20.878125 80.959219)scale(0.1 -0.1)">
       <use xlink:href="#DejaVuSans-34"/>
       <use xlink:href="#DejaVuSans-30" x="63.623047"/>
       <use xlink:href="#DejaVuSans-30" x="127.246094"/>
      </g>
     </g>
    </g>
    <g id="ytick_6">
     <g id="line2d_23">
      <path d="M 46.965625 22.8 
L 325.965625 22.8 
" clip-path="url(#p4cdf06514f)" style="fill: none; stroke: #b0b0b0; stroke-width: 0.8; stroke-linecap: square"/>
     </g>
     <g id="line2d_24">
      <g>
       <use xlink:href="#m40e916e641" x="46.965625" y="22.8" style="stroke: #000000; stroke-width: 0.8"/>
      </g>
     </g>
     <g id="text_13">
      <!-- 500 -->
      <g transform="translate(20.878125 26.599219)scale(0.1 -0.1)">
       <defs>
        <path id="DejaVuSans-35" d="M 691 4666 
L 3169 4666 
L 3169 4134 
L 1269 4134 
L 1269 2991 
Q 1406 3038 1543 3061 
Q 1681 3084 1819 3084 
Q 2600 3084 3056 2656 
Q 3513 2228 3513 1497 
Q 3513 744 3044 326 
Q 2575 -91 1722 -91 
Q 1428 -91 1123 -41 
Q 819 9 494 109 
L 494 744 
Q 775 591 1075 516 
Q 1375 441 1709 441 
Q 2250 441 2565 725 
Q 2881 1009 2881 1497 
Q 2881 1984 2565 2268 
Q 2250 2553 1709 2553 
Q 1456 2553 1204 2497 
Q 953 2441 691 2322 
L 691 4666 
z
" transform="scale(0.015625)"/>
       </defs>
       <use xlink:href="#DejaVuSans-35"/>
       <use xlink:href="#DejaVuSans-30" x="63.623047"/>
       <use xlink:href="#DejaVuSans-30" x="127.246094"/>
      </g>
     </g>
    </g>
    <g id="text_14">
     <!-- Flujo de entrada -->
     <g transform="translate(14.798437 199.574219)rotate(-90)scale(0.1 -0.1)">
      <defs>
       <path id="DejaVuSans-46" d="M 628 4666 
L 3309 4666 
L 3309 4134 
L 1259 4134 
L 1259 2759 
L 3109 2759 
L 3109 2228 
L 1259 2228 
L 1259 0 
L 628 0 
L 628 4666 
z
" transform="scale(0.015625)"/>
       <path id="DejaVuSans-6c" d="M 603 4863 
L 1178 4863 
L 1178 0 
L 603 0 
L 603 4863 
z
" transform="scale(0.015625)"/>
       <path id="DejaVuSans-75" d="M 544 1381 
L 544 3500 
L 1119 3500 
L 1119 1403 
Q 1119 906 1312 657 
Q 1506 409 1894 409 
Q 2359 409 2629 706 
Q 2900 1003 2900 1516 
L 2900 3500 
L 3475 3500 
L 3475 0 
L 2900 0 
L 2900 538 
Q 2691 219 2414 64 
Q 2138 -91 1772 -91 
Q 1169 -91 856 284 
Q 544 659 544 1381 
z
M 1991 3584 
L 1991 3584 
z
" transform="scale(0.015625)"/>
       <path id="DejaVuSans-6a" d="M 603 3500 
L 1178 3500 
L 1178 -63 
Q 1178 -731 923 -1031 
Q 669 -1331 103 -1331 
L -116 -1331 
L -116 -844 
L 38 -844 
Q 366 -844 484 -692 
Q 603 -541 603 -63 
L 603 3500 
z
M 603 4863 
L 1178 4863 
L 1178 4134 
L 603 4134 
L 603 4863 
z
" transform="scale(0.015625)"/>
       <path id="DejaVuSans-6f" d="M 1959 3097 
Q 1497 3097 1228 2736 
Q 959 2375 959 1747 
Q 959 1119 1226 758 
Q 1494 397 1959 397 
Q 2419 397 2687 759 
Q 2956 1122 2956 1747 
Q 2956 2369 2687 2733 
Q 2419 3097 1959 3097 
z
M 1959 3584 
Q 2709 3584 3137 3096 
Q 3566 2609 3566 1747 
Q 3566 888 3137 398 
Q 2709 -91 1959 -91 
Q 1206 -91 779 398 
Q 353 888 353 1747 
Q 353 2609 779 3096 
Q 1206 3584 1959 3584 
z
" transform="scale(0.015625)"/>
       <path id="DejaVuSans-20" transform="scale(0.015625)"/>
       <path id="DejaVuSans-64" d="M 2906 2969 
L 2906 4863 
L 3481 4863 
L 3481 0 
L 2906 0 
L 2906 525 
Q 2725 213 2448 61 
Q 2172 -91 1784 -91 
Q 1150 -91 751 415 
Q 353 922 353 1747 
Q 353 2572 751 3078 
Q 1150 3584 1784 3584 
Q 2172 3584 2448 3432 
Q 2725 3281 2906 2969 
z
M 947 1747 
Q 947 1113 1208 752 
Q 1469 391 1925 391 
Q 2381 391 2643 752 
Q 2906 1113 2906 1747 
Q 2906 2381 2643 2742 
Q 2381 3103 1925 3103 
Q 1469 3103 1208 2742 
Q 947 2381 947 1747 
z
" transform="scale(0.015625)"/>
       <path id="DejaVuSans-65" d="M 3597 1894 
L 3597 1613 
L 953 1613 
Q 991 1019 1311 708 
Q 1631 397 2203 397 
Q 2534 397 2845 478 
Q 3156 559 3463 722 
L 3463 178 
Q 3153 47 2828 -22 
Q 2503 -91 2169 -91 
Q 1331 -91 842 396 
Q 353 884 353 1716 
Q 353 2575 817 3079 
Q 1281 3584 2069 3584 
Q 2775 3584 3186 3129 
Q 3597 2675 3597 1894 
z
M 3022 2063 
Q 3016 2534 2758 2815 
Q 2500 3097 2075 3097 
Q 1594 3097 1305 2825 
Q 1016 2553 972 2059 
L 3022 2063 
z
" transform="scale(0.015625)"/>
       <path id="DejaVuSans-6e" d="M 3513 2113 
L 3513 0 
L 2938 0 
L 2938 2094 
Q 2938 2591 2744 2837 
Q 2550 3084 2163 3084 
Q 1697 3084 1428 2787 
Q 1159 2491 1159 1978 
L 1159 0 
L 581 0 
L 581 3500 
L 1159 3500 
L 1159 2956 
Q 1366 3272 1645 3428 
Q 1925 3584 2291 3584 
Q 2894 3584 3203 3211 
Q 3513 2838 3513 2113 
z
" transform="scale(0.015625)"/>
       <path id="DejaVuSans-74" d="M 1172 4494 
L 1172 3500 
L 2356 3500 
L 2356 3053 
L 1172 3053 
L 1172 1153 
Q 1172 725 1289 603 
Q 1406 481 1766 481 
L 2356 481 
L 2356 0 
L 1766 0 
Q 1100 0 847 248 
Q 594 497 594 1153 
L 594 3053 
L 172 3053 
L 172 3500 
L 594 3500 
L 594 4494 
L 1172 4494 
z
" transform="scale(0.015625)"/>
       <path id="DejaVuSans-72" d="M 2631 2963 
Q 2534 3019 2420 3045 
Q 2306 3072 2169 3072 
Q 1681 3072 1420 2755 
Q 1159 2438 1159 1844 
L 1159 0 
L 581 0 
L 581 3500 
L 1159 3500 
L 1159 2956 
Q 1341 3275 1631 3429 
Q 1922 3584 2338 3584 
Q 2397 3584 2469 3576 
Q 2541 3569 2628 3553 
L 2631 2963 
z
" transform="scale(0.015625)"/>
       <path id="DejaVuSans-61" d="M 2194 1759 
Q 1497 1759 1228 1600 
Q 959 1441 959 1056 
Q 959 750 1161 570 
Q 1363 391 1709 391 
Q 2188 391 2477 730 
Q 2766 1069 2766 1631 
L 2766 1759 
L 2194 1759 
z
M 3341 1997 
L 3341 0 
L 2766 0 
L 2766 531 
Q 2569 213 2275 61 
Q 1981 -91 1556 -91 
Q 1019 -91 701 211 
Q 384 513 384 1019 
Q 384 1609 779 1909 
Q 1175 2209 1959 2209 
L 2766 2209 
L 2766 2266 
Q 2766 2663 2505 2880 
Q 2244 3097 1772 3097 
Q 1472 3097 1187 3025 
Q 903 2953 641 2809 
L 641 3341 
Q 956 3463 1253 3523 
Q 1550 3584 1831 3584 
Q 2591 3584 2966 3190 
Q 3341 2797 3341 1997 
z
" transform="scale(0.015625)"/>
      </defs>
      <use xlink:href="#DejaVuSans-46"/>
      <use xlink:href="#DejaVuSans-6c" x="57.519531"/>
      <use xlink:href="#DejaVuSans-75" x="85.302734"/>
      <use xlink:href="#DejaVuSans-6a" x="148.681641"/>
      <use xlink:href="#DejaVuSans-6f" x="176.464844"/>
      <use xlink:href="#DejaVuSans-20" x="237.646484"/>
      <use xlink:href="#DejaVuSans-64" x="269.433594"/>
      <use xlink:href="#DejaVuSans-65" x="332.910156"/>
      <use xlink:href="#DejaVuSans-20" x="394.433594"/>
      <use xlink:href="#DejaVuSans-65" x="426.220703"/>
      <use xlink:href="#DejaVuSans-6e" x="487.744141"/>
      <use xlink:href="#DejaVuSans-74" x="551.123047"/>
      <use xlink:href="#DejaVuSans-72" x="590.332031"/>
      <use xlink:href="#DejaVuSans-61" x="631.445312"/>
      <use xlink:href="#DejaVuSans-64" x="692.724609"/>
      <use xlink:href="#DejaVuSans-61" x="756.201172"/>
     </g>
    </g>
   </g>
   <g id="line2d_25">
    <path d="M 50.717681 333.15625 
L 52.545625 331.222332 
L 55.335625 328.270584 
L 58.125625 325.318836 
L 60.915625 322.367088 
L 63.705625 319.41534 
L 66.495625 316.463592 
L 69.285625 313.511844 
L 72.075625 310.560096 
L 74.865625 307.608348 
L 77.655625 304.6566 
L 80.445625 301.704852 
L 83.235625 298.753104 
L 86.025625 295.801356 
L 88.815625 292.849608 
L 91.605625 289.89786 
L 94.395625 286.946112 
L 97.185625 283.994364 
L 99.975625 281.042616 
L 102.765625 278.090868 
L 105.555625 275.13912 
L 108.345625 272.187372 
L 111.135625 269.235624 
L 113.925625 266.283876 
L 116.715625 263.332128 
L 119.505625 260.38038 
L 122.295625 257.428632 
L 125.085625 254.476884 
L 127.875625 251.525136 
L 130.665625 248.573388 
L 133.455625 245.62164 
L 136.245625 242.669892 
L 139.035625 239.718144 
L 141.825625 236.766396 
L 144.615625 233.814648 
L 147.405625 230.8629 
L 150.195625 227.911152 
L 152.985625 224.959404 
L 155.775625 222.007656 
L 158.565625 219.055908 
L 161.355625 216.10416 
L 164.145625 213.152412 
L 166.935625 210.200664 
L 169.725625 207.248916 
L 172.515625 204.297168 
L 175.305625 201.34542 
L 178.095625 198.393672 
L 180.885625 195.441924 
L 183.675625 192.490176 
L 186.465625 189.538428 
L 189.255625 186.58668 
L 192.045625 183.634932 
L 194.835625 180.683184 
L 197.625625 177.731436 
L 200.415625 174.779688 
L 203.205625 171.82794 
L 205.995625 168.876192 
L 208.785625 165.924444 
L 211.575625 162.972696 
L 214.365625 160.020948 
L 217.155625 157.0692 
L 219.945625 154.117452 
L 222.735625 151.165704 
L 225.525625 148.213956 
L 228.315625 145.262208 
L 231.105625 142.31046 
L 233.895625 139.358712 
L 236.685625 136.406964 
L 239.475625 133.455216 
L 242.265625 130.503468 
L 245.055625 127.55172 
L 247.845625 124.599972 
L 250.635625 121.648224 
L 253.425625 118.696476 
L 256.215625 115.744728 
L 259.005625 112.79298 
L 261.795625 109.841232 
L 264.585625 106.889484 
L 267.375625 103.937736 
L 270.165625 100.985988 
L 272.955625 98.03424 
L 275.745625 95.082492 
L 278.535625 92.130744 
L 281.325625 89.178996 
L 284.115625 86.227248 
L 286.905625 83.2755 
L 289.695625 80.323752 
L 292.485625 77.372004 
L 295.275625 74.420256 
L 298.065625 71.468508 
L 300.855625 68.51676 
L 303.645625 65.565012 
L 306.435625 62.613264 
L 309.225625 59.661516 
L 312.015625 56.709768 
L 314.805625 53.75802 
L 317.595625 50.806272 
L 320.385625 47.854524 
L 323.175625 44.902776 
" clip-path="url(#p4cdf06514f)" style="fill: none; stroke: #1f77b4; stroke-linecap: square"/>
   </g>
   <g id="line2d_26">
    <path d="M 50.134157 333.15625 
L 52.545625 330.135132 
L 55.335625 326.639784 
L 58.125625 323.144436 
L 60.915625 319.649088 
L 63.705625 316.15374 
L 66.495625 312.658392 
L 69.285625 309.163044 
L 72.075625 305.667696 
L 74.865625 302.172348 
L 77.655625 298.677 
L 80.445625 295.181652 
L 83.235625 291.686304 
L 86.025625 288.190956 
L 88.815625 284.695608 
L 91.605625 281.20026 
L 94.395625 277.704912 
L 97.185625 274.209564 
L 99.975625 270.714216 
L 102.765625 267.218868 
L 105.555625 263.72352 
L 108.345625 260.228172 
L 111.135625 256.732824 
L 113.925625 253.237476 
L 116.715625 249.742128 
L 119.505625 246.24678 
L 122.295625 242.751432 
L 125.085625 239.256084 
L 127.875625 235.760736 
L 130.665625 232.265388 
L 133.455625 228.77004 
L 136.245625 225.274692 
L 139.035625 221.779344 
L 141.825625 218.283996 
L 144.615625 214.788648 
L 147.405625 211.2933 
L 150.195625 207.797952 
L 152.985625 204.302604 
L 155.775625 200.807256 
L 158.565625 197.311908 
L 161.355625 193.81656 
L 164.145625 190.321212 
L 166.935625 186.825864 
L 169.725625 183.330516 
L 172.515625 179.835168 
L 175.305625 176.33982 
L 178.095625 172.844472 
L 180.885625 169.349124 
L 183.675625 165.853776 
L 186.465625 162.358428 
L 189.255625 158.86308 
L 192.045625 155.367732 
L 194.835625 151.872384 
L 197.625625 148.377036 
L 200.415625 144.881688 
L 203.205625 141.38634 
L 205.995625 137.890992 
L 208.785625 134.395644 
L 211.575625 130.900296 
L 214.365625 127.404948 
L 217.155625 123.9096 
L 219.945625 120.414252 
L 222.735625 116.918904 
L 225.525625 113.423556 
L 228.315625 109.928208 
L 231.105625 106.43286 
L 233.895625 102.937512 
L 236.685625 99.442164 
L 239.475625 95.946816 
L 242.265625 92.451468 
L 245.055625 88.95612 
L 247.845625 85.460772 
L 250.635625 81.965424 
L 253.425625 78.470076 
L 256.215625 74.974728 
L 259.005625 71.47938 
L 261.795625 67.984032 
L 264.585625 64.488684 
L 267.375625 60.993336 
L 270.165625 57.497988 
L 272.955625 54.00264 
L 275.745625 50.507292 
L 278.535625 47.011944 
L 281.325625 43.516596 
L 284.115625 40.021248 
L 286.905625 36.5259 
L 289.695625 33.030552 
L 292.485625 29.535204 
L 295.275625 26.039856 
L 298.065625 22.544508 
L 300.855625 19.04916 
L 303.645625 15.553812 
L 306.435625 12.058464 
L 309.225625 8.563116 
L 312.015625 5.067768 
L 314.805625 1.57242 
L 316.85894 -1 
" clip-path="url(#p4cdf06514f)" style="fill: none; stroke: #ff7f0e; stroke-linecap: square"/>
   </g>
   <g id="patch_3">
    <path d="M 46.965625 294.6 
L 46.965625 22.8 
" style="fill: none; stroke: #000000; stroke-width: 0.8; stroke-linejoin: miter; stroke-linecap: square"/>
   </g>
   <g id="patch_4">
    <path d="M 325.965625 294.6 
L 325.965625 22.8 
" style="fill: none; stroke: #000000; stroke-width: 0.8; stroke-linejoin: miter; stroke-linecap: square"/>
   </g>
   <g id="patch_5">
    <path d="M 46.965625 294.6 
L 325.965625 294.6 
" style="fill: none; stroke: #000000; stroke-width: 0.8; stroke-linejoin: miter; stroke-linecap: square"/>
   </g>
   <g id="patch_6">
    <path d="M 46.965625 22.8 
L 325.965625 22.8 
" style="fill: none; stroke: #000000; stroke-width: 0.8; stroke-linejoin: miter; stroke-linecap: square"/>
   </g>
   <g id="text_15">
    <!-- Variación del flujo de entrada respecto a $f$ -->
    <g transform="translate(60.105625 16.8)scale(0.12 -0.12)">
     <defs>
      <path id="DejaVuSans-56" d="M 1831 0 
L 50 4666 
L 709 4666 
L 2188 738 
L 3669 4666 
L 4325 4666 
L 2547 0 
L 1831 0 
z
" transform="scale(0.015625)"/>
      <path id="DejaVuSans-69" d="M 603 3500 
L 1178 3500 
L 1178 0 
L 603 0 
L 603 3500 
z
M 603 4863 
L 1178 4863 
L 1178 4134 
L 603 4134 
L 603 4863 
z
" transform="scale(0.015625)"/>
      <path id="DejaVuSans-63" d="M 3122 3366 
L 3122 2828 
Q 2878 2963 2633 3030 
Q 2388 3097 2138 3097 
Q 1578 3097 1268 2742 
Q 959 2388 959 1747 
Q 959 1106 1268 751 
Q 1578 397 2138 397 
Q 2388 397 2633 464 
Q 2878 531 3122 666 
L 3122 134 
Q 2881 22 2623 -34 
Q 2366 -91 2075 -91 
Q 1284 -91 818 406 
Q 353 903 353 1747 
Q 353 2603 823 3093 
Q 1294 3584 2113 3584 
Q 2378 3584 2631 3529 
Q 2884 3475 3122 3366 
z
" transform="scale(0.015625)"/>
      <path id="DejaVuSans-f3" d="M 1959 3097 
Q 1497 3097 1228 2736 
Q 959 2375 959 1747 
Q 959 1119 1226 758 
Q 1494 397 1959 397 
Q 2419 397 2687 759 
Q 2956 1122 2956 1747 
Q 2956 2369 2687 2733 
Q 2419 3097 1959 3097 
z
M 1959 3584 
Q 2709 3584 3137 3096 
Q 3566 2609 3566 1747 
Q 3566 888 3137 398 
Q 2709 -91 1959 -91 
Q 1206 -91 779 398 
Q 353 888 353 1747 
Q 353 2609 779 3096 
Q 1206 3584 1959 3584 
z
M 2394 5119 
L 3016 5119 
L 1997 3944 
L 1519 3944 
L 2394 5119 
z
" transform="scale(0.015625)"/>
      <path id="DejaVuSans-66" d="M 2375 4863 
L 2375 4384 
L 1825 4384 
Q 1516 4384 1395 4259 
Q 1275 4134 1275 3809 
L 1275 3500 
L 2222 3500 
L 2222 3053 
L 1275 3053 
L 1275 0 
L 697 0 
L 697 3053 
L 147 3053 
L 147 3500 
L 697 3500 
L 697 3744 
Q 697 4328 969 4595 
Q 1241 4863 1831 4863 
L 2375 4863 
z
" transform="scale(0.015625)"/>
      <path id="DejaVuSans-73" d="M 2834 3397 
L 2834 2853 
Q 2591 2978 2328 3040 
Q 2066 3103 1784 3103 
Q 1356 3103 1142 2972 
Q 928 2841 928 2578 
Q 928 2378 1081 2264 
Q 1234 2150 1697 2047 
L 1894 2003 
Q 2506 1872 2764 1633 
Q 3022 1394 3022 966 
Q 3022 478 2636 193 
Q 2250 -91 1575 -91 
Q 1294 -91 989 -36 
Q 684 19 347 128 
L 347 722 
Q 666 556 975 473 
Q 1284 391 1588 391 
Q 1994 391 2212 530 
Q 2431 669 2431 922 
Q 2431 1156 2273 1281 
Q 2116 1406 1581 1522 
L 1381 1569 
Q 847 1681 609 1914 
Q 372 2147 372 2553 
Q 372 3047 722 3315 
Q 1072 3584 1716 3584 
Q 2034 3584 2315 3537 
Q 2597 3491 2834 3397 
z
" transform="scale(0.015625)"/>
      <path id="DejaVuSans-70" d="M 1159 525 
L 1159 -1331 
L 581 -1331 
L 581 3500 
L 1159 3500 
L 1159 2969 
Q 1341 3281 1617 3432 
Q 1894 3584 2278 3584 
Q 2916 3584 3314 3078 
Q 3713 2572 3713 1747 
Q 3713 922 3314 415 
Q 2916 -91 2278 -91 
Q 1894 -91 1617 61 
Q 1341 213 1159 525 
z
M 3116 1747 
Q 3116 2381 2855 2742 
Q 2594 3103 2138 3103 
Q 1681 3103 1420 2742 
Q 1159 2381 1159 1747 
Q 1159 1113 1420 752 
Q 1681 391 2138 391 
Q 2594 391 2855 752 
Q 3116 1113 3116 1747 
z
" transform="scale(0.015625)"/>
     </defs>
     <use xlink:href="#DejaVuSans-56" transform="translate(0 0.015625)"/>
     <use xlink:href="#DejaVuSans-61" transform="translate(68.408203 0.015625)"/>
     <use xlink:href="#DejaVuSans-72" transform="translate(129.6875 0.015625)"/>
     <use xlink:href="#DejaVuSans-69" transform="translate(170.800781 0.015625)"/>
     <use xlink:href="#DejaVuSans-61" transform="translate(198.583984 0.015625)"/>
     <use xlink:href="#DejaVuSans-63" transform="translate(259.863281 0.015625)"/>
     <use xlink:href="#DejaVuSans-69" transform="translate(314.84375 0.015625)"/>
     <use xlink:href="#DejaVuSans-f3" transform="translate(342.626953 0.015625)"/>
     <use xlink:href="#DejaVuSans-6e" transform="translate(403.808594 0.015625)"/>
     <use xlink:href="#DejaVuSans-20" transform="translate(467.1875 0.015625)"/>
     <use xlink:href="#DejaVuSans-64" transform="translate(498.974609 0.015625)"/>
     <use xlink:href="#DejaVuSans-65" transform="translate(562.451172 0.015625)"/>
     <use xlink:href="#DejaVuSans-6c" transform="translate(623.974609 0.015625)"/>
     <use xlink:href="#DejaVuSans-20" transform="translate(651.757812 0.015625)"/>
     <use xlink:href="#DejaVuSans-66" transform="translate(683.544922 0.015625)"/>
     <use xlink:href="#DejaVuSans-6c" transform="translate(718.75 0.015625)"/>
     <use xlink:href="#DejaVuSans-75" transform="translate(746.533203 0.015625)"/>
     <use xlink:href="#DejaVuSans-6a" transform="translate(809.912109 0.015625)"/>
     <use xlink:href="#DejaVuSans-6f" transform="translate(837.695312 0.015625)"/>
     <use xlink:href="#DejaVuSans-20" transform="translate(898.876953 0.015625)"/>
     <use xlink:href="#DejaVuSans-64" transform="translate(930.664062 0.015625)"/>
     <use xlink:href="#DejaVuSans-65" transform="translate(994.140625 0.015625)"/>
     <use xlink:href="#DejaVuSans-20" transform="translate(1055.664062 0.015625)"/>
     <use xlink:href="#DejaVuSans-65" transform="translate(1087.451172 0.015625)"/>
     <use xlink:href="#DejaVuSans-6e" transform="translate(1148.974609 0.015625)"/>
     <use xlink:href="#DejaVuSans-74" transform="translate(1212.353516 0.015625)"/>
     <use xlink:href="#DejaVuSans-72" transform="translate(1251.5625 0.015625)"/>
     <use xlink:href="#DejaVuSans-61" transform="translate(1292.675781 0.015625)"/>
     <use xlink:href="#DejaVuSans-64" transform="translate(1353.955078 0.015625)"/>
     <use xlink:href="#DejaVuSans-61" transform="translate(1417.431641 0.015625)"/>
     <use xlink:href="#DejaVuSans-20" transform="translate(1478.710938 0.015625)"/>
     <use xlink:href="#DejaVuSans-72" transform="translate(1510.498047 0.015625)"/>
     <use xlink:href="#DejaVuSans-65" transform="translate(1551.611328 0.015625)"/>
     <use xlink:href="#DejaVuSans-73" transform="translate(1613.134766 0.015625)"/>
     <use xlink:href="#DejaVuSans-70" transform="translate(1665.234375 0.015625)"/>
     <use xlink:href="#DejaVuSans-65" transform="translate(1728.710938 0.015625)"/>
     <use xlink:href="#DejaVuSans-63" transform="translate(1790.234375 0.015625)"/>
     <use xlink:href="#DejaVuSans-74" transform="translate(1845.214844 0.015625)"/>
     <use xlink:href="#DejaVuSans-6f" transform="translate(1884.423828 0.015625)"/>
     <use xlink:href="#DejaVuSans-20" transform="translate(1945.605469 0.015625)"/>
     <use xlink:href="#DejaVuSans-61" transform="translate(1977.392578 0.015625)"/>
     <use xlink:href="#DejaVuSans-20" transform="translate(2038.671875 0.015625)"/>
     <use xlink:href="#DejaVuSans-Oblique-66" transform="translate(2070.458984 0.015625)"/>
    </g>
   </g>
   <g id="legend_1">
    <g id="patch_7">
     <path d="M 53.965625 60.15625 
L 115.465625 60.15625 
Q 117.465625 60.15625 117.465625 58.15625 
L 117.465625 29.8 
Q 117.465625 27.8 115.465625 27.8 
L 53.965625 27.8 
Q 51.965625 27.8 51.965625 29.8 
L 51.965625 58.15625 
Q 51.965625 60.15625 53.965625 60.15625 
z
" style="fill: #ffffff; opacity: 0.8; stroke: #cccccc; stroke-linejoin: miter"/>
    </g>
    <g id="line2d_27">
     <path d="M 55.965625 35.898438 
L 65.965625 35.898438 
L 75.965625 35.898438 
" style="fill: none; stroke: #1f77b4; stroke-linecap: square"/>
    </g>
    <g id="text_16">
     <!-- $\delta_1 = 0$ -->
     <g transform="translate(83.965625 39.398438)scale(0.1 -0.1)">
      <defs>
       <path id="DejaVuSans-Oblique-3b4" d="M 3472 4053 
Q 3197 4272 2450 4272 
Q 1659 4272 1588 3906 
Q 1531 3619 2328 3469 
Q 2953 3353 3253 3003 
Q 3616 2581 3447 1716 
Q 3284 888 2763 400 
Q 2238 -91 1488 -91 
Q 741 -91 406 400 
Q 72 888 241 1747 
Q 363 2384 891 2900 
Q 1097 3100 1353 3213 
Q 913 3459 1000 3900 
Q 1166 4750 2544 4750 
Q 3234 4750 3566 4531 
L 3472 4053 
z
M 1753 3056 
Q 1525 2966 1306 2738 
Q 969 2384 847 1747 
Q 722 1113 919 756 
Q 1119 397 1584 397 
Q 2044 397 2381 759 
Q 2722 1122 2838 1716 
Q 2956 2338 2731 2638 
Q 2491 2959 2103 2994 
Q 1906 3013 1753 3056 
z
" transform="scale(0.015625)"/>
       <path id="DejaVuSans-3d" d="M 678 2906 
L 4684 2906 
L 4684 2381 
L 678 2381 
L 678 2906 
z
M 678 1631 
L 4684 1631 
L 4684 1100 
L 678 1100 
L 678 1631 
z
" transform="scale(0.015625)"/>
      </defs>
      <use xlink:href="#DejaVuSans-Oblique-3b4" transform="translate(0 0.78125)"/>
      <use xlink:href="#DejaVuSans-31" transform="translate(61.181641 -15.625)scale(0.7)"/>
      <use xlink:href="#DejaVuSans-3d" transform="translate(127.93457 0.78125)"/>
      <use xlink:href="#DejaVuSans-30" transform="translate(231.206055 0.78125)"/>
     </g>
    </g>
    <g id="line2d_28">
     <path d="M 55.965625 50.576563 
L 65.965625 50.576563 
L 75.965625 50.576563 
" style="fill: none; stroke: #ff7f0e; stroke-linecap: square"/>
    </g>
    <g id="text_17">
     <!-- $\delta_1 = 1$ -->
     <g transform="translate(83.965625 54.076563)scale(0.1 -0.1)">
      <use xlink:href="#DejaVuSans-Oblique-3b4" transform="translate(0 0.78125)"/>
      <use xlink:href="#DejaVuSans-31" transform="translate(61.181641 -15.625)scale(0.7)"/>
      <use xlink:href="#DejaVuSans-3d" transform="translate(127.93457 0.78125)"/>
      <use xlink:href="#DejaVuSans-31" transform="translate(231.206055 0.78125)"/>
     </g>
    </g>
   </g>
  </g>
 </g>
 <defs>
  <clipPath id="p4cdf06514f">
   <rect x="46.965625" y="22.8" width="279" height="271.8"/>
  </clipPath>
 </defs>
</svg>
