<?xml version="1.0" encoding="utf-8" standalone="no"?>
<!DOCTYPE svg PUBLIC "-//W3C//DTD SVG 1.1//EN"
  "http://www.w3.org/Graphics/SVG/1.1/DTD/svg11.dtd">
<svg xmlns:xlink="http://www.w3.org/1999/xlink" width="792pt" height="216pt" viewBox="0 0 792 216" xmlns="http://www.w3.org/2000/svg" version="1.1">
 <metadata>
  <rdf:RDF xmlns:dc="http://purl.org/dc/elements/1.1/" xmlns:cc="http://creativecommons.org/ns#" xmlns:rdf="http://www.w3.org/1999/02/22-rdf-syntax-ns#">
   <cc:Work>
    <dc:type rdf:resource="http://purl.org/dc/dcmitype/StillImage"/>
    <dc:date>2022-12-03T00:17:29.579798</dc:date>
    <dc:format>image/svg+xml</dc:format>
    <dc:creator>
     <cc:Agent>
      <dc:title>Matplotlib v3.5.1, https://matplotlib.org/</dc:title>
     </cc:Agent>
    </dc:creator>
   </cc:Work>
  </rdf:RDF>
 </metadata>
 <defs>
  <style type="text/css">*{stroke-linejoin: round; stroke-linecap: butt}</style>
 </defs>
 <g id="figure_1">
  <g id="patch_1">
   <path d="M 0 216 
L 792 216 
L 792 0 
L 0 0 
L 0 216 
z
" style="fill: none"/>
  </g>
  <g id="axes_1">
   <g id="patch_2">
    <path d="M 99 189 
L 712.8 189 
L 712.8 25.92 
L 99 25.92 
z
" style="fill: #ffffff"/>
   </g>
   <g id="matplotlib.axis_1">
    <g id="xtick_1">
     <g id="line2d_1">
      <defs>
       <path id="m119706cf5e" d="M 0 0 
L 0 3.5 
" style="stroke: #000000; stroke-width: 0.8"/>
      </defs>
      <g>
       <use xlink:href="#m119706cf5e" x="126.9" y="189" style="stroke: #000000; stroke-width: 0.8"/>
      </g>
     </g>
     <g id="text_1">
      <!-- 0 -->
      <g transform="translate(123.71875 203.598437)scale(0.1 -0.1)">
       <defs>
        <path id="DejaVuSans-30" d="M 2034 4250 
Q 1547 4250 1301 3770 
Q 1056 3291 1056 2328 
Q 1056 1369 1301 889 
Q 1547 409 2034 409 
Q 2525 409 2770 889 
Q 3016 1369 3016 2328 
Q 3016 3291 2770 3770 
Q 2525 4250 2034 4250 
z
M 2034 4750 
Q 2819 4750 3233 4129 
Q 3647 3509 3647 2328 
Q 3647 1150 3233 529 
Q 2819 -91 2034 -91 
Q 1250 -91 836 529 
Q 422 1150 422 2328 
Q 422 3509 836 4129 
Q 1250 4750 2034 4750 
z
" transform="scale(0.015625)"/>
       </defs>
       <use xlink:href="#DejaVuSans-30"/>
      </g>
     </g>
    </g>
    <g id="xtick_2">
     <g id="line2d_2">
      <g>
       <use xlink:href="#m119706cf5e" x="238.611712" y="189" style="stroke: #000000; stroke-width: 0.8"/>
      </g>
     </g>
     <g id="text_2">
      <!-- 200 -->
      <g transform="translate(229.067962 203.598437)scale(0.1 -0.1)">
       <defs>
        <path id="DejaVuSans-32" d="M 1228 531 
L 3431 531 
L 3431 0 
L 469 0 
L 469 531 
Q 828 903 1448 1529 
Q 2069 2156 2228 2338 
Q 2531 2678 2651 2914 
Q 2772 3150 2772 3378 
Q 2772 3750 2511 3984 
Q 2250 4219 1831 4219 
Q 1534 4219 1204 4116 
Q 875 4013 500 3803 
L 500 4441 
Q 881 4594 1212 4672 
Q 1544 4750 1819 4750 
Q 2544 4750 2975 4387 
Q 3406 4025 3406 3419 
Q 3406 3131 3298 2873 
Q 3191 2616 2906 2266 
Q 2828 2175 2409 1742 
Q 1991 1309 1228 531 
z
" transform="scale(0.015625)"/>
       </defs>
       <use xlink:href="#DejaVuSans-32"/>
       <use xlink:href="#DejaVuSans-30" x="63.623047"/>
       <use xlink:href="#DejaVuSans-30" x="127.246094"/>
      </g>
     </g>
    </g>
    <g id="xtick_3">
     <g id="line2d_3">
      <g>
       <use xlink:href="#m119706cf5e" x="350.323423" y="189" style="stroke: #000000; stroke-width: 0.8"/>
      </g>
     </g>
     <g id="text_3">
      <!-- 400 -->
      <g transform="translate(340.779673 203.598437)scale(0.1 -0.1)">
       <defs>
        <path id="DejaVuSans-34" d="M 2419 4116 
L 825 1625 
L 2419 1625 
L 2419 4116 
z
M 2253 4666 
L 3047 4666 
L 3047 1625 
L 3713 1625 
L 3713 1100 
L 3047 1100 
L 3047 0 
L 2419 0 
L 2419 1100 
L 313 1100 
L 313 1709 
L 2253 4666 
z
" transform="scale(0.015625)"/>
       </defs>
       <use xlink:href="#DejaVuSans-34"/>
       <use xlink:href="#DejaVuSans-30" x="63.623047"/>
       <use xlink:href="#DejaVuSans-30" x="127.246094"/>
      </g>
     </g>
    </g>
    <g id="xtick_4">
     <g id="line2d_4">
      <g>
       <use xlink:href="#m119706cf5e" x="462.035135" y="189" style="stroke: #000000; stroke-width: 0.8"/>
      </g>
     </g>
     <g id="text_4">
      <!-- 600 -->
      <g transform="translate(452.491385 203.598437)scale(0.1 -0.1)">
       <defs>
        <path id="DejaVuSans-36" d="M 2113 2584 
Q 1688 2584 1439 2293 
Q 1191 2003 1191 1497 
Q 1191 994 1439 701 
Q 1688 409 2113 409 
Q 2538 409 2786 701 
Q 3034 994 3034 1497 
Q 3034 2003 2786 2293 
Q 2538 2584 2113 2584 
z
M 3366 4563 
L 3366 3988 
Q 3128 4100 2886 4159 
Q 2644 4219 2406 4219 
Q 1781 4219 1451 3797 
Q 1122 3375 1075 2522 
Q 1259 2794 1537 2939 
Q 1816 3084 2150 3084 
Q 2853 3084 3261 2657 
Q 3669 2231 3669 1497 
Q 3669 778 3244 343 
Q 2819 -91 2113 -91 
Q 1303 -91 875 529 
Q 447 1150 447 2328 
Q 447 3434 972 4092 
Q 1497 4750 2381 4750 
Q 2619 4750 2861 4703 
Q 3103 4656 3366 4563 
z
" transform="scale(0.015625)"/>
       </defs>
       <use xlink:href="#DejaVuSans-36"/>
       <use xlink:href="#DejaVuSans-30" x="63.623047"/>
       <use xlink:href="#DejaVuSans-30" x="127.246094"/>
      </g>
     </g>
    </g>
    <g id="xtick_5">
     <g id="line2d_5">
      <g>
       <use xlink:href="#m119706cf5e" x="573.746847" y="189" style="stroke: #000000; stroke-width: 0.8"/>
      </g>
     </g>
     <g id="text_5">
      <!-- 800 -->
      <g transform="translate(564.203097 203.598437)scale(0.1 -0.1)">
       <defs>
        <path id="DejaVuSans-38" d="M 2034 2216 
Q 1584 2216 1326 1975 
Q 1069 1734 1069 1313 
Q 1069 891 1326 650 
Q 1584 409 2034 409 
Q 2484 409 2743 651 
Q 3003 894 3003 1313 
Q 3003 1734 2745 1975 
Q 2488 2216 2034 2216 
z
M 1403 2484 
Q 997 2584 770 2862 
Q 544 3141 544 3541 
Q 544 4100 942 4425 
Q 1341 4750 2034 4750 
Q 2731 4750 3128 4425 
Q 3525 4100 3525 3541 
Q 3525 3141 3298 2862 
Q 3072 2584 2669 2484 
Q 3125 2378 3379 2068 
Q 3634 1759 3634 1313 
Q 3634 634 3220 271 
Q 2806 -91 2034 -91 
Q 1263 -91 848 271 
Q 434 634 434 1313 
Q 434 1759 690 2068 
Q 947 2378 1403 2484 
z
M 1172 3481 
Q 1172 3119 1398 2916 
Q 1625 2713 2034 2713 
Q 2441 2713 2670 2916 
Q 2900 3119 2900 3481 
Q 2900 3844 2670 4047 
Q 2441 4250 2034 4250 
Q 1625 4250 1398 4047 
Q 1172 3844 1172 3481 
z
" transform="scale(0.015625)"/>
       </defs>
       <use xlink:href="#DejaVuSans-38"/>
       <use xlink:href="#DejaVuSans-30" x="63.623047"/>
       <use xlink:href="#DejaVuSans-30" x="127.246094"/>
      </g>
     </g>
    </g>
    <g id="xtick_6">
     <g id="line2d_6">
      <g>
       <use xlink:href="#m119706cf5e" x="685.458559" y="189" style="stroke: #000000; stroke-width: 0.8"/>
      </g>
     </g>
     <g id="text_6">
      <!-- 1000 -->
      <g transform="translate(672.733559 203.598437)scale(0.1 -0.1)">
       <defs>
        <path id="DejaVuSans-31" d="M 794 531 
L 1825 531 
L 1825 4091 
L 703 3866 
L 703 4441 
L 1819 4666 
L 2450 4666 
L 2450 531 
L 3481 531 
L 3481 0 
L 794 0 
L 794 531 
z
" transform="scale(0.015625)"/>
       </defs>
       <use xlink:href="#DejaVuSans-31"/>
       <use xlink:href="#DejaVuSans-30" x="63.623047"/>
       <use xlink:href="#DejaVuSans-30" x="127.246094"/>
       <use xlink:href="#DejaVuSans-30" x="190.869141"/>
      </g>
     </g>
    </g>
    <g id="text_7">
     <!-- Time -->
     <g transform="translate(393.666406 217.276563)scale(0.1 -0.1)">
      <defs>
       <path id="DejaVuSans-54" d="M -19 4666 
L 3928 4666 
L 3928 4134 
L 2272 4134 
L 2272 0 
L 1638 0 
L 1638 4134 
L -19 4134 
L -19 4666 
z
" transform="scale(0.015625)"/>
       <path id="DejaVuSans-69" d="M 603 3500 
L 1178 3500 
L 1178 0 
L 603 0 
L 603 3500 
z
M 603 4863 
L 1178 4863 
L 1178 4134 
L 603 4134 
L 603 4863 
z
" transform="scale(0.015625)"/>
       <path id="DejaVuSans-6d" d="M 3328 2828 
Q 3544 3216 3844 3400 
Q 4144 3584 4550 3584 
Q 5097 3584 5394 3201 
Q 5691 2819 5691 2113 
L 5691 0 
L 5113 0 
L 5113 2094 
Q 5113 2597 4934 2840 
Q 4756 3084 4391 3084 
Q 3944 3084 3684 2787 
Q 3425 2491 3425 1978 
L 3425 0 
L 2847 0 
L 2847 2094 
Q 2847 2600 2669 2842 
Q 2491 3084 2119 3084 
Q 1678 3084 1418 2786 
Q 1159 2488 1159 1978 
L 1159 0 
L 581 0 
L 581 3500 
L 1159 3500 
L 1159 2956 
Q 1356 3278 1631 3431 
Q 1906 3584 2284 3584 
Q 2666 3584 2933 3390 
Q 3200 3197 3328 2828 
z
" transform="scale(0.015625)"/>
       <path id="DejaVuSans-65" d="M 3597 1894 
L 3597 1613 
L 953 1613 
Q 991 1019 1311 708 
Q 1631 397 2203 397 
Q 2534 397 2845 478 
Q 3156 559 3463 722 
L 3463 178 
Q 3153 47 2828 -22 
Q 2503 -91 2169 -91 
Q 1331 -91 842 396 
Q 353 884 353 1716 
Q 353 2575 817 3079 
Q 1281 3584 2069 3584 
Q 2775 3584 3186 3129 
Q 3597 2675 3597 1894 
z
M 3022 2063 
Q 3016 2534 2758 2815 
Q 2500 3097 2075 3097 
Q 1594 3097 1305 2825 
Q 1016 2553 972 2059 
L 3022 2063 
z
" transform="scale(0.015625)"/>
      </defs>
      <use xlink:href="#DejaVuSans-54"/>
      <use xlink:href="#DejaVuSans-69" x="57.958984"/>
      <use xlink:href="#DejaVuSans-6d" x="85.742188"/>
      <use xlink:href="#DejaVuSans-65" x="183.154297"/>
     </g>
    </g>
   </g>
   <g id="matplotlib.axis_2">
    <g id="ytick_1">
     <g id="line2d_7">
      <defs>
       <path id="m7773347d77" d="M 0 0 
L -3.5 0 
" style="stroke: #000000; stroke-width: 0.8"/>
      </defs>
      <g>
       <use xlink:href="#m7773347d77" x="99" y="185.243075" style="stroke: #000000; stroke-width: 0.8"/>
      </g>
     </g>
     <g id="text_8">
      <!-- −1.0 -->
      <g transform="translate(67.717187 189.042294)scale(0.1 -0.1)">
       <defs>
        <path id="DejaVuSans-2212" d="M 678 2272 
L 4684 2272 
L 4684 1741 
L 678 1741 
L 678 2272 
z
" transform="scale(0.015625)"/>
        <path id="DejaVuSans-2e" d="M 684 794 
L 1344 794 
L 1344 0 
L 684 0 
L 684 794 
z
" transform="scale(0.015625)"/>
       </defs>
       <use xlink:href="#DejaVuSans-2212"/>
       <use xlink:href="#DejaVuSans-31" x="83.789062"/>
       <use xlink:href="#DejaVuSans-2e" x="147.412109"/>
       <use xlink:href="#DejaVuSans-30" x="179.199219"/>
      </g>
     </g>
    </g>
    <g id="ytick_2">
     <g id="line2d_8">
      <g>
       <use xlink:href="#m7773347d77" x="99" y="160.350229" style="stroke: #000000; stroke-width: 0.8"/>
      </g>
     </g>
     <g id="text_9">
      <!-- −0.5 -->
      <g transform="translate(67.717187 164.149447)scale(0.1 -0.1)">
       <defs>
        <path id="DejaVuSans-35" d="M 691 4666 
L 3169 4666 
L 3169 4134 
L 1269 4134 
L 1269 2991 
Q 1406 3038 1543 3061 
Q 1681 3084 1819 3084 
Q 2600 3084 3056 2656 
Q 3513 2228 3513 1497 
Q 3513 744 3044 326 
Q 2575 -91 1722 -91 
Q 1428 -91 1123 -41 
Q 819 9 494 109 
L 494 744 
Q 775 591 1075 516 
Q 1375 441 1709 441 
Q 2250 441 2565 725 
Q 2881 1009 2881 1497 
Q 2881 1984 2565 2268 
Q 2250 2553 1709 2553 
Q 1456 2553 1204 2497 
Q 953 2441 691 2322 
L 691 4666 
z
" transform="scale(0.015625)"/>
       </defs>
       <use xlink:href="#DejaVuSans-2212"/>
       <use xlink:href="#DejaVuSans-30" x="83.789062"/>
       <use xlink:href="#DejaVuSans-2e" x="147.412109"/>
       <use xlink:href="#DejaVuSans-35" x="179.199219"/>
      </g>
     </g>
    </g>
    <g id="ytick_3">
     <g id="line2d_9">
      <g>
       <use xlink:href="#m7773347d77" x="99" y="135.457382" style="stroke: #000000; stroke-width: 0.8"/>
      </g>
     </g>
     <g id="text_10">
      <!-- 0.0 -->
      <g transform="translate(76.096875 139.256601)scale(0.1 -0.1)">
       <use xlink:href="#DejaVuSans-30"/>
       <use xlink:href="#DejaVuSans-2e" x="63.623047"/>
       <use xlink:href="#DejaVuSans-30" x="95.410156"/>
      </g>
     </g>
    </g>
    <g id="ytick_4">
     <g id="line2d_10">
      <g>
       <use xlink:href="#m7773347d77" x="99" y="110.564535" style="stroke: #000000; stroke-width: 0.8"/>
      </g>
     </g>
     <g id="text_11">
      <!-- 0.5 -->
      <g transform="translate(76.096875 114.363754)scale(0.1 -0.1)">
       <use xlink:href="#DejaVuSans-30"/>
       <use xlink:href="#DejaVuSans-2e" x="63.623047"/>
       <use xlink:href="#DejaVuSans-35" x="95.410156"/>
      </g>
     </g>
    </g>
    <g id="ytick_5">
     <g id="line2d_11">
      <g>
       <use xlink:href="#m7773347d77" x="99" y="85.671688" style="stroke: #000000; stroke-width: 0.8"/>
      </g>
     </g>
     <g id="text_12">
      <!-- 1.0 -->
      <g transform="translate(76.096875 89.470907)scale(0.1 -0.1)">
       <use xlink:href="#DejaVuSans-31"/>
       <use xlink:href="#DejaVuSans-2e" x="63.623047"/>
       <use xlink:href="#DejaVuSans-30" x="95.410156"/>
      </g>
     </g>
    </g>
    <g id="ytick_6">
     <g id="line2d_12">
      <g>
       <use xlink:href="#m7773347d77" x="99" y="60.778842" style="stroke: #000000; stroke-width: 0.8"/>
      </g>
     </g>
     <g id="text_13">
      <!-- 1.5 -->
      <g transform="translate(76.096875 64.57806)scale(0.1 -0.1)">
       <use xlink:href="#DejaVuSans-31"/>
       <use xlink:href="#DejaVuSans-2e" x="63.623047"/>
       <use xlink:href="#DejaVuSans-35" x="95.410156"/>
      </g>
     </g>
    </g>
    <g id="ytick_7">
     <g id="line2d_13">
      <g>
       <use xlink:href="#m7773347d77" x="99" y="35.885995" style="stroke: #000000; stroke-width: 0.8"/>
      </g>
     </g>
     <g id="text_14">
      <!-- 2.0 -->
      <g transform="translate(76.096875 39.685214)scale(0.1 -0.1)">
       <use xlink:href="#DejaVuSans-32"/>
       <use xlink:href="#DejaVuSans-2e" x="63.623047"/>
       <use xlink:href="#DejaVuSans-30" x="95.410156"/>
      </g>
     </g>
    </g>
   </g>
   <g id="line2d_14">
    <path d="M 126.9 130.158095 
L 127.458559 125.129653 
L 128.017117 144.116841 
L 128.575676 146.401941 
L 129.134234 116.486616 
L 130.251351 147.684249 
L 130.80991 145.652541 
L 131.927027 107.888208 
L 132.485586 107.962609 
L 133.044144 126.71681 
L 133.602703 140.637668 
L 134.161261 126.127717 
L 134.71982 122.728758 
L 135.278378 107.47428 
L 135.836937 126.468826 
L 136.395495 121.541824 
L 136.954054 147.135935 
L 137.512613 121.204746 
L 138.071171 111.473831 
L 138.62973 139.718414 
L 139.188288 136.087968 
L 139.746847 128.553659 
L 140.305405 128.399313 
L 140.863964 133.636337 
L 141.422523 136.33258 
L 141.981081 123.701309 
L 142.53964 127.740283 
L 143.098198 145.275345 
L 144.215315 131.151427 
L 144.773874 134.706486 
L 145.332432 154.443821 
L 145.890991 128.004575 
L 146.44955 147.740388 
L 147.008108 154.749944 
L 147.566667 125.240414 
L 148.125225 108.389279 
L 148.683784 154.779087 
L 149.242342 154.557051 
L 149.800901 123.860879 
L 150.359459 125.811207 
L 150.918018 133.847119 
L 151.476577 122.072256 
L 152.035135 153.430085 
L 152.593694 136.091309 
L 153.152252 160.613855 
L 153.710811 139.83699 
L 154.269369 133.194752 
L 154.827928 135.306751 
L 155.386486 127.130171 
L 156.503604 126.814198 
L 157.062162 137.719663 
L 157.620721 144.628075 
L 158.179279 134.801097 
L 158.737838 142.351677 
L 159.296396 140.392443 
L 160.413514 118.574945 
L 160.972072 112.764023 
L 162.089189 165.806868 
L 162.647748 145.140499 
L 163.206306 167.476059 
L 163.764865 141.613917 
L 164.323423 139.050215 
L 164.881982 135.617818 
L 165.440541 145.243814 
L 165.999099 118.460906 
L 166.557658 154.128677 
L 167.116216 97.192978 
L 167.674775 120.088474 
L 168.233333 134.127497 
L 168.791892 116.343896 
L 169.35045 125.474859 
L 169.909009 158.928921 
L 170.467568 125.677787 
L 171.026126 123.035004 
L 171.584685 136.563676 
L 172.143243 144.892728 
L 172.701802 116.227562 
L 173.26036 116.52641 
L 173.818919 169.37689 
L 174.377477 137.514729 
L 174.936036 123.933754 
L 175.494595 129.29553 
L 176.053153 137.606045 
L 176.611712 164.797459 
L 177.17027 124.480375 
L 177.728829 132.816115 
L 178.287387 132.137612 
L 178.845946 122.767858 
L 179.404505 133.838281 
L 179.963063 135.122996 
L 180.521622 156.348164 
L 181.08018 131.506797 
L 181.638739 136.236902 
L 182.197297 148.26192 
L 182.755856 152.413403 
L 183.314414 138.834351 
L 183.872973 140.945236 
L 184.99009 112.60498 
L 185.548649 135.221166 
L 186.107207 96.188436 
L 186.665766 122.920348 
L 187.224324 134.825087 
L 187.782883 138.673135 
L 188.341441 127.274123 
L 188.9 130.121351 
L 189.458559 147.008161 
L 190.017117 128.298124 
L 190.575676 152.351156 
L 191.134234 165.996021 
L 191.692793 129.963405 
L 192.251351 136.55438 
L 192.80991 130.944649 
L 193.368468 150.649637 
L 193.927027 126.380294 
L 194.485586 136.18583 
L 195.044144 150.665005 
L 195.602703 117.549299 
L 196.161261 129.583628 
L 196.71982 129.511652 
L 197.278378 124.588013 
L 197.836937 157.089232 
L 198.395495 121.501991 
L 198.954054 136.733797 
L 199.512613 137.175697 
L 200.071171 135.900813 
L 200.62973 108.888269 
L 201.188288 160.658384 
L 201.746847 139.645134 
L 202.305405 125.935248 
L 202.863964 157.607076 
L 203.422523 150.395309 
L 203.981081 108.904955 
L 204.53964 119.066389 
L 205.098198 146.586577 
L 205.656757 144.371623 
L 206.215315 138.989919 
L 206.773874 126.624645 
L 207.332432 138.335934 
L 207.890991 145.877358 
L 208.44955 143.505104 
L 209.008108 147.720978 
L 209.566667 113.882345 
L 210.125225 135.954227 
L 210.683784 134.378851 
L 211.242342 152.147663 
L 211.800901 98.268868 
L 212.359459 146.997664 
L 212.918018 133.107256 
L 213.476577 143.429149 
L 214.035135 139.282193 
L 214.593694 159.839345 
L 215.152252 138.569855 
L 215.710811 135.843656 
L 216.269369 130.889102 
L 216.827928 123.386767 
L 217.386486 126.696332 
L 217.945045 128.403685 
L 218.503604 144.737824 
L 219.062162 139.431647 
L 219.620721 120.652382 
L 220.179279 126.826446 
L 220.737838 156.122098 
L 221.296396 117.685082 
L 221.854955 128.452842 
L 222.413514 131.956278 
L 223.530631 104.214843 
L 224.089189 123.703009 
L 224.647748 133.191738 
L 225.206306 134.539426 
L 225.764865 96.324527 
L 226.323423 154.065418 
L 226.881982 165.296739 
L 227.999099 115.902526 
L 228.557658 142.22687 
L 229.116216 151.027554 
L 229.674775 157.591926 
L 230.233333 146.359034 
L 230.791892 137.686396 
L 231.35045 156.655887 
L 231.909009 133.762314 
L 232.467568 164.942481 
L 233.026126 120.978158 
L 233.584685 106.044532 
L 234.143243 129.998363 
L 235.26036 144.937177 
L 235.818919 130.094698 
L 236.377477 119.091425 
L 236.936036 150.552688 
L 238.053153 113.541891 
L 238.611712 114.453631 
L 239.17027 122.572184 
L 239.728829 141.431904 
L 240.287387 115.180821 
L 240.845946 146.460045 
L 241.404505 131.129905 
L 241.963063 171.982749 
L 242.521622 156.376612 
L 243.08018 125.739633 
L 243.638739 151.175873 
L 244.197297 122.50942 
L 244.755856 127.335818 
L 245.314414 114.116532 
L 245.872973 155.43627 
L 246.431532 137.559002 
L 246.99009 150.200021 
L 247.548649 130.723289 
L 248.107207 151.801741 
L 248.665766 124.430863 
L 249.224324 130.45127 
L 249.782883 167.240065 
L 250.341441 99.662371 
L 250.9 134.573494 
L 251.458559 140.756119 
L 252.017117 134.771555 
L 252.575676 140.891485 
L 253.134234 135.734068 
L 253.692793 111.534386 
L 254.251351 138.524409 
L 254.80991 135.566903 
L 255.368468 134.555122 
L 255.927027 138.657025 
L 256.485586 163.927376 
L 257.044144 126.521952 
L 257.602703 124.935365 
L 258.161261 132.00913 
L 258.71982 165.624481 
L 259.836937 142.434064 
L 260.395495 138.661226 
L 260.954054 129.819246 
L 261.512613 154.34452 
L 262.071171 120.237614 
L 263.188288 159.136289 
L 263.746847 120.436229 
L 264.305405 151.699728 
L 264.863964 136.221939 
L 265.422523 130.754295 
L 265.981081 138.921428 
L 266.53964 128.914669 
L 267.098198 142.279416 
L 267.656757 103.608432 
L 268.215315 115.845209 
L 268.773874 143.412975 
L 269.332432 124.844489 
L 269.890991 116.73182 
L 270.44955 131.964045 
L 271.008108 136.383013 
L 271.566667 153.032799 
L 272.125225 113.067302 
L 272.683784 123.488811 
L 273.242342 114.574038 
L 273.800901 142.863701 
L 274.359459 125.591449 
L 274.918018 146.937941 
L 275.476577 137.017879 
L 276.035135 135.78564 
L 276.593694 149.156069 
L 277.152252 138.171294 
L 277.710811 137.911427 
L 278.269369 120.351259 
L 278.827928 121.546828 
L 279.945045 150.624437 
L 280.503604 132.835353 
L 281.062162 139.238836 
L 281.620721 164.76776 
L 282.737838 125.814211 
L 283.296396 129.443465 
L 283.854955 128.079178 
L 284.413514 121.274005 
L 284.972072 163.067228 
L 285.530631 114.008013 
L 286.089189 140.602988 
L 286.647748 145.296724 
L 287.206306 155.289076 
L 287.764865 126.198245 
L 288.323423 154.111031 
L 288.881982 124.612655 
L 289.440541 139.376811 
L 289.999099 137.648455 
L 290.557658 158.975427 
L 291.116216 125.990929 
L 291.674775 135.248106 
L 292.233333 119.345551 
L 292.791892 154.407557 
L 293.35045 113.59231 
L 293.909009 151.328282 
L 294.467568 129.12167 
L 295.026126 149.082911 
L 295.584685 134.913376 
L 296.143243 126.025167 
L 296.701802 140.3919 
L 297.26036 144.406379 
L 297.818919 151.841373 
L 298.377477 145.091432 
L 298.936036 171.257724 
L 299.494595 144.161822 
L 300.053153 147.575746 
L 300.611712 97.846262 
L 301.17027 126.170937 
L 301.728829 130.797121 
L 302.287387 127.328657 
L 302.845946 117.253784 
L 303.404505 120.450094 
L 303.963063 148.997591 
L 305.08018 129.688623 
L 305.638739 149.83752 
L 306.197297 139.749913 
L 306.755856 145.61444 
L 307.314414 109.219173 
L 307.872973 132.153443 
L 308.431532 130.832846 
L 308.99009 132.866959 
L 309.548649 151.721659 
L 310.107207 136.604263 
L 310.665766 125.730545 
L 311.224324 122.044124 
L 311.782883 126.851535 
L 312.341441 147.20159 
L 312.9 119.858338 
L 313.458559 118.532066 
L 314.017117 144.70773 
L 314.575676 142.45977 
L 315.134234 133.171521 
L 315.692793 132.07314 
L 316.251351 157.043925 
L 316.80991 154.324014 
L 317.368468 123.804789 
L 317.927027 144.70262 
L 318.485586 155.958062 
L 319.044144 123.992926 
L 319.602703 134.889505 
L 320.161261 168.918839 
L 320.71982 126.726317 
L 321.278378 140.906715 
L 321.836937 158.701072 
L 322.395495 134.338088 
L 322.954054 157.179102 
L 323.512613 119.225529 
L 324.071171 131.378619 
L 324.62973 135.064035 
L 325.188288 156.558062 
L 325.746847 133.970518 
L 326.305405 135.109564 
L 326.863964 102.519769 
L 327.422523 136.994158 
L 327.981081 119.844159 
L 328.53964 140.147675 
L 329.098198 128.797159 
L 329.656757 96.569856 
L 330.215315 133.228413 
L 330.773874 156.935799 
L 331.332432 154.701155 
L 331.890991 145.083058 
L 332.44955 148.903651 
L 333.008108 121.491797 
L 333.566667 162.338575 
L 334.125225 129.734324 
L 334.683784 139.17557 
L 335.242342 130.392043 
L 335.800901 116.604796 
L 336.359459 145.171268 
L 336.918018 157.227735 
L 337.476577 140.167055 
L 338.035135 156.121698 
L 338.593694 180.536492 
L 339.152252 134.571489 
L 339.710811 150.808037 
L 340.269369 114.558321 
L 340.827928 120.113019 
L 341.386486 133.777254 
L 341.945045 114.823994 
L 342.503604 165.178976 
L 343.620721 123.241092 
L 344.179279 137.708598 
L 344.737838 111.942253 
L 345.296396 147.357786 
L 345.854955 128.319567 
L 346.413514 144.025698 
L 346.972072 132.693606 
L 347.530631 134.864094 
L 348.089189 120.359473 
L 348.647748 148.428726 
L 349.206306 159.912333 
L 349.764865 156.56778 
L 350.323423 150.838383 
L 350.881982 135.765041 
L 351.440541 149.593565 
L 351.999099 148.108185 
L 352.557658 133.136792 
L 353.116216 161.859502 
L 353.674775 137.408041 
L 354.233333 103.504043 
L 354.791892 146.974572 
L 355.35045 141.017304 
L 355.909009 119.621347 
L 356.467568 125.905351 
L 357.026126 154.965702 
L 357.584685 116.013035 
L 358.143243 149.598273 
L 358.701802 131.51745 
L 359.26036 122.602079 
L 359.818919 126.843943 
L 360.377477 168.729081 
L 360.936036 129.168408 
L 361.494595 145.554293 
L 362.053153 121.149283 
L 362.611712 119.238432 
L 363.17027 136.002824 
L 363.728829 130.666431 
L 364.287387 142.581003 
L 364.845946 119.073695 
L 365.404505 124.404596 
L 365.963063 133.076481 
L 366.521622 148.424637 
L 367.08018 127.130983 
L 367.638739 122.601463 
L 368.197297 132.91705 
L 368.755856 128.751357 
L 369.314414 168.540772 
L 369.872973 116.136053 
L 370.431532 139.847673 
L 370.99009 139.637586 
L 371.548649 140.744166 
L 372.107207 121.834236 
L 372.665766 129.881433 
L 373.224324 150.084198 
L 373.782883 127.612625 
L 374.341441 153.599897 
L 374.9 144.369432 
L 375.458559 131.453581 
L 376.017117 134.398917 
L 376.575676 146.59108 
L 377.134234 150.396381 
L 377.692793 156.026541 
L 378.251351 144.188412 
L 378.80991 137.201377 
L 379.368468 141.55107 
L 379.927027 135.572504 
L 380.485586 147.050297 
L 381.044144 133.277139 
L 381.602703 154.201291 
L 382.161261 146.24378 
L 382.71982 181.587273 
L 383.278378 147.037178 
L 383.836937 151.476351 
L 384.395495 126.508683 
L 384.954054 163.106304 
L 386.071171 129.130772 
L 386.62973 134.643032 
L 387.188288 129.254422 
L 387.746847 133.084921 
L 388.305405 149.012072 
L 388.863964 130.962541 
L 389.422523 124.620393 
L 389.981081 142.268253 
L 390.53964 146.562032 
L 391.098198 134.179428 
L 391.656757 140.152898 
L 392.773874 123.733831 
L 393.332432 138.348307 
L 393.890991 135.980726 
L 394.44955 140.68625 
L 395.008108 118.003856 
L 395.566667 145.660426 
L 396.125225 146.404323 
L 396.683784 155.93468 
L 397.242342 134.957168 
L 397.800901 126.207969 
L 398.359459 130.9074 
L 398.918018 141.645303 
L 399.476577 109.902937 
L 400.035135 131.995692 
L 400.593694 120.264831 
L 401.152252 126.014671 
L 401.710811 134.919479 
L 402.269369 127.215927 
L 402.827928 134.720378 
L 403.386486 118.213864 
L 404.503604 152.069608 
L 405.620721 138.563549 
L 406.179279 84.206683 
L 406.737838 76.836336 
L 407.296396 132.335292 
L 407.854955 123.126732 
L 408.413514 100.228394 
L 408.972072 118.690705 
L 409.530631 95.230786 
L 410.089189 88.764508 
L 410.647748 115.215974 
L 411.206306 102.01459 
L 411.764865 113.960039 
L 412.323423 110.848588 
L 412.881982 95.777853 
L 413.440541 121.599975 
L 413.999099 99.720871 
L 414.557658 86.792565 
L 415.116216 122.617044 
L 415.674775 94.522348 
L 416.233333 91.020413 
L 416.791892 114.317567 
L 417.35045 96.037276 
L 417.909009 106.738218 
L 418.467568 94.969374 
L 419.026126 115.435584 
L 419.584685 104.719166 
L 420.143243 85.028677 
L 420.701802 129.075307 
L 421.26036 85.84829 
L 421.818919 105.900136 
L 422.377477 94.470846 
L 422.936036 92.076954 
L 423.494595 123.724053 
L 424.053153 81.115905 
L 424.611712 101.667471 
L 425.17027 66.329491 
L 425.728829 88.239165 
L 426.287387 91.29804 
L 426.845946 119.066562 
L 427.404505 93.26306 
L 427.963063 76.671148 
L 428.521622 90.038761 
L 429.08018 131.7807 
L 429.638739 73.001648 
L 430.197297 96.812222 
L 430.755856 95.474155 
L 431.314414 125.947772 
L 431.872973 108.089707 
L 432.431532 70.523663 
L 432.99009 95.372027 
L 433.548649 98.244635 
L 434.107207 76.87066 
L 434.665766 98.142867 
L 435.224324 71.834066 
L 435.782883 111.153915 
L 436.341441 118.103674 
L 436.9 116.180022 
L 438.017117 79.659944 
L 438.575676 100.224367 
L 439.134234 108.151546 
L 439.692793 123.765186 
L 440.251351 62.82239 
L 440.80991 71.701686 
L 441.368468 88.813227 
L 441.927027 85.251331 
L 442.485586 108.185318 
L 443.044144 92.405805 
L 443.602703 80.575923 
L 444.161261 130.302824 
L 444.71982 89.802084 
L 445.278378 96.219926 
L 445.836937 96.841132 
L 446.395495 90.672244 
L 446.954054 98.476244 
L 447.512613 109.95193 
L 448.071171 115.420522 
L 448.62973 86.701986 
L 449.188288 87.193487 
L 449.746847 100.128152 
L 450.305405 61.39963 
L 451.422523 150.266508 
L 451.981081 89.346649 
L 452.53964 114.078397 
L 453.098198 95.493194 
L 453.656757 86.346015 
L 454.215315 105.046703 
L 454.773874 86.415319 
L 455.332432 97.727974 
L 455.890991 82.655977 
L 456.44955 104.315172 
L 457.566667 116.532347 
L 458.125225 84.282523 
L 458.683784 122.568662 
L 459.242342 102.588292 
L 459.800901 107.404643 
L 460.359459 100.924963 
L 460.918018 95.800149 
L 461.476577 106.031972 
L 462.035135 149.620816 
L 462.593694 50.276948 
L 463.152252 90.485365 
L 463.710811 116.294373 
L 464.269369 90.158768 
L 464.827928 111.659931 
L 465.386486 87.535815 
L 465.945045 82.58492 
L 466.503604 72.4231 
L 467.062162 103.105879 
L 467.620721 98.594884 
L 468.179279 91.884064 
L 468.737838 95.511588 
L 469.296396 141.675609 
L 469.854955 140.958101 
L 470.413514 134.28994 
L 470.972072 100.367515 
L 471.530631 101.177338 
L 472.089189 87.452519 
L 472.647748 77.705658 
L 473.206306 98.904312 
L 473.764865 95.924705 
L 474.323423 65.770548 
L 474.881982 65.459564 
L 475.440541 65.972773 
L 475.999099 73.034787 
L 476.557658 87.533536 
L 477.674775 66.460426 
L 478.233333 118.563002 
L 478.791892 148.646887 
L 479.35045 88.478823 
L 479.909009 93.955594 
L 480.467568 134.344743 
L 481.026126 114.961073 
L 481.584685 70.626001 
L 482.143243 94.064165 
L 482.701802 106.005314 
L 483.26036 103.060869 
L 483.818919 81.723485 
L 484.377477 97.333459 
L 484.936036 116.367478 
L 485.494595 91.90489 
L 486.053153 81.08257 
L 486.611712 127.199227 
L 487.17027 133.657159 
L 487.728829 78.453294 
L 488.287387 77.223128 
L 488.845946 115.120691 
L 489.404505 65.015845 
L 489.963063 92.421993 
L 490.521622 106.589384 
L 491.08018 106.192153 
L 491.638739 121.023406 
L 492.197297 106.104263 
L 492.755856 128.619207 
L 493.314414 107.885056 
L 493.872973 128.452794 
L 494.431532 105.833161 
L 494.99009 117.33316 
L 495.548649 71.95761 
L 496.107207 116.259524 
L 496.665766 103.842717 
L 497.782883 142.306412 
L 498.341441 79.469089 
L 499.458559 101.039907 
L 500.017117 77.099069 
L 500.575676 94.871066 
L 501.134234 85.970731 
L 501.692793 119.271355 
L 502.251351 100.055381 
L 502.80991 85.279955 
L 503.368468 93.980507 
L 503.927027 131.294129 
L 504.485586 119.351014 
L 505.044144 91.206486 
L 505.602703 78.104289 
L 506.161261 114.966484 
L 506.71982 100.128818 
L 507.278378 120.631976 
L 507.836937 115.723842 
L 508.395495 102.842445 
L 508.954054 120.094286 
L 509.512613 92.974314 
L 510.071171 106.049175 
L 510.62973 101.551182 
L 511.188288 116.417283 
L 511.746847 80.696103 
L 512.305405 55.157223 
L 512.863964 90.517762 
L 513.422523 84.510119 
L 513.981081 121.900462 
L 514.53964 107.862141 
L 515.098198 110.299936 
L 515.656757 98.789717 
L 516.215315 69.526648 
L 517.332432 131.045124 
L 518.44955 87.88768 
L 519.008108 72.149805 
L 519.566667 102.351434 
L 520.125225 113.907801 
L 520.683784 50.902738 
L 521.242342 131.005544 
L 521.800901 87.436903 
L 522.359459 91.866286 
L 522.918018 125.122814 
L 523.476577 149.24937 
L 524.035135 90.621673 
L 524.593694 101.336397 
L 525.152252 60.210623 
L 525.710811 104.328612 
L 526.269369 92.797492 
L 526.827928 115.004318 
L 527.386486 124.07204 
L 527.945045 84.955456 
L 528.503604 105.497113 
L 529.062162 91.751267 
L 529.620721 100.010254 
L 530.179279 104.773752 
L 530.737838 120.668449 
L 531.296396 87.461925 
L 531.854955 84.562079 
L 532.413514 81.008178 
L 532.972072 112.961627 
L 533.530631 121.144509 
L 534.089189 117.025877 
L 534.647748 80.054449 
L 535.764865 125.934406 
L 536.323423 82.985321 
L 536.881982 95.636626 
L 537.440541 95.450278 
L 537.999099 98.134097 
L 538.557658 93.712726 
L 539.116216 33.677441 
L 539.674775 77.233117 
L 540.233333 57.448683 
L 540.791892 92.007566 
L 541.35045 85.4709 
L 541.909009 113.911001 
L 542.467568 89.133972 
L 543.026126 87.16913 
L 543.584685 108.76344 
L 544.143243 85.195636 
L 544.701802 99.31071 
L 545.26036 123.110536 
L 545.818919 72.230571 
L 546.377477 91.943368 
L 546.936036 117.155692 
L 547.494595 85.174424 
L 548.053153 121.988271 
L 548.611712 116.778073 
L 549.17027 119.303555 
L 549.728829 76.914186 
L 550.287387 58.90529 
L 550.845946 109.084566 
L 551.963063 131.585905 
L 552.521622 93.129926 
L 553.08018 101.224323 
L 553.638739 106.308497 
L 554.197297 89.544442 
L 554.755856 99.051103 
L 555.314414 103.948239 
L 555.872973 93.829969 
L 556.431532 117.510176 
L 557.548649 70.21999 
L 558.107207 106.740139 
L 558.665766 125.212739 
L 559.224324 96.816443 
L 559.782883 98.243198 
L 560.341441 82.971811 
L 560.9 77.869088 
L 561.458559 82.24586 
L 562.017117 110.079088 
L 562.575676 114.339449 
L 563.134234 68.564092 
L 563.692793 95.144697 
L 564.251351 97.262276 
L 564.80991 121.499152 
L 565.368468 124.894253 
L 565.927027 98.021625 
L 566.485586 99.185674 
L 567.044144 119.200782 
L 567.602703 78.975355 
L 568.161261 103.634413 
L 568.71982 62.890556 
L 569.278378 107.84237 
L 569.836937 117.936189 
L 570.395495 105.800853 
L 570.954054 55.258586 
L 571.512613 154.248452 
L 572.071171 92.699265 
L 572.62973 92.377521 
L 573.188288 110.542741 
L 573.746847 137.247218 
L 574.305405 109.547332 
L 574.863964 104.946404 
L 575.422523 116.582375 
L 575.981081 111.5118 
L 576.53964 83.952564 
L 577.098198 92.92982 
L 578.215315 129.326537 
L 578.773874 76.515843 
L 579.332432 50.381705 
L 579.890991 104.75765 
L 580.44955 87.304282 
L 581.008108 94.377344 
L 581.566667 77.28976 
L 582.125225 69.8003 
L 582.683784 69.633389 
L 583.242342 105.312906 
L 583.800901 65.379208 
L 584.359459 116.267642 
L 584.918018 101.202386 
L 585.476577 128.939576 
L 586.035135 102.392304 
L 586.593694 147.638251 
L 587.152252 89.477563 
L 587.710811 131.059216 
L 588.269369 130.537798 
L 588.827928 105.745004 
L 589.386486 113.621201 
L 589.945045 127.192782 
L 590.503604 93.312682 
L 591.062162 73.489552 
L 591.620721 85.146677 
L 592.179279 114.523362 
L 592.737838 105.896438 
L 593.296396 107.052928 
L 593.854955 77.483536 
L 594.413514 96.433744 
L 594.972072 100.038359 
L 595.530631 69.400742 
L 596.089189 86.985461 
L 596.647748 137.161035 
L 597.206306 51.546251 
L 597.764865 96.829731 
L 598.323423 91.06189 
L 598.881982 101.370337 
L 599.440541 96.427443 
L 599.999099 93.72644 
L 600.557658 72.124934 
L 601.674775 75.828852 
L 602.233333 90.671059 
L 602.791892 75.010321 
L 603.35045 98.62928 
L 603.909009 114.408963 
L 604.467568 107.285478 
L 605.026126 56.514652 
L 605.584685 67.692366 
L 606.143243 101.063072 
L 606.701802 121.165176 
L 607.26036 81.020773 
L 607.818919 122.705269 
L 608.377477 84.145385 
L 608.936036 106.476216 
L 609.494595 100.073401 
L 610.053153 104.857074 
L 610.611712 86.11221 
L 611.17027 63.22409 
L 611.728829 98.650679 
L 612.287387 96.610259 
L 612.845946 114.437195 
L 613.404505 95.358941 
L 613.963063 81.672057 
L 614.521622 109.639845 
L 615.08018 107.883906 
L 615.638739 125.350293 
L 616.755856 57.602112 
L 617.314414 97.100094 
L 617.872973 73.448982 
L 618.431532 111.166039 
L 618.99009 93.014128 
L 619.548649 105.863827 
L 620.107207 122.593892 
L 620.665766 99.418231 
L 621.782883 109.78504 
L 622.341441 86.338932 
L 622.9 54.749821 
L 623.458559 138.679981 
L 624.017117 102.607278 
L 624.575676 84.8474 
L 625.134234 88.12422 
L 625.692793 65.302068 
L 626.251351 134.517411 
L 627.368468 106.260522 
L 627.927027 95.578995 
L 628.485586 132.868828 
L 629.044144 99.175122 
L 629.602703 76.640246 
L 630.161261 140.184956 
L 631.278378 104.334194 
L 631.836937 103.283005 
L 632.395495 131.172055 
L 632.954054 104.671669 
L 633.512613 127.979468 
L 634.071171 84.095204 
L 634.62973 103.785649 
L 635.188288 54.218524 
L 635.746847 98.019545 
L 636.305405 81.701315 
L 636.863964 55.580599 
L 637.422523 97.987024 
L 637.981081 109.723611 
L 638.53964 108.578804 
L 639.098198 93.888075 
L 639.656757 125.614244 
L 640.215315 100.353377 
L 640.773874 119.574574 
L 641.332432 65.360345 
L 642.44955 97.315097 
L 643.008108 102.547574 
L 643.566667 67.811274 
L 644.125225 115.942368 
L 644.683784 68.596516 
L 645.242342 66.609301 
L 645.800901 121.039079 
L 646.359459 91.247676 
L 646.918018 124.258415 
L 647.476577 101.834162 
L 648.035135 113.077681 
L 648.593694 93.611272 
L 649.152252 147.312075 
L 649.710811 80.967154 
L 650.269369 86.738427 
L 650.827928 114.22955 
L 651.386486 92.957274 
L 651.945045 47.520273 
L 652.503604 111.054959 
L 653.062162 102.022894 
L 653.620721 99.669995 
L 654.179279 84.600648 
L 654.737838 98.184926 
L 655.296396 129.755515 
L 655.854955 105.409213 
L 656.413514 114.960694 
L 656.972072 72.003485 
L 657.530631 75.552451 
L 658.089189 116.473847 
L 658.647748 87.886633 
L 659.206306 125.361745 
L 659.764865 33.332727 
L 660.323423 74.327456 
L 660.881982 128.6856 
L 661.440541 91.318007 
L 661.999099 124.44311 
L 662.557658 133.625428 
L 663.116216 64.848592 
L 663.674775 104.567084 
L 664.233333 119.413267 
L 664.791892 80.396716 
L 665.35045 118.956276 
L 665.909009 98.951657 
L 667.026126 80.48145 
L 667.584685 134.996973 
L 668.143243 73.67757 
L 668.701802 159.736519 
L 669.26036 130.718635 
L 669.818919 95.475761 
L 670.377477 93.419812 
L 670.936036 85.709151 
L 671.494595 92.040322 
L 672.053153 85.487975 
L 672.611712 55.297313 
L 673.17027 102.621756 
L 673.728829 89.70965 
L 674.287387 60.322978 
L 674.845946 106.867041 
L 675.404505 75.31872 
L 675.963063 102.134463 
L 676.521622 140.348718 
L 677.08018 78.270739 
L 677.638739 101.998835 
L 678.197297 91.45159 
L 678.755856 107.726195 
L 679.314414 68.76118 
L 679.872973 106.382065 
L 680.431532 116.674138 
L 681.548649 70.197446 
L 682.107207 95.864656 
L 682.665766 114.337668 
L 683.224324 112.651152 
L 683.782883 50.729554 
L 684.341441 67.990749 
L 684.9 159.61011 
L 684.9 159.61011 
" clip-path="url(#p49302b96cb)" style="fill: none; stroke: #1f77b4; stroke-linecap: square"/>
   </g>
   <g id="line2d_15">
    <path d="M 99 98.118112 
L 712.8 98.118112 
" clip-path="url(#p49302b96cb)" style="fill: none; stroke-dasharray: 14.8,6.4; stroke-dashoffset: 0; stroke: #ff0000; stroke-width: 4"/>
   </g>
   <g id="line2d_16">
    <path d="M 99 172.796652 
L 712.8 172.796652 
" clip-path="url(#p49302b96cb)" style="fill: none; stroke-dasharray: 14.8,6.4; stroke-dashoffset: 0; stroke: #ff0000; stroke-width: 4"/>
   </g>
   <g id="patch_3">
    <path d="M 99 189 
L 99 25.92 
" style="fill: none; stroke: #000000; stroke-width: 0.8; stroke-linejoin: miter; stroke-linecap: square"/>
   </g>
   <g id="patch_4">
    <path d="M 712.8 189 
L 712.8 25.92 
" style="fill: none; stroke: #000000; stroke-width: 0.8; stroke-linejoin: miter; stroke-linecap: square"/>
   </g>
   <g id="patch_5">
    <path d="M 99 189 
L 712.8 189 
" style="fill: none; stroke: #000000; stroke-width: 0.8; stroke-linejoin: miter; stroke-linecap: square"/>
   </g>
   <g id="patch_6">
    <path d="M 99 25.92 
L 712.8 25.92 
" style="fill: none; stroke: #000000; stroke-width: 0.8; stroke-linejoin: miter; stroke-linecap: square"/>
   </g>
   <g id="text_15">
    <!-- Residual -->
    <g transform="translate(380.56125 19.92)scale(0.12 -0.12)">
     <defs>
      <path id="DejaVuSans-52" d="M 2841 2188 
Q 3044 2119 3236 1894 
Q 3428 1669 3622 1275 
L 4263 0 
L 3584 0 
L 2988 1197 
Q 2756 1666 2539 1819 
Q 2322 1972 1947 1972 
L 1259 1972 
L 1259 0 
L 628 0 
L 628 4666 
L 2053 4666 
Q 2853 4666 3247 4331 
Q 3641 3997 3641 3322 
Q 3641 2881 3436 2590 
Q 3231 2300 2841 2188 
z
M 1259 4147 
L 1259 2491 
L 2053 2491 
Q 2509 2491 2742 2702 
Q 2975 2913 2975 3322 
Q 2975 3731 2742 3939 
Q 2509 4147 2053 4147 
L 1259 4147 
z
" transform="scale(0.015625)"/>
      <path id="DejaVuSans-73" d="M 2834 3397 
L 2834 2853 
Q 2591 2978 2328 3040 
Q 2066 3103 1784 3103 
Q 1356 3103 1142 2972 
Q 928 2841 928 2578 
Q 928 2378 1081 2264 
Q 1234 2150 1697 2047 
L 1894 2003 
Q 2506 1872 2764 1633 
Q 3022 1394 3022 966 
Q 3022 478 2636 193 
Q 2250 -91 1575 -91 
Q 1294 -91 989 -36 
Q 684 19 347 128 
L 347 722 
Q 666 556 975 473 
Q 1284 391 1588 391 
Q 1994 391 2212 530 
Q 2431 669 2431 922 
Q 2431 1156 2273 1281 
Q 2116 1406 1581 1522 
L 1381 1569 
Q 847 1681 609 1914 
Q 372 2147 372 2553 
Q 372 3047 722 3315 
Q 1072 3584 1716 3584 
Q 2034 3584 2315 3537 
Q 2597 3491 2834 3397 
z
" transform="scale(0.015625)"/>
      <path id="DejaVuSans-64" d="M 2906 2969 
L 2906 4863 
L 3481 4863 
L 3481 0 
L 2906 0 
L 2906 525 
Q 2725 213 2448 61 
Q 2172 -91 1784 -91 
Q 1150 -91 751 415 
Q 353 922 353 1747 
Q 353 2572 751 3078 
Q 1150 3584 1784 3584 
Q 2172 3584 2448 3432 
Q 2725 3281 2906 2969 
z
M 947 1747 
Q 947 1113 1208 752 
Q 1469 391 1925 391 
Q 2381 391 2643 752 
Q 2906 1113 2906 1747 
Q 2906 2381 2643 2742 
Q 2381 3103 1925 3103 
Q 1469 3103 1208 2742 
Q 947 2381 947 1747 
z
" transform="scale(0.015625)"/>
      <path id="DejaVuSans-75" d="M 544 1381 
L 544 3500 
L 1119 3500 
L 1119 1403 
Q 1119 906 1312 657 
Q 1506 409 1894 409 
Q 2359 409 2629 706 
Q 2900 1003 2900 1516 
L 2900 3500 
L 3475 3500 
L 3475 0 
L 2900 0 
L 2900 538 
Q 2691 219 2414 64 
Q 2138 -91 1772 -91 
Q 1169 -91 856 284 
Q 544 659 544 1381 
z
M 1991 3584 
L 1991 3584 
z
" transform="scale(0.015625)"/>
      <path id="DejaVuSans-61" d="M 2194 1759 
Q 1497 1759 1228 1600 
Q 959 1441 959 1056 
Q 959 750 1161 570 
Q 1363 391 1709 391 
Q 2188 391 2477 730 
Q 2766 1069 2766 1631 
L 2766 1759 
L 2194 1759 
z
M 3341 1997 
L 3341 0 
L 2766 0 
L 2766 531 
Q 2569 213 2275 61 
Q 1981 -91 1556 -91 
Q 1019 -91 701 211 
Q 384 513 384 1019 
Q 384 1609 779 1909 
Q 1175 2209 1959 2209 
L 2766 2209 
L 2766 2266 
Q 2766 2663 2505 2880 
Q 2244 3097 1772 3097 
Q 1472 3097 1187 3025 
Q 903 2953 641 2809 
L 641 3341 
Q 956 3463 1253 3523 
Q 1550 3584 1831 3584 
Q 2591 3584 2966 3190 
Q 3341 2797 3341 1997 
z
" transform="scale(0.015625)"/>
      <path id="DejaVuSans-6c" d="M 603 4863 
L 1178 4863 
L 1178 0 
L 603 0 
L 603 4863 
z
" transform="scale(0.015625)"/>
     </defs>
     <use xlink:href="#DejaVuSans-52"/>
     <use xlink:href="#DejaVuSans-65" x="64.982422"/>
     <use xlink:href="#DejaVuSans-73" x="126.505859"/>
     <use xlink:href="#DejaVuSans-69" x="178.605469"/>
     <use xlink:href="#DejaVuSans-64" x="206.388672"/>
     <use xlink:href="#DejaVuSans-75" x="269.865234"/>
     <use xlink:href="#DejaVuSans-61" x="333.244141"/>
     <use xlink:href="#DejaVuSans-6c" x="394.523438"/>
    </g>
   </g>
   <g id="legend_1">
    <g id="patch_7">
     <path d="M 106 48.598125 
L 187.276563 48.598125 
Q 189.276563 48.598125 189.276563 46.598125 
L 189.276563 32.92 
Q 189.276563 30.92 187.276563 30.92 
L 106 30.92 
Q 104 30.92 104 32.92 
L 104 46.598125 
Q 104 48.598125 106 48.598125 
z
" style="fill: #ffffff; opacity: 0.8; stroke: #cccccc; stroke-linejoin: miter"/>
    </g>
    <g id="line2d_17">
     <path d="M 108 39.018437 
L 118 39.018437 
L 128 39.018437 
" style="fill: none; stroke-dasharray: 14.8,6.4; stroke-dashoffset: 0; stroke: #ff0000; stroke-width: 4"/>
    </g>
    <g id="text_16">
     <!-- Threshold -->
     <g transform="translate(136 42.518437)scale(0.1 -0.1)">
      <defs>
       <path id="DejaVuSans-68" d="M 3513 2113 
L 3513 0 
L 2938 0 
L 2938 2094 
Q 2938 2591 2744 2837 
Q 2550 3084 2163 3084 
Q 1697 3084 1428 2787 
Q 1159 2491 1159 1978 
L 1159 0 
L 581 0 
L 581 4863 
L 1159 4863 
L 1159 2956 
Q 1366 3272 1645 3428 
Q 1925 3584 2291 3584 
Q 2894 3584 3203 3211 
Q 3513 2838 3513 2113 
z
" transform="scale(0.015625)"/>
       <path id="DejaVuSans-72" d="M 2631 2963 
Q 2534 3019 2420 3045 
Q 2306 3072 2169 3072 
Q 1681 3072 1420 2755 
Q 1159 2438 1159 1844 
L 1159 0 
L 581 0 
L 581 3500 
L 1159 3500 
L 1159 2956 
Q 1341 3275 1631 3429 
Q 1922 3584 2338 3584 
Q 2397 3584 2469 3576 
Q 2541 3569 2628 3553 
L 2631 2963 
z
" transform="scale(0.015625)"/>
       <path id="DejaVuSans-6f" d="M 1959 3097 
Q 1497 3097 1228 2736 
Q 959 2375 959 1747 
Q 959 1119 1226 758 
Q 1494 397 1959 397 
Q 2419 397 2687 759 
Q 2956 1122 2956 1747 
Q 2956 2369 2687 2733 
Q 2419 3097 1959 3097 
z
M 1959 3584 
Q 2709 3584 3137 3096 
Q 3566 2609 3566 1747 
Q 3566 888 3137 398 
Q 2709 -91 1959 -91 
Q 1206 -91 779 398 
Q 353 888 353 1747 
Q 353 2609 779 3096 
Q 1206 3584 1959 3584 
z
" transform="scale(0.015625)"/>
      </defs>
      <use xlink:href="#DejaVuSans-54"/>
      <use xlink:href="#DejaVuSans-68" x="61.083984"/>
      <use xlink:href="#DejaVuSans-72" x="124.462891"/>
      <use xlink:href="#DejaVuSans-65" x="163.326172"/>
      <use xlink:href="#DejaVuSans-73" x="224.849609"/>
      <use xlink:href="#DejaVuSans-68" x="276.949219"/>
      <use xlink:href="#DejaVuSans-6f" x="340.328125"/>
      <use xlink:href="#DejaVuSans-6c" x="401.509766"/>
      <use xlink:href="#DejaVuSans-64" x="429.292969"/>
     </g>
    </g>
   </g>
  </g>
 </g>
 <defs>
  <clipPath id="p49302b96cb">
   <rect x="99" y="25.92" width="613.8" height="163.08"/>
  </clipPath>
 </defs>
</svg>
