<?xml version="1.0" encoding="utf-8" standalone="no"?>
<!DOCTYPE svg PUBLIC "-//W3C//DTD SVG 1.1//EN"
  "http://www.w3.org/Graphics/SVG/1.1/DTD/svg11.dtd">
<svg xmlns:xlink="http://www.w3.org/1999/xlink" width="1008pt" height="360pt" viewBox="0 0 1008 360" xmlns="http://www.w3.org/2000/svg" version="1.1">
 <metadata>
  <rdf:RDF xmlns:dc="http://purl.org/dc/elements/1.1/" xmlns:cc="http://creativecommons.org/ns#" xmlns:rdf="http://www.w3.org/1999/02/22-rdf-syntax-ns#">
   <cc:Work>
    <dc:type rdf:resource="http://purl.org/dc/dcmitype/StillImage"/>
    <dc:date>2022-12-10T15:52:21.030952</dc:date>
    <dc:format>image/svg+xml</dc:format>
    <dc:creator>
     <cc:Agent>
      <dc:title>Matplotlib v3.5.1, https://matplotlib.org/</dc:title>
     </cc:Agent>
    </dc:creator>
   </cc:Work>
  </rdf:RDF>
 </metadata>
 <defs>
  <style type="text/css">*{stroke-linejoin: round; stroke-linecap: butt}</style>
 </defs>
 <g id="figure_1">
  <g id="patch_1">
   <path d="M 0 360 
L 1008 360 
L 1008 0 
L 0 0 
L 0 360 
z
" style="fill: none"/>
  </g>
  <g id="axes_1">
   <g id="patch_2">
    <path d="M 126 315 
L 355.764706 315 
L 355.764706 43.2 
L 126 43.2 
z
" style="fill: #ffffff"/>
   </g>
   <g id="PathCollection_1">
    <defs>
     <path id="medb86e1a1b" d="M 0 2.236068 
C 0.593012 2.236068 1.161816 2.000462 1.581139 1.581139 
C 2.000462 1.161816 2.236068 0.593012 2.236068 0 
C 2.236068 -0.593012 2.000462 -1.161816 1.581139 -1.581139 
C 1.161816 -2.000462 0.593012 -2.236068 0 -2.236068 
C -0.593012 -2.236068 -1.161816 -2.000462 -1.581139 -1.581139 
C -2.000462 -1.161816 -2.236068 -0.593012 -2.236068 0 
C -2.236068 0.593012 -2.000462 1.161816 -1.581139 1.581139 
C -1.161816 2.000462 -0.593012 2.236068 0 2.236068 
z
" style="stroke: #0000ff"/>
    </defs>
    <g clip-path="url(#p532b1ce2ac)">
     <use xlink:href="#medb86e1a1b" x="130.645474" y="105.584338" style="fill: #1f77b4; stroke: #0000ff"/>
     <use xlink:href="#medb86e1a1b" x="142.321579" y="119.964737" style="fill: #1f77b4; stroke: #0000ff"/>
     <use xlink:href="#medb86e1a1b" x="146.019238" y="101.374571" style="fill: #1f77b4; stroke: #0000ff"/>
     <use xlink:href="#medb86e1a1b" x="153.175289" y="131.316166" style="fill: #1f77b4; stroke: #0000ff"/>
     <use xlink:href="#medb86e1a1b" x="158.937526" y="125.76282" style="fill: #1f77b4; stroke: #0000ff"/>
     <use xlink:href="#medb86e1a1b" x="214.101328" y="196.268209" style="fill: #1f77b4; stroke: #0000ff"/>
     <use xlink:href="#medb86e1a1b" x="221.274679" y="194.09389" style="fill: #1f77b4; stroke: #0000ff"/>
     <use xlink:href="#medb86e1a1b" x="223.34092" y="197.171892" style="fill: #1f77b4; stroke: #0000ff"/>
     <use xlink:href="#medb86e1a1b" x="226.542097" y="210.103166" style="fill: #1f77b4; stroke: #0000ff"/>
     <use xlink:href="#medb86e1a1b" x="232.03167" y="215.11481" style="fill: #1f77b4; stroke: #0000ff"/>
     <use xlink:href="#medb86e1a1b" x="245.902326" y="237.864145" style="fill: #1f77b4; stroke: #0000ff"/>
     <use xlink:href="#medb86e1a1b" x="247.521386" y="246.684887" style="fill: #1f77b4; stroke: #0000ff"/>
     <use xlink:href="#medb86e1a1b" x="251.194924" y="238.528121" style="fill: #1f77b4; stroke: #0000ff"/>
     <use xlink:href="#medb86e1a1b" x="252.097973" y="235.775094" style="fill: #1f77b4; stroke: #0000ff"/>
     <use xlink:href="#medb86e1a1b" x="256.516592" y="231.483096" style="fill: #1f77b4; stroke: #0000ff"/>
     <use xlink:href="#medb86e1a1b" x="264.49375" y="235.822066" style="fill: #1f77b4; stroke: #0000ff"/>
     <use xlink:href="#medb86e1a1b" x="273.031265" y="249.142905" style="fill: #1f77b4; stroke: #0000ff"/>
     <use xlink:href="#medb86e1a1b" x="274.403671" y="248.778854" style="fill: #1f77b4; stroke: #0000ff"/>
     <use xlink:href="#medb86e1a1b" x="290.325274" y="252.406281" style="fill: #1f77b4; stroke: #0000ff"/>
     <use xlink:href="#medb86e1a1b" x="304.792957" y="247.534679" style="fill: #1f77b4; stroke: #0000ff"/>
     <use xlink:href="#medb86e1a1b" x="305.338057" y="249.09509" style="fill: #1f77b4; stroke: #0000ff"/>
     <use xlink:href="#medb86e1a1b" x="307.910471" y="222.332455" style="fill: #1f77b4; stroke: #0000ff"/>
     <use xlink:href="#medb86e1a1b" x="309.618432" y="237.693728" style="fill: #1f77b4; stroke: #0000ff"/>
     <use xlink:href="#medb86e1a1b" x="317.306654" y="230.285897" style="fill: #1f77b4; stroke: #0000ff"/>
     <use xlink:href="#medb86e1a1b" x="325.898085" y="226.681169" style="fill: #1f77b4; stroke: #0000ff"/>
     <use xlink:href="#medb86e1a1b" x="330.897961" y="206.989055" style="fill: #1f77b4; stroke: #0000ff"/>
     <use xlink:href="#medb86e1a1b" x="338.669439" y="213.405758" style="fill: #1f77b4; stroke: #0000ff"/>
     <use xlink:href="#medb86e1a1b" x="343.051576" y="198.062886" style="fill: #1f77b4; stroke: #0000ff"/>
     <use xlink:href="#medb86e1a1b" x="347.415691" y="196.76335" style="fill: #1f77b4; stroke: #0000ff"/>
     <use xlink:href="#medb86e1a1b" x="350.851956" y="183.305972" style="fill: #1f77b4; stroke: #0000ff"/>
    </g>
   </g>
   <g id="matplotlib.axis_1">
    <g id="text_1">
     <!-- x -->
     <g transform="translate(237.922978 326.598437)scale(0.1 -0.1)">
      <defs>
       <path id="DejaVuSans-78" d="M 3513 3500 
L 2247 1797 
L 3578 0 
L 2900 0 
L 1881 1375 
L 863 0 
L 184 0 
L 1544 1831 
L 300 3500 
L 978 3500 
L 1906 2253 
L 2834 3500 
L 3513 3500 
z
" transform="scale(0.015625)"/>
      </defs>
      <use xlink:href="#DejaVuSans-78"/>
     </g>
    </g>
   </g>
   <g id="matplotlib.axis_2">
    <g id="text_2">
     <!-- y -->
     <g transform="translate(119.920312 182.059375)rotate(-90)scale(0.1 -0.1)">
      <defs>
       <path id="DejaVuSans-79" d="M 2059 -325 
Q 1816 -950 1584 -1140 
Q 1353 -1331 966 -1331 
L 506 -1331 
L 506 -850 
L 844 -850 
Q 1081 -850 1212 -737 
Q 1344 -625 1503 -206 
L 1606 56 
L 191 3500 
L 800 3500 
L 1894 763 
L 2988 3500 
L 3597 3500 
L 2059 -325 
z
" transform="scale(0.015625)"/>
      </defs>
      <use xlink:href="#DejaVuSans-79"/>
     </g>
    </g>
   </g>
   <g id="line2d_1">
    <path d="M 126 142.632572 
L 128.320856 143.737145 
L 130.641711 144.841718 
L 132.962567 145.946291 
L 135.283422 147.050864 
L 137.604278 148.155437 
L 139.925134 149.26001 
L 142.245989 150.364583 
L 144.566845 151.469156 
L 146.887701 152.573729 
L 149.208556 153.678302 
L 151.529412 154.782876 
L 153.850267 155.887449 
L 156.171123 156.992022 
L 158.491979 158.096595 
L 160.812834 159.201168 
L 163.13369 160.305741 
L 165.454545 161.410314 
L 167.775401 162.514887 
L 170.096257 163.61946 
L 172.417112 164.724033 
L 174.737968 165.828607 
L 177.058824 166.93318 
L 179.379679 168.037753 
L 181.700535 169.142326 
L 184.02139 170.246899 
L 186.342246 171.351472 
L 188.663102 172.456045 
L 190.983957 173.560618 
L 193.304813 174.665191 
L 195.625668 175.769764 
L 197.946524 176.874337 
L 200.26738 177.978911 
L 202.588235 179.083484 
L 204.909091 180.188057 
L 207.229947 181.29263 
L 209.550802 182.397203 
L 211.871658 183.501776 
L 214.192513 184.606349 
L 216.513369 185.710922 
L 218.834225 186.815495 
L 221.15508 187.920068 
L 223.475936 189.024641 
L 225.796791 190.129215 
L 228.117647 191.233788 
L 230.438503 192.338361 
L 232.759358 193.442934 
L 235.080214 194.547507 
L 237.40107 195.65208 
L 239.721925 196.756653 
L 242.042781 197.861226 
L 244.363636 198.965799 
L 246.684492 200.070372 
L 249.005348 201.174945 
L 251.326203 202.279519 
L 253.647059 203.384092 
L 255.967914 204.488665 
L 258.28877 205.593238 
L 260.609626 206.697811 
L 262.930481 207.802384 
L 265.251337 208.906957 
L 267.572193 210.01153 
L 269.893048 211.116103 
L 272.213904 212.220676 
L 274.534759 213.32525 
L 276.855615 214.429823 
L 279.176471 215.534396 
L 281.497326 216.638969 
L 283.818182 217.743542 
L 286.139037 218.848115 
L 288.459893 219.952688 
L 290.780749 221.057261 
L 293.101604 222.161834 
L 295.42246 223.266407 
L 297.743316 224.37098 
L 300.064171 225.475554 
L 302.385027 226.580127 
L 304.705882 227.6847 
L 307.026738 228.789273 
L 309.347594 229.893846 
L 311.668449 230.998419 
L 313.989305 232.102992 
L 316.31016 233.207565 
L 318.631016 234.312138 
L 320.951872 235.416711 
L 323.272727 236.521284 
L 325.593583 237.625858 
L 327.914439 238.730431 
L 330.235294 239.835004 
L 332.55615 240.939577 
L 334.877005 242.04415 
L 337.197861 243.148723 
L 339.518717 244.253296 
L 341.839572 245.357869 
L 344.160428 246.462442 
L 346.481283 247.567015 
L 348.802139 248.671589 
L 351.122995 249.776162 
L 353.44385 250.880735 
L 355.764706 251.985308 
" clip-path="url(#p532b1ce2ac)" style="fill: none; stroke: #1f77b4; stroke-width: 1.5; stroke-linecap: square"/>
   </g>
   <g id="line2d_2">
    <path d="M 126 111.15 
L 128.320856 111.226964 
L 130.641711 111.457683 
L 132.962567 111.841633 
L 135.283422 112.377945 
L 137.604278 113.065404 
L 139.925134 113.902452 
L 142.245989 114.887194 
L 144.566845 116.017399 
L 146.887701 117.290506 
L 149.208556 118.703631 
L 151.529412 120.253574 
L 153.850267 121.936822 
L 156.171123 123.749564 
L 158.491979 125.687692 
L 160.812834 127.746816 
L 163.13369 129.922272 
L 165.454545 132.209131 
L 167.775401 134.602213 
L 170.096257 137.096097 
L 172.417112 139.685133 
L 174.737968 142.363456 
L 177.058824 145.125 
L 179.379679 147.963508 
L 181.700535 150.87255 
L 184.02139 153.845536 
L 186.342246 156.875732 
L 188.663102 159.956273 
L 190.983957 163.08018 
L 193.304813 166.240378 
L 195.625668 169.429707 
L 197.946524 172.640942 
L 200.26738 175.866809 
L 202.588235 179.1 
L 204.909091 182.333191 
L 207.229947 185.559058 
L 209.550802 188.770293 
L 211.871658 191.959622 
L 214.192513 195.11982 
L 216.513369 198.243727 
L 218.834225 201.324268 
L 221.15508 204.354464 
L 223.475936 207.32745 
L 225.796791 210.236492 
L 228.117647 213.075 
L 230.438503 215.836544 
L 232.759358 218.514867 
L 235.080214 221.103903 
L 237.40107 223.597787 
L 239.721925 225.990869 
L 242.042781 228.277728 
L 244.363636 230.453184 
L 246.684492 232.512308 
L 249.005348 234.450436 
L 251.326203 236.263178 
L 253.647059 237.946426 
L 255.967914 239.496369 
L 258.28877 240.909494 
L 260.609626 242.182601 
L 262.930481 243.312806 
L 265.251337 244.297548 
L 267.572193 245.134596 
L 269.893048 245.822055 
L 272.213904 246.358367 
L 274.534759 246.742317 
L 276.855615 246.973036 
L 279.176471 247.05 
L 281.497326 246.973036 
L 283.818182 246.742317 
L 286.139037 246.358367 
L 288.459893 245.822055 
L 290.780749 245.134596 
L 293.101604 244.297548 
L 295.42246 243.312806 
L 297.743316 242.182601 
L 300.064171 240.909494 
L 302.385027 239.496369 
L 304.705882 237.946426 
L 307.026738 236.263178 
L 309.347594 234.450436 
L 311.668449 232.512308 
L 313.989305 230.453184 
L 316.31016 228.277728 
L 318.631016 225.990869 
L 320.951872 223.597787 
L 323.272727 221.103903 
L 325.593583 218.514867 
L 327.914439 215.836544 
L 330.235294 213.075 
L 332.55615 210.236492 
L 334.877005 207.32745 
L 337.197861 204.354464 
L 339.518717 201.324268 
L 341.839572 198.243727 
L 344.160428 195.11982 
L 346.481283 191.959622 
L 348.802139 188.770293 
L 351.122995 185.559058 
L 353.44385 182.333191 
L 355.764706 179.1 
" clip-path="url(#p532b1ce2ac)" style="fill: none; stroke-dasharray: 5.55,2.4; stroke-dashoffset: 0; stroke: #ff7f0e; stroke-width: 1.5"/>
   </g>
   <g id="patch_3">
    <path d="M 126 315 
L 126 43.2 
" style="fill: none; stroke: #000000; stroke-width: 0.8; stroke-linejoin: miter; stroke-linecap: square"/>
   </g>
   <g id="patch_4">
    <path d="M 355.764706 315 
L 355.764706 43.2 
" style="fill: none; stroke: #000000; stroke-width: 0.8; stroke-linejoin: miter; stroke-linecap: square"/>
   </g>
   <g id="patch_5">
    <path d="M 126 315 
L 355.764706 315 
" style="fill: none; stroke: #000000; stroke-width: 0.8; stroke-linejoin: miter; stroke-linecap: square"/>
   </g>
   <g id="patch_6">
    <path d="M 126 43.2 
L 355.764706 43.2 
" style="fill: none; stroke: #000000; stroke-width: 0.8; stroke-linejoin: miter; stroke-linecap: square"/>
   </g>
   <g id="text_3">
    <!-- Subajuste -->
    <g transform="translate(211.14579 37.2)scale(0.12 -0.12)">
     <defs>
      <path id="DejaVuSans-53" d="M 3425 4513 
L 3425 3897 
Q 3066 4069 2747 4153 
Q 2428 4238 2131 4238 
Q 1616 4238 1336 4038 
Q 1056 3838 1056 3469 
Q 1056 3159 1242 3001 
Q 1428 2844 1947 2747 
L 2328 2669 
Q 3034 2534 3370 2195 
Q 3706 1856 3706 1288 
Q 3706 609 3251 259 
Q 2797 -91 1919 -91 
Q 1588 -91 1214 -16 
Q 841 59 441 206 
L 441 856 
Q 825 641 1194 531 
Q 1563 422 1919 422 
Q 2459 422 2753 634 
Q 3047 847 3047 1241 
Q 3047 1584 2836 1778 
Q 2625 1972 2144 2069 
L 1759 2144 
Q 1053 2284 737 2584 
Q 422 2884 422 3419 
Q 422 4038 858 4394 
Q 1294 4750 2059 4750 
Q 2388 4750 2728 4690 
Q 3069 4631 3425 4513 
z
" transform="scale(0.015625)"/>
      <path id="DejaVuSans-75" d="M 544 1381 
L 544 3500 
L 1119 3500 
L 1119 1403 
Q 1119 906 1312 657 
Q 1506 409 1894 409 
Q 2359 409 2629 706 
Q 2900 1003 2900 1516 
L 2900 3500 
L 3475 3500 
L 3475 0 
L 2900 0 
L 2900 538 
Q 2691 219 2414 64 
Q 2138 -91 1772 -91 
Q 1169 -91 856 284 
Q 544 659 544 1381 
z
M 1991 3584 
L 1991 3584 
z
" transform="scale(0.015625)"/>
      <path id="DejaVuSans-62" d="M 3116 1747 
Q 3116 2381 2855 2742 
Q 2594 3103 2138 3103 
Q 1681 3103 1420 2742 
Q 1159 2381 1159 1747 
Q 1159 1113 1420 752 
Q 1681 391 2138 391 
Q 2594 391 2855 752 
Q 3116 1113 3116 1747 
z
M 1159 2969 
Q 1341 3281 1617 3432 
Q 1894 3584 2278 3584 
Q 2916 3584 3314 3078 
Q 3713 2572 3713 1747 
Q 3713 922 3314 415 
Q 2916 -91 2278 -91 
Q 1894 -91 1617 61 
Q 1341 213 1159 525 
L 1159 0 
L 581 0 
L 581 4863 
L 1159 4863 
L 1159 2969 
z
" transform="scale(0.015625)"/>
      <path id="DejaVuSans-61" d="M 2194 1759 
Q 1497 1759 1228 1600 
Q 959 1441 959 1056 
Q 959 750 1161 570 
Q 1363 391 1709 391 
Q 2188 391 2477 730 
Q 2766 1069 2766 1631 
L 2766 1759 
L 2194 1759 
z
M 3341 1997 
L 3341 0 
L 2766 0 
L 2766 531 
Q 2569 213 2275 61 
Q 1981 -91 1556 -91 
Q 1019 -91 701 211 
Q 384 513 384 1019 
Q 384 1609 779 1909 
Q 1175 2209 1959 2209 
L 2766 2209 
L 2766 2266 
Q 2766 2663 2505 2880 
Q 2244 3097 1772 3097 
Q 1472 3097 1187 3025 
Q 903 2953 641 2809 
L 641 3341 
Q 956 3463 1253 3523 
Q 1550 3584 1831 3584 
Q 2591 3584 2966 3190 
Q 3341 2797 3341 1997 
z
" transform="scale(0.015625)"/>
      <path id="DejaVuSans-6a" d="M 603 3500 
L 1178 3500 
L 1178 -63 
Q 1178 -731 923 -1031 
Q 669 -1331 103 -1331 
L -116 -1331 
L -116 -844 
L 38 -844 
Q 366 -844 484 -692 
Q 603 -541 603 -63 
L 603 3500 
z
M 603 4863 
L 1178 4863 
L 1178 4134 
L 603 4134 
L 603 4863 
z
" transform="scale(0.015625)"/>
      <path id="DejaVuSans-73" d="M 2834 3397 
L 2834 2853 
Q 2591 2978 2328 3040 
Q 2066 3103 1784 3103 
Q 1356 3103 1142 2972 
Q 928 2841 928 2578 
Q 928 2378 1081 2264 
Q 1234 2150 1697 2047 
L 1894 2003 
Q 2506 1872 2764 1633 
Q 3022 1394 3022 966 
Q 3022 478 2636 193 
Q 2250 -91 1575 -91 
Q 1294 -91 989 -36 
Q 684 19 347 128 
L 347 722 
Q 666 556 975 473 
Q 1284 391 1588 391 
Q 1994 391 2212 530 
Q 2431 669 2431 922 
Q 2431 1156 2273 1281 
Q 2116 1406 1581 1522 
L 1381 1569 
Q 847 1681 609 1914 
Q 372 2147 372 2553 
Q 372 3047 722 3315 
Q 1072 3584 1716 3584 
Q 2034 3584 2315 3537 
Q 2597 3491 2834 3397 
z
" transform="scale(0.015625)"/>
      <path id="DejaVuSans-74" d="M 1172 4494 
L 1172 3500 
L 2356 3500 
L 2356 3053 
L 1172 3053 
L 1172 1153 
Q 1172 725 1289 603 
Q 1406 481 1766 481 
L 2356 481 
L 2356 0 
L 1766 0 
Q 1100 0 847 248 
Q 594 497 594 1153 
L 594 3053 
L 172 3053 
L 172 3500 
L 594 3500 
L 594 4494 
L 1172 4494 
z
" transform="scale(0.015625)"/>
      <path id="DejaVuSans-65" d="M 3597 1894 
L 3597 1613 
L 953 1613 
Q 991 1019 1311 708 
Q 1631 397 2203 397 
Q 2534 397 2845 478 
Q 3156 559 3463 722 
L 3463 178 
Q 3153 47 2828 -22 
Q 2503 -91 2169 -91 
Q 1331 -91 842 396 
Q 353 884 353 1716 
Q 353 2575 817 3079 
Q 1281 3584 2069 3584 
Q 2775 3584 3186 3129 
Q 3597 2675 3597 1894 
z
M 3022 2063 
Q 3016 2534 2758 2815 
Q 2500 3097 2075 3097 
Q 1594 3097 1305 2825 
Q 1016 2553 972 2059 
L 3022 2063 
z
" transform="scale(0.015625)"/>
     </defs>
     <use xlink:href="#DejaVuSans-53"/>
     <use xlink:href="#DejaVuSans-75" x="63.476562"/>
     <use xlink:href="#DejaVuSans-62" x="126.855469"/>
     <use xlink:href="#DejaVuSans-61" x="190.332031"/>
     <use xlink:href="#DejaVuSans-6a" x="251.611328"/>
     <use xlink:href="#DejaVuSans-75" x="279.394531"/>
     <use xlink:href="#DejaVuSans-73" x="342.773438"/>
     <use xlink:href="#DejaVuSans-74" x="394.873047"/>
     <use xlink:href="#DejaVuSans-65" x="434.082031"/>
    </g>
   </g>
   <g id="legend_1">
    <g id="patch_7">
     <path d="M 256.031893 95.234375 
L 348.764706 95.234375 
Q 350.764706 95.234375 350.764706 93.234375 
L 350.764706 50.2 
Q 350.764706 48.2 348.764706 48.2 
L 256.031893 48.2 
Q 254.031893 48.2 254.031893 50.2 
L 254.031893 93.234375 
Q 254.031893 95.234375 256.031893 95.234375 
z
" style="fill: #ffffff; opacity: 0.8; stroke: #cccccc; stroke-linejoin: miter"/>
    </g>
    <g id="line2d_3">
     <path d="M 258.031893 56.298437 
L 268.031893 56.298437 
L 278.031893 56.298437 
" style="fill: none; stroke: #1f77b4; stroke-width: 1.5; stroke-linecap: square"/>
    </g>
    <g id="text_4">
     <!-- Modelo -->
     <g transform="translate(286.031893 59.798437)scale(0.1 -0.1)">
      <defs>
       <path id="DejaVuSans-4d" d="M 628 4666 
L 1569 4666 
L 2759 1491 
L 3956 4666 
L 4897 4666 
L 4897 0 
L 4281 0 
L 4281 4097 
L 3078 897 
L 2444 897 
L 1241 4097 
L 1241 0 
L 628 0 
L 628 4666 
z
" transform="scale(0.015625)"/>
       <path id="DejaVuSans-6f" d="M 1959 3097 
Q 1497 3097 1228 2736 
Q 959 2375 959 1747 
Q 959 1119 1226 758 
Q 1494 397 1959 397 
Q 2419 397 2687 759 
Q 2956 1122 2956 1747 
Q 2956 2369 2687 2733 
Q 2419 3097 1959 3097 
z
M 1959 3584 
Q 2709 3584 3137 3096 
Q 3566 2609 3566 1747 
Q 3566 888 3137 398 
Q 2709 -91 1959 -91 
Q 1206 -91 779 398 
Q 353 888 353 1747 
Q 353 2609 779 3096 
Q 1206 3584 1959 3584 
z
" transform="scale(0.015625)"/>
       <path id="DejaVuSans-64" d="M 2906 2969 
L 2906 4863 
L 3481 4863 
L 3481 0 
L 2906 0 
L 2906 525 
Q 2725 213 2448 61 
Q 2172 -91 1784 -91 
Q 1150 -91 751 415 
Q 353 922 353 1747 
Q 353 2572 751 3078 
Q 1150 3584 1784 3584 
Q 2172 3584 2448 3432 
Q 2725 3281 2906 2969 
z
M 947 1747 
Q 947 1113 1208 752 
Q 1469 391 1925 391 
Q 2381 391 2643 752 
Q 2906 1113 2906 1747 
Q 2906 2381 2643 2742 
Q 2381 3103 1925 3103 
Q 1469 3103 1208 2742 
Q 947 2381 947 1747 
z
" transform="scale(0.015625)"/>
       <path id="DejaVuSans-6c" d="M 603 4863 
L 1178 4863 
L 1178 0 
L 603 0 
L 603 4863 
z
" transform="scale(0.015625)"/>
      </defs>
      <use xlink:href="#DejaVuSans-4d"/>
      <use xlink:href="#DejaVuSans-6f" x="86.279297"/>
      <use xlink:href="#DejaVuSans-64" x="147.460938"/>
      <use xlink:href="#DejaVuSans-65" x="210.9375"/>
      <use xlink:href="#DejaVuSans-6c" x="272.460938"/>
      <use xlink:href="#DejaVuSans-6f" x="300.244141"/>
     </g>
    </g>
    <g id="line2d_4">
     <path d="M 258.031893 70.976562 
L 268.031893 70.976562 
L 278.031893 70.976562 
" style="fill: none; stroke-dasharray: 5.55,2.4; stroke-dashoffset: 0; stroke: #ff7f0e; stroke-width: 1.5"/>
    </g>
    <g id="text_5">
     <!-- Función real -->
     <g transform="translate(286.031893 74.476562)scale(0.1 -0.1)">
      <defs>
       <path id="DejaVuSans-46" d="M 628 4666 
L 3309 4666 
L 3309 4134 
L 1259 4134 
L 1259 2759 
L 3109 2759 
L 3109 2228 
L 1259 2228 
L 1259 0 
L 628 0 
L 628 4666 
z
" transform="scale(0.015625)"/>
       <path id="DejaVuSans-6e" d="M 3513 2113 
L 3513 0 
L 2938 0 
L 2938 2094 
Q 2938 2591 2744 2837 
Q 2550 3084 2163 3084 
Q 1697 3084 1428 2787 
Q 1159 2491 1159 1978 
L 1159 0 
L 581 0 
L 581 3500 
L 1159 3500 
L 1159 2956 
Q 1366 3272 1645 3428 
Q 1925 3584 2291 3584 
Q 2894 3584 3203 3211 
Q 3513 2838 3513 2113 
z
" transform="scale(0.015625)"/>
       <path id="DejaVuSans-63" d="M 3122 3366 
L 3122 2828 
Q 2878 2963 2633 3030 
Q 2388 3097 2138 3097 
Q 1578 3097 1268 2742 
Q 959 2388 959 1747 
Q 959 1106 1268 751 
Q 1578 397 2138 397 
Q 2388 397 2633 464 
Q 2878 531 3122 666 
L 3122 134 
Q 2881 22 2623 -34 
Q 2366 -91 2075 -91 
Q 1284 -91 818 406 
Q 353 903 353 1747 
Q 353 2603 823 3093 
Q 1294 3584 2113 3584 
Q 2378 3584 2631 3529 
Q 2884 3475 3122 3366 
z
" transform="scale(0.015625)"/>
       <path id="DejaVuSans-69" d="M 603 3500 
L 1178 3500 
L 1178 0 
L 603 0 
L 603 3500 
z
M 603 4863 
L 1178 4863 
L 1178 4134 
L 603 4134 
L 603 4863 
z
" transform="scale(0.015625)"/>
       <path id="DejaVuSans-f3" d="M 1959 3097 
Q 1497 3097 1228 2736 
Q 959 2375 959 1747 
Q 959 1119 1226 758 
Q 1494 397 1959 397 
Q 2419 397 2687 759 
Q 2956 1122 2956 1747 
Q 2956 2369 2687 2733 
Q 2419 3097 1959 3097 
z
M 1959 3584 
Q 2709 3584 3137 3096 
Q 3566 2609 3566 1747 
Q 3566 888 3137 398 
Q 2709 -91 1959 -91 
Q 1206 -91 779 398 
Q 353 888 353 1747 
Q 353 2609 779 3096 
Q 1206 3584 1959 3584 
z
M 2394 5119 
L 3016 5119 
L 1997 3944 
L 1519 3944 
L 2394 5119 
z
" transform="scale(0.015625)"/>
       <path id="DejaVuSans-20" transform="scale(0.015625)"/>
       <path id="DejaVuSans-72" d="M 2631 2963 
Q 2534 3019 2420 3045 
Q 2306 3072 2169 3072 
Q 1681 3072 1420 2755 
Q 1159 2438 1159 1844 
L 1159 0 
L 581 0 
L 581 3500 
L 1159 3500 
L 1159 2956 
Q 1341 3275 1631 3429 
Q 1922 3584 2338 3584 
Q 2397 3584 2469 3576 
Q 2541 3569 2628 3553 
L 2631 2963 
z
" transform="scale(0.015625)"/>
      </defs>
      <use xlink:href="#DejaVuSans-46"/>
      <use xlink:href="#DejaVuSans-75" x="52.019531"/>
      <use xlink:href="#DejaVuSans-6e" x="115.398438"/>
      <use xlink:href="#DejaVuSans-63" x="178.777344"/>
      <use xlink:href="#DejaVuSans-69" x="233.757812"/>
      <use xlink:href="#DejaVuSans-f3" x="261.541016"/>
      <use xlink:href="#DejaVuSans-6e" x="322.722656"/>
      <use xlink:href="#DejaVuSans-20" x="386.101562"/>
      <use xlink:href="#DejaVuSans-72" x="417.888672"/>
      <use xlink:href="#DejaVuSans-65" x="456.751953"/>
      <use xlink:href="#DejaVuSans-61" x="518.275391"/>
      <use xlink:href="#DejaVuSans-6c" x="579.554688"/>
     </g>
    </g>
    <g id="PathCollection_2">
     <g>
      <use xlink:href="#medb86e1a1b" x="268.031893" y="86.529687" style="fill: #1f77b4; stroke: #0000ff"/>
     </g>
    </g>
    <g id="text_6">
     <!-- Muestras -->
     <g transform="translate(286.031893 89.154687)scale(0.1 -0.1)">
      <use xlink:href="#DejaVuSans-4d"/>
      <use xlink:href="#DejaVuSans-75" x="86.279297"/>
      <use xlink:href="#DejaVuSans-65" x="149.658203"/>
      <use xlink:href="#DejaVuSans-73" x="211.181641"/>
      <use xlink:href="#DejaVuSans-74" x="263.28125"/>
      <use xlink:href="#DejaVuSans-72" x="302.490234"/>
      <use xlink:href="#DejaVuSans-61" x="343.603516"/>
      <use xlink:href="#DejaVuSans-73" x="404.882812"/>
     </g>
    </g>
   </g>
  </g>
  <g id="axes_2">
   <g id="patch_8">
    <path d="M 401.717647 315 
L 631.482353 315 
L 631.482353 43.2 
L 401.717647 43.2 
z
" style="fill: #ffffff"/>
   </g>
   <g id="PathCollection_3">
    <g clip-path="url(#p188b1bd993)">
     <use xlink:href="#medb86e1a1b" x="406.363121" y="105.584338" style="fill: #1f77b4; stroke: #0000ff"/>
     <use xlink:href="#medb86e1a1b" x="418.039226" y="119.964737" style="fill: #1f77b4; stroke: #0000ff"/>
     <use xlink:href="#medb86e1a1b" x="421.736885" y="101.374571" style="fill: #1f77b4; stroke: #0000ff"/>
     <use xlink:href="#medb86e1a1b" x="428.892936" y="131.316166" style="fill: #1f77b4; stroke: #0000ff"/>
     <use xlink:href="#medb86e1a1b" x="434.655173" y="125.76282" style="fill: #1f77b4; stroke: #0000ff"/>
     <use xlink:href="#medb86e1a1b" x="489.818975" y="196.268209" style="fill: #1f77b4; stroke: #0000ff"/>
     <use xlink:href="#medb86e1a1b" x="496.992326" y="194.09389" style="fill: #1f77b4; stroke: #0000ff"/>
     <use xlink:href="#medb86e1a1b" x="499.058567" y="197.171892" style="fill: #1f77b4; stroke: #0000ff"/>
     <use xlink:href="#medb86e1a1b" x="502.259744" y="210.103166" style="fill: #1f77b4; stroke: #0000ff"/>
     <use xlink:href="#medb86e1a1b" x="507.749317" y="215.11481" style="fill: #1f77b4; stroke: #0000ff"/>
     <use xlink:href="#medb86e1a1b" x="521.619973" y="237.864145" style="fill: #1f77b4; stroke: #0000ff"/>
     <use xlink:href="#medb86e1a1b" x="523.239033" y="246.684887" style="fill: #1f77b4; stroke: #0000ff"/>
     <use xlink:href="#medb86e1a1b" x="526.912571" y="238.528121" style="fill: #1f77b4; stroke: #0000ff"/>
     <use xlink:href="#medb86e1a1b" x="527.81562" y="235.775094" style="fill: #1f77b4; stroke: #0000ff"/>
     <use xlink:href="#medb86e1a1b" x="532.234239" y="231.483096" style="fill: #1f77b4; stroke: #0000ff"/>
     <use xlink:href="#medb86e1a1b" x="540.211397" y="235.822066" style="fill: #1f77b4; stroke: #0000ff"/>
     <use xlink:href="#medb86e1a1b" x="548.748912" y="249.142905" style="fill: #1f77b4; stroke: #0000ff"/>
     <use xlink:href="#medb86e1a1b" x="550.121318" y="248.778854" style="fill: #1f77b4; stroke: #0000ff"/>
     <use xlink:href="#medb86e1a1b" x="566.042921" y="252.406281" style="fill: #1f77b4; stroke: #0000ff"/>
     <use xlink:href="#medb86e1a1b" x="580.510604" y="247.534679" style="fill: #1f77b4; stroke: #0000ff"/>
     <use xlink:href="#medb86e1a1b" x="581.055704" y="249.09509" style="fill: #1f77b4; stroke: #0000ff"/>
     <use xlink:href="#medb86e1a1b" x="583.628118" y="222.332455" style="fill: #1f77b4; stroke: #0000ff"/>
     <use xlink:href="#medb86e1a1b" x="585.33608" y="237.693728" style="fill: #1f77b4; stroke: #0000ff"/>
     <use xlink:href="#medb86e1a1b" x="593.024301" y="230.285897" style="fill: #1f77b4; stroke: #0000ff"/>
     <use xlink:href="#medb86e1a1b" x="601.615732" y="226.681169" style="fill: #1f77b4; stroke: #0000ff"/>
     <use xlink:href="#medb86e1a1b" x="606.615608" y="206.989055" style="fill: #1f77b4; stroke: #0000ff"/>
     <use xlink:href="#medb86e1a1b" x="614.387086" y="213.405758" style="fill: #1f77b4; stroke: #0000ff"/>
     <use xlink:href="#medb86e1a1b" x="618.769223" y="198.062886" style="fill: #1f77b4; stroke: #0000ff"/>
     <use xlink:href="#medb86e1a1b" x="623.133338" y="196.76335" style="fill: #1f77b4; stroke: #0000ff"/>
     <use xlink:href="#medb86e1a1b" x="626.569603" y="183.305972" style="fill: #1f77b4; stroke: #0000ff"/>
    </g>
   </g>
   <g id="matplotlib.axis_3">
    <g id="text_7">
     <!-- x -->
     <g transform="translate(513.640625 326.598437)scale(0.1 -0.1)">
      <use xlink:href="#DejaVuSans-78"/>
     </g>
    </g>
   </g>
   <g id="matplotlib.axis_4">
    <g id="text_8">
     <!-- y -->
     <g transform="translate(395.63796 182.059375)rotate(-90)scale(0.1 -0.1)">
      <use xlink:href="#DejaVuSans-79"/>
     </g>
    </g>
   </g>
   <g id="line2d_5">
    <path d="M 401.717647 109.038443 
L 404.038503 108.839227 
L 406.359358 108.876838 
L 408.680214 109.141549 
L 411.00107 109.623753 
L 413.321925 110.313971 
L 415.642781 111.202842 
L 417.963636 112.281134 
L 420.284492 113.539732 
L 422.605348 114.96965 
L 424.926203 116.562023 
L 427.247059 118.308107 
L 429.567914 120.199286 
L 431.88877 122.227063 
L 434.209626 124.383067 
L 436.530481 126.65905 
L 438.851337 129.046885 
L 441.172193 131.538572 
L 443.493048 134.126231 
L 445.813904 136.802106 
L 448.134759 139.558567 
L 450.455615 142.388104 
L 452.776471 145.283331 
L 455.097326 148.236987 
L 457.418182 151.241932 
L 459.739037 154.291152 
L 462.059893 157.377753 
L 464.380749 160.494967 
L 466.701604 163.636149 
L 469.02246 166.794775 
L 471.343316 169.964447 
L 473.664171 173.138889 
L 475.985027 176.311948 
L 478.305882 179.477596 
L 480.626738 182.629927 
L 482.947594 185.763157 
L 485.268449 188.871629 
L 487.589305 191.949805 
L 489.91016 194.992273 
L 492.231016 197.993745 
L 494.551872 200.949053 
L 496.872727 203.853155 
L 499.193583 206.701132 
L 501.514439 209.488187 
L 503.835294 212.209649 
L 506.15615 214.860966 
L 508.477005 217.437713 
L 510.797861 219.935588 
L 513.118717 222.35041 
L 515.439572 224.678123 
L 517.760428 226.914794 
L 520.081283 229.056614 
L 522.402139 231.099895 
L 524.722995 233.041076 
L 527.04385 234.876715 
L 529.364706 236.603497 
L 531.685561 238.218229 
L 534.006417 239.71784 
L 536.327273 241.099383 
L 538.648128 242.360037 
L 540.968984 243.4971 
L 543.28984 244.507996 
L 545.610695 245.390271 
L 547.931551 246.141596 
L 550.252406 246.759763 
L 552.573262 247.24269 
L 554.894118 247.588415 
L 557.214973 247.795103 
L 559.535829 247.861039 
L 561.856684 247.784633 
L 564.17754 247.564418 
L 566.498396 247.199051 
L 568.819251 246.687312 
L 571.140107 246.028102 
L 573.460963 245.220449 
L 575.781818 244.263501 
L 578.102674 243.156533 
L 580.423529 241.898939 
L 582.744385 240.490239 
L 585.065241 238.930077 
L 587.386096 237.218218 
L 589.706952 235.354551 
L 592.027807 233.339089 
L 594.348663 231.171968 
L 596.669519 228.853448 
L 598.990374 226.38391 
L 601.31123 223.763861 
L 603.632086 220.99393 
L 605.952941 218.074869 
L 608.273797 215.007555 
L 610.594652 211.792985 
L 612.915508 208.432283 
L 615.236364 204.926694 
L 617.557219 201.277587 
L 619.878075 197.486455 
L 622.19893 193.554913 
L 624.519786 189.484699 
L 626.840642 185.277677 
L 629.161497 180.935831 
L 631.482353 176.46127 
" clip-path="url(#p188b1bd993)" style="fill: none; stroke: #1f77b4; stroke-width: 1.5; stroke-linecap: square"/>
   </g>
   <g id="line2d_6">
    <path d="M 401.717647 111.15 
L 404.038503 111.226964 
L 406.359358 111.457683 
L 408.680214 111.841633 
L 411.00107 112.377945 
L 413.321925 113.065404 
L 415.642781 113.902452 
L 417.963636 114.887194 
L 420.284492 116.017399 
L 422.605348 117.290506 
L 424.926203 118.703631 
L 427.247059 120.253574 
L 429.567914 121.936822 
L 431.88877 123.749564 
L 434.209626 125.687692 
L 436.530481 127.746816 
L 438.851337 129.922272 
L 441.172193 132.209131 
L 443.493048 134.602213 
L 445.813904 137.096097 
L 448.134759 139.685133 
L 450.455615 142.363456 
L 452.776471 145.125 
L 455.097326 147.963508 
L 457.418182 150.87255 
L 459.739037 153.845536 
L 462.059893 156.875732 
L 464.380749 159.956273 
L 466.701604 163.08018 
L 469.02246 166.240378 
L 471.343316 169.429707 
L 473.664171 172.640942 
L 475.985027 175.866809 
L 478.305882 179.1 
L 480.626738 182.333191 
L 482.947594 185.559058 
L 485.268449 188.770293 
L 487.589305 191.959622 
L 489.91016 195.11982 
L 492.231016 198.243727 
L 494.551872 201.324268 
L 496.872727 204.354464 
L 499.193583 207.32745 
L 501.514439 210.236492 
L 503.835294 213.075 
L 506.15615 215.836544 
L 508.477005 218.514867 
L 510.797861 221.103903 
L 513.118717 223.597787 
L 515.439572 225.990869 
L 517.760428 228.277728 
L 520.081283 230.453184 
L 522.402139 232.512308 
L 524.722995 234.450436 
L 527.04385 236.263178 
L 529.364706 237.946426 
L 531.685561 239.496369 
L 534.006417 240.909494 
L 536.327273 242.182601 
L 538.648128 243.312806 
L 540.968984 244.297548 
L 543.28984 245.134596 
L 545.610695 245.822055 
L 547.931551 246.358367 
L 550.252406 246.742317 
L 552.573262 246.973036 
L 554.894118 247.05 
L 557.214973 246.973036 
L 559.535829 246.742317 
L 561.856684 246.358367 
L 564.17754 245.822055 
L 566.498396 245.134596 
L 568.819251 244.297548 
L 571.140107 243.312806 
L 573.460963 242.182601 
L 575.781818 240.909494 
L 578.102674 239.496369 
L 580.423529 237.946426 
L 582.744385 236.263178 
L 585.065241 234.450436 
L 587.386096 232.512308 
L 589.706952 230.453184 
L 592.027807 228.277728 
L 594.348663 225.990869 
L 596.669519 223.597787 
L 598.990374 221.103903 
L 601.31123 218.514867 
L 603.632086 215.836544 
L 605.952941 213.075 
L 608.273797 210.236492 
L 610.594652 207.32745 
L 612.915508 204.354464 
L 615.236364 201.324268 
L 617.557219 198.243727 
L 619.878075 195.11982 
L 622.19893 191.959622 
L 624.519786 188.770293 
L 626.840642 185.559058 
L 629.161497 182.333191 
L 631.482353 179.1 
" clip-path="url(#p188b1bd993)" style="fill: none; stroke-dasharray: 5.55,2.4; stroke-dashoffset: 0; stroke: #ff7f0e; stroke-width: 1.5"/>
   </g>
   <g id="patch_9">
    <path d="M 401.717647 315 
L 401.717647 43.2 
" style="fill: none; stroke: #000000; stroke-width: 0.8; stroke-linejoin: miter; stroke-linecap: square"/>
   </g>
   <g id="patch_10">
    <path d="M 631.482353 315 
L 631.482353 43.2 
" style="fill: none; stroke: #000000; stroke-width: 0.8; stroke-linejoin: miter; stroke-linecap: square"/>
   </g>
   <g id="patch_11">
    <path d="M 401.717647 315 
L 631.482353 315 
" style="fill: none; stroke: #000000; stroke-width: 0.8; stroke-linejoin: miter; stroke-linecap: square"/>
   </g>
   <g id="patch_12">
    <path d="M 401.717647 43.2 
L 631.482353 43.2 
" style="fill: none; stroke: #000000; stroke-width: 0.8; stroke-linejoin: miter; stroke-linecap: square"/>
   </g>
   <g id="text_9">
    <!-- Ajuste "valido" -->
    <g transform="translate(472.3875 37.2)scale(0.12 -0.12)">
     <defs>
      <path id="DejaVuSans-41" d="M 2188 4044 
L 1331 1722 
L 3047 1722 
L 2188 4044 
z
M 1831 4666 
L 2547 4666 
L 4325 0 
L 3669 0 
L 3244 1197 
L 1141 1197 
L 716 0 
L 50 0 
L 1831 4666 
z
" transform="scale(0.015625)"/>
      <path id="DejaVuSans-22" d="M 1147 4666 
L 1147 2931 
L 616 2931 
L 616 4666 
L 1147 4666 
z
M 2328 4666 
L 2328 2931 
L 1797 2931 
L 1797 4666 
L 2328 4666 
z
" transform="scale(0.015625)"/>
      <path id="DejaVuSans-76" d="M 191 3500 
L 800 3500 
L 1894 563 
L 2988 3500 
L 3597 3500 
L 2284 0 
L 1503 0 
L 191 3500 
z
" transform="scale(0.015625)"/>
     </defs>
     <use xlink:href="#DejaVuSans-41"/>
     <use xlink:href="#DejaVuSans-6a" x="68.408203"/>
     <use xlink:href="#DejaVuSans-75" x="96.191406"/>
     <use xlink:href="#DejaVuSans-73" x="159.570312"/>
     <use xlink:href="#DejaVuSans-74" x="211.669922"/>
     <use xlink:href="#DejaVuSans-65" x="250.878906"/>
     <use xlink:href="#DejaVuSans-20" x="312.402344"/>
     <use xlink:href="#DejaVuSans-22" x="344.189453"/>
     <use xlink:href="#DejaVuSans-76" x="390.185547"/>
     <use xlink:href="#DejaVuSans-61" x="449.365234"/>
     <use xlink:href="#DejaVuSans-6c" x="510.644531"/>
     <use xlink:href="#DejaVuSans-69" x="538.427734"/>
     <use xlink:href="#DejaVuSans-64" x="566.210938"/>
     <use xlink:href="#DejaVuSans-6f" x="629.6875"/>
     <use xlink:href="#DejaVuSans-22" x="690.869141"/>
    </g>
   </g>
   <g id="legend_2">
    <g id="patch_13">
     <path d="M 531.74954 95.234375 
L 624.482353 95.234375 
Q 626.482353 95.234375 626.482353 93.234375 
L 626.482353 50.2 
Q 626.482353 48.2 624.482353 48.2 
L 531.74954 48.2 
Q 529.74954 48.2 529.74954 50.2 
L 529.74954 93.234375 
Q 529.74954 95.234375 531.74954 95.234375 
z
" style="fill: #ffffff; opacity: 0.8; stroke: #cccccc; stroke-linejoin: miter"/>
    </g>
    <g id="line2d_7">
     <path d="M 533.74954 56.298437 
L 543.74954 56.298437 
L 553.74954 56.298437 
" style="fill: none; stroke: #1f77b4; stroke-width: 1.5; stroke-linecap: square"/>
    </g>
    <g id="text_10">
     <!-- Modelo -->
     <g transform="translate(561.74954 59.798437)scale(0.1 -0.1)">
      <use xlink:href="#DejaVuSans-4d"/>
      <use xlink:href="#DejaVuSans-6f" x="86.279297"/>
      <use xlink:href="#DejaVuSans-64" x="147.460938"/>
      <use xlink:href="#DejaVuSans-65" x="210.9375"/>
      <use xlink:href="#DejaVuSans-6c" x="272.460938"/>
      <use xlink:href="#DejaVuSans-6f" x="300.244141"/>
     </g>
    </g>
    <g id="line2d_8">
     <path d="M 533.74954 70.976562 
L 543.74954 70.976562 
L 553.74954 70.976562 
" style="fill: none; stroke-dasharray: 5.55,2.4; stroke-dashoffset: 0; stroke: #ff7f0e; stroke-width: 1.5"/>
    </g>
    <g id="text_11">
     <!-- Función real -->
     <g transform="translate(561.74954 74.476562)scale(0.1 -0.1)">
      <use xlink:href="#DejaVuSans-46"/>
      <use xlink:href="#DejaVuSans-75" x="52.019531"/>
      <use xlink:href="#DejaVuSans-6e" x="115.398438"/>
      <use xlink:href="#DejaVuSans-63" x="178.777344"/>
      <use xlink:href="#DejaVuSans-69" x="233.757812"/>
      <use xlink:href="#DejaVuSans-f3" x="261.541016"/>
      <use xlink:href="#DejaVuSans-6e" x="322.722656"/>
      <use xlink:href="#DejaVuSans-20" x="386.101562"/>
      <use xlink:href="#DejaVuSans-72" x="417.888672"/>
      <use xlink:href="#DejaVuSans-65" x="456.751953"/>
      <use xlink:href="#DejaVuSans-61" x="518.275391"/>
      <use xlink:href="#DejaVuSans-6c" x="579.554688"/>
     </g>
    </g>
    <g id="PathCollection_4">
     <g>
      <use xlink:href="#medb86e1a1b" x="543.74954" y="86.529687" style="fill: #1f77b4; stroke: #0000ff"/>
     </g>
    </g>
    <g id="text_12">
     <!-- Muestras -->
     <g transform="translate(561.74954 89.154687)scale(0.1 -0.1)">
      <use xlink:href="#DejaVuSans-4d"/>
      <use xlink:href="#DejaVuSans-75" x="86.279297"/>
      <use xlink:href="#DejaVuSans-65" x="149.658203"/>
      <use xlink:href="#DejaVuSans-73" x="211.181641"/>
      <use xlink:href="#DejaVuSans-74" x="263.28125"/>
      <use xlink:href="#DejaVuSans-72" x="302.490234"/>
      <use xlink:href="#DejaVuSans-61" x="343.603516"/>
      <use xlink:href="#DejaVuSans-73" x="404.882812"/>
     </g>
    </g>
   </g>
  </g>
  <g id="axes_3">
   <g id="patch_14">
    <path d="M 677.435294 315 
L 907.2 315 
L 907.2 43.2 
L 677.435294 43.2 
z
" style="fill: #ffffff"/>
   </g>
   <g id="PathCollection_5">
    <g clip-path="url(#p42455e6a7b)">
     <use xlink:href="#medb86e1a1b" x="682.080768" y="105.584338" style="fill: #1f77b4; stroke: #0000ff"/>
     <use xlink:href="#medb86e1a1b" x="693.756873" y="119.964737" style="fill: #1f77b4; stroke: #0000ff"/>
     <use xlink:href="#medb86e1a1b" x="697.454532" y="101.374571" style="fill: #1f77b4; stroke: #0000ff"/>
     <use xlink:href="#medb86e1a1b" x="704.610583" y="131.316166" style="fill: #1f77b4; stroke: #0000ff"/>
     <use xlink:href="#medb86e1a1b" x="710.37282" y="125.76282" style="fill: #1f77b4; stroke: #0000ff"/>
     <use xlink:href="#medb86e1a1b" x="765.536622" y="196.268209" style="fill: #1f77b4; stroke: #0000ff"/>
     <use xlink:href="#medb86e1a1b" x="772.709973" y="194.09389" style="fill: #1f77b4; stroke: #0000ff"/>
     <use xlink:href="#medb86e1a1b" x="774.776214" y="197.171892" style="fill: #1f77b4; stroke: #0000ff"/>
     <use xlink:href="#medb86e1a1b" x="777.977391" y="210.103166" style="fill: #1f77b4; stroke: #0000ff"/>
     <use xlink:href="#medb86e1a1b" x="783.466964" y="215.11481" style="fill: #1f77b4; stroke: #0000ff"/>
     <use xlink:href="#medb86e1a1b" x="797.33762" y="237.864145" style="fill: #1f77b4; stroke: #0000ff"/>
     <use xlink:href="#medb86e1a1b" x="798.95668" y="246.684887" style="fill: #1f77b4; stroke: #0000ff"/>
     <use xlink:href="#medb86e1a1b" x="802.630218" y="238.528121" style="fill: #1f77b4; stroke: #0000ff"/>
     <use xlink:href="#medb86e1a1b" x="803.533267" y="235.775094" style="fill: #1f77b4; stroke: #0000ff"/>
     <use xlink:href="#medb86e1a1b" x="807.951886" y="231.483096" style="fill: #1f77b4; stroke: #0000ff"/>
     <use xlink:href="#medb86e1a1b" x="815.929044" y="235.822066" style="fill: #1f77b4; stroke: #0000ff"/>
     <use xlink:href="#medb86e1a1b" x="824.466559" y="249.142905" style="fill: #1f77b4; stroke: #0000ff"/>
     <use xlink:href="#medb86e1a1b" x="825.838965" y="248.778854" style="fill: #1f77b4; stroke: #0000ff"/>
     <use xlink:href="#medb86e1a1b" x="841.760569" y="252.406281" style="fill: #1f77b4; stroke: #0000ff"/>
     <use xlink:href="#medb86e1a1b" x="856.228251" y="247.534679" style="fill: #1f77b4; stroke: #0000ff"/>
     <use xlink:href="#medb86e1a1b" x="856.773351" y="249.09509" style="fill: #1f77b4; stroke: #0000ff"/>
     <use xlink:href="#medb86e1a1b" x="859.345765" y="222.332455" style="fill: #1f77b4; stroke: #0000ff"/>
     <use xlink:href="#medb86e1a1b" x="861.053727" y="237.693728" style="fill: #1f77b4; stroke: #0000ff"/>
     <use xlink:href="#medb86e1a1b" x="868.741948" y="230.285897" style="fill: #1f77b4; stroke: #0000ff"/>
     <use xlink:href="#medb86e1a1b" x="877.333379" y="226.681169" style="fill: #1f77b4; stroke: #0000ff"/>
     <use xlink:href="#medb86e1a1b" x="882.333255" y="206.989055" style="fill: #1f77b4; stroke: #0000ff"/>
     <use xlink:href="#medb86e1a1b" x="890.104733" y="213.405758" style="fill: #1f77b4; stroke: #0000ff"/>
     <use xlink:href="#medb86e1a1b" x="894.48687" y="198.062886" style="fill: #1f77b4; stroke: #0000ff"/>
     <use xlink:href="#medb86e1a1b" x="898.850985" y="196.76335" style="fill: #1f77b4; stroke: #0000ff"/>
     <use xlink:href="#medb86e1a1b" x="902.28725" y="183.305972" style="fill: #1f77b4; stroke: #0000ff"/>
    </g>
   </g>
   <g id="matplotlib.axis_5">
    <g id="text_13">
     <!-- x -->
     <g transform="translate(789.358272 326.598437)scale(0.1 -0.1)">
      <use xlink:href="#DejaVuSans-78"/>
     </g>
    </g>
   </g>
   <g id="matplotlib.axis_6">
    <g id="text_14">
     <!-- y -->
     <g transform="translate(671.355607 182.059375)rotate(-90)scale(0.1 -0.1)">
      <use xlink:href="#DejaVuSans-79"/>
     </g>
    </g>
   </g>
   <g id="line2d_9">
    <path d="M 681.678903 -1 
L 682.077005 105.014636 
L 684.397861 295.571682 
L 686.718717 294.111645 
L 689.039572 229.426404 
L 691.360428 163.849763 
L 693.681283 120.780019 
L 696.002139 102.871022 
L 698.322995 103.509439 
L 700.64385 113.586268 
L 702.964706 125.078458 
L 705.285561 132.563281 
L 707.606417 133.477653 
L 709.927273 127.692838 
L 712.248128 116.789775 
L 714.568984 103.281042 
L 716.88984 89.923472 
L 719.210695 79.192825 
L 721.531551 72.942525 
L 723.852406 72.236782 
L 726.173262 77.330116 
L 728.494118 87.756734 
L 730.814973 102.491459 
L 733.135829 120.146713 
L 735.456684 139.175497 
L 737.77754 158.057214 
L 740.098396 175.450293 
L 742.419251 190.302441 
L 744.740107 201.915296 
L 747.060963 209.965159 
L 749.381818 214.485153 
L 751.702674 215.816621 
L 754.023529 214.538887 
L 756.344385 211.386861 
L 758.665241 207.165461 
L 760.986096 202.668738 
L 763.306952 198.61003 
L 765.627807 195.56768 
L 767.948663 193.94899 
L 770.269519 193.973265 
L 772.590374 195.67315 
L 774.91123 198.912141 
L 777.232086 203.415043 
L 779.552941 208.807532 
L 781.873797 214.660594 
L 784.194652 220.535667 
L 786.515508 226.026626 
L 788.836364 230.795328 
L 791.157219 234.598236 
L 793.478075 237.30248 
L 795.79893 238.890754 
L 798.119786 239.455326 
L 800.440642 239.182314 
L 802.761497 238.32813 
L 805.082353 237.190541 
L 807.403209 236.077106 
L 809.724064 235.273932 
L 812.04492 235.017488 
L 814.365775 235.471998 
L 816.686631 236.714314 
L 819.007487 238.727511 
L 821.328342 241.40378 
L 823.649198 244.556215 
L 825.970053 247.938374 
L 828.290909 251.269773 
L 830.611765 254.264856 
L 832.93262 256.662658 
L 835.253476 258.253916 
L 837.574332 258.903306 
L 839.895187 258.563443 
L 842.216043 257.279712 
L 844.536898 255.184415 
L 846.857754 252.480447 
L 849.17861 249.416066 
L 851.499465 246.252878 
L 853.820321 243.230991 
L 856.141176 240.535253 
L 858.462032 238.268052 
L 860.782888 236.432627 
L 863.103743 234.930805 
L 865.424599 233.578578 
L 867.745455 232.139062 
L 870.06631 230.370222 
L 872.387166 228.08115 
L 874.708021 225.188252 
L 877.028877 221.759051 
L 879.349733 218.025603 
L 881.670588 214.35806 
L 883.991444 211.182105 
L 886.312299 208.84171 
L 888.633155 207.419432 
L 890.954011 206.559248 
L 893.274866 205.370128 
L 895.595722 202.556418 
L 897.916578 197.007279 
L 900.237433 189.169586 
L 902.558289 183.718687 
L 904.879144 194.197457 
L 907.2 250.578714 
" clip-path="url(#p42455e6a7b)" style="fill: none; stroke: #1f77b4; stroke-width: 1.5; stroke-linecap: square"/>
   </g>
   <g id="line2d_10">
    <path d="M 677.435294 111.15 
L 679.75615 111.226964 
L 682.077005 111.457683 
L 684.397861 111.841633 
L 686.718717 112.377945 
L 689.039572 113.065404 
L 691.360428 113.902452 
L 693.681283 114.887194 
L 696.002139 116.017399 
L 698.322995 117.290506 
L 700.64385 118.703631 
L 702.964706 120.253574 
L 705.285561 121.936822 
L 707.606417 123.749564 
L 709.927273 125.687692 
L 712.248128 127.746816 
L 714.568984 129.922272 
L 716.88984 132.209131 
L 719.210695 134.602213 
L 721.531551 137.096097 
L 723.852406 139.685133 
L 726.173262 142.363456 
L 728.494118 145.125 
L 730.814973 147.963508 
L 733.135829 150.87255 
L 735.456684 153.845536 
L 737.77754 156.875732 
L 740.098396 159.956273 
L 742.419251 163.08018 
L 744.740107 166.240378 
L 747.060963 169.429707 
L 749.381818 172.640942 
L 751.702674 175.866809 
L 754.023529 179.1 
L 756.344385 182.333191 
L 758.665241 185.559058 
L 760.986096 188.770293 
L 763.306952 191.959622 
L 765.627807 195.11982 
L 767.948663 198.243727 
L 770.269519 201.324268 
L 772.590374 204.354464 
L 774.91123 207.32745 
L 777.232086 210.236492 
L 779.552941 213.075 
L 781.873797 215.836544 
L 784.194652 218.514867 
L 786.515508 221.103903 
L 788.836364 223.597787 
L 791.157219 225.990869 
L 793.478075 228.277728 
L 795.79893 230.453184 
L 798.119786 232.512308 
L 800.440642 234.450436 
L 802.761497 236.263178 
L 805.082353 237.946426 
L 807.403209 239.496369 
L 809.724064 240.909494 
L 812.04492 242.182601 
L 814.365775 243.312806 
L 816.686631 244.297548 
L 819.007487 245.134596 
L 821.328342 245.822055 
L 823.649198 246.358367 
L 825.970053 246.742317 
L 828.290909 246.973036 
L 830.611765 247.05 
L 832.93262 246.973036 
L 835.253476 246.742317 
L 837.574332 246.358367 
L 839.895187 245.822055 
L 842.216043 245.134596 
L 844.536898 244.297548 
L 846.857754 243.312806 
L 849.17861 242.182601 
L 851.499465 240.909494 
L 853.820321 239.496369 
L 856.141176 237.946426 
L 858.462032 236.263178 
L 860.782888 234.450436 
L 863.103743 232.512308 
L 865.424599 230.453184 
L 867.745455 228.277728 
L 870.06631 225.990869 
L 872.387166 223.597787 
L 874.708021 221.103903 
L 877.028877 218.514867 
L 879.349733 215.836544 
L 881.670588 213.075 
L 883.991444 210.236492 
L 886.312299 207.32745 
L 888.633155 204.354464 
L 890.954011 201.324268 
L 893.274866 198.243727 
L 895.595722 195.11982 
L 897.916578 191.959622 
L 900.237433 188.770293 
L 902.558289 185.559058 
L 904.879144 182.333191 
L 907.2 179.1 
" clip-path="url(#p42455e6a7b)" style="fill: none; stroke-dasharray: 5.55,2.4; stroke-dashoffset: 0; stroke: #ff7f0e; stroke-width: 1.5"/>
   </g>
   <g id="patch_15">
    <path d="M 677.435294 315 
L 677.435294 43.2 
" style="fill: none; stroke: #000000; stroke-width: 0.8; stroke-linejoin: miter; stroke-linecap: square"/>
   </g>
   <g id="patch_16">
    <path d="M 907.2 315 
L 907.2 43.2 
" style="fill: none; stroke: #000000; stroke-width: 0.8; stroke-linejoin: miter; stroke-linecap: square"/>
   </g>
   <g id="patch_17">
    <path d="M 677.435294 315 
L 907.2 315 
" style="fill: none; stroke: #000000; stroke-width: 0.8; stroke-linejoin: miter; stroke-linecap: square"/>
   </g>
   <g id="patch_18">
    <path d="M 677.435294 43.2 
L 907.2 43.2 
" style="fill: none; stroke: #000000; stroke-width: 0.8; stroke-linejoin: miter; stroke-linecap: square"/>
   </g>
   <g id="text_15">
    <!-- Sobreajuste -->
    <g transform="translate(756.688897 37.2)scale(0.12 -0.12)">
     <use xlink:href="#DejaVuSans-53"/>
     <use xlink:href="#DejaVuSans-6f" x="63.476562"/>
     <use xlink:href="#DejaVuSans-62" x="124.658203"/>
     <use xlink:href="#DejaVuSans-72" x="188.134766"/>
     <use xlink:href="#DejaVuSans-65" x="226.998047"/>
     <use xlink:href="#DejaVuSans-61" x="288.521484"/>
     <use xlink:href="#DejaVuSans-6a" x="349.800781"/>
     <use xlink:href="#DejaVuSans-75" x="377.583984"/>
     <use xlink:href="#DejaVuSans-73" x="440.962891"/>
     <use xlink:href="#DejaVuSans-74" x="493.0625"/>
     <use xlink:href="#DejaVuSans-65" x="532.271484"/>
    </g>
   </g>
   <g id="legend_3">
    <g id="patch_19">
     <path d="M 807.467188 95.234375 
L 900.2 95.234375 
Q 902.2 95.234375 902.2 93.234375 
L 902.2 50.2 
Q 902.2 48.2 900.2 48.2 
L 807.467188 48.2 
Q 805.467188 48.2 805.467188 50.2 
L 805.467188 93.234375 
Q 805.467188 95.234375 807.467188 95.234375 
z
" style="fill: #ffffff; opacity: 0.8; stroke: #cccccc; stroke-linejoin: miter"/>
    </g>
    <g id="line2d_11">
     <path d="M 809.467188 56.298437 
L 819.467188 56.298437 
L 829.467188 56.298437 
" style="fill: none; stroke: #1f77b4; stroke-width: 1.5; stroke-linecap: square"/>
    </g>
    <g id="text_16">
     <!-- Modelo -->
     <g transform="translate(837.467188 59.798437)scale(0.1 -0.1)">
      <use xlink:href="#DejaVuSans-4d"/>
      <use xlink:href="#DejaVuSans-6f" x="86.279297"/>
      <use xlink:href="#DejaVuSans-64" x="147.460938"/>
      <use xlink:href="#DejaVuSans-65" x="210.9375"/>
      <use xlink:href="#DejaVuSans-6c" x="272.460938"/>
      <use xlink:href="#DejaVuSans-6f" x="300.244141"/>
     </g>
    </g>
    <g id="line2d_12">
     <path d="M 809.467188 70.976562 
L 819.467188 70.976562 
L 829.467188 70.976562 
" style="fill: none; stroke-dasharray: 5.55,2.4; stroke-dashoffset: 0; stroke: #ff7f0e; stroke-width: 1.5"/>
    </g>
    <g id="text_17">
     <!-- Función real -->
     <g transform="translate(837.467188 74.476562)scale(0.1 -0.1)">
      <use xlink:href="#DejaVuSans-46"/>
      <use xlink:href="#DejaVuSans-75" x="52.019531"/>
      <use xlink:href="#DejaVuSans-6e" x="115.398438"/>
      <use xlink:href="#DejaVuSans-63" x="178.777344"/>
      <use xlink:href="#DejaVuSans-69" x="233.757812"/>
      <use xlink:href="#DejaVuSans-f3" x="261.541016"/>
      <use xlink:href="#DejaVuSans-6e" x="322.722656"/>
      <use xlink:href="#DejaVuSans-20" x="386.101562"/>
      <use xlink:href="#DejaVuSans-72" x="417.888672"/>
      <use xlink:href="#DejaVuSans-65" x="456.751953"/>
      <use xlink:href="#DejaVuSans-61" x="518.275391"/>
      <use xlink:href="#DejaVuSans-6c" x="579.554688"/>
     </g>
    </g>
    <g id="PathCollection_6">
     <g>
      <use xlink:href="#medb86e1a1b" x="819.467188" y="86.529687" style="fill: #1f77b4; stroke: #0000ff"/>
     </g>
    </g>
    <g id="text_18">
     <!-- Muestras -->
     <g transform="translate(837.467188 89.154687)scale(0.1 -0.1)">
      <use xlink:href="#DejaVuSans-4d"/>
      <use xlink:href="#DejaVuSans-75" x="86.279297"/>
      <use xlink:href="#DejaVuSans-65" x="149.658203"/>
      <use xlink:href="#DejaVuSans-73" x="211.181641"/>
      <use xlink:href="#DejaVuSans-74" x="263.28125"/>
      <use xlink:href="#DejaVuSans-72" x="302.490234"/>
      <use xlink:href="#DejaVuSans-61" x="343.603516"/>
      <use xlink:href="#DejaVuSans-73" x="404.882812"/>
     </g>
    </g>
   </g>
  </g>
 </g>
 <defs>
  <clipPath id="p532b1ce2ac">
   <rect x="126" y="43.2" width="229.764706" height="271.8"/>
  </clipPath>
  <clipPath id="p188b1bd993">
   <rect x="401.717647" y="43.2" width="229.764706" height="271.8"/>
  </clipPath>
  <clipPath id="p42455e6a7b">
   <rect x="677.435294" y="43.2" width="229.764706" height="271.8"/>
  </clipPath>
 </defs>
</svg>
