<?xml version="1.0" encoding="utf-8" standalone="no"?>
<!DOCTYPE svg PUBLIC "-//W3C//DTD SVG 1.1//EN"
  "http://www.w3.org/Graphics/SVG/1.1/DTD/svg11.dtd">
<svg xmlns:xlink="http://www.w3.org/1999/xlink" width="225.807813pt" height="168.594375pt" viewBox="0 0 225.807813 168.594375" xmlns="http://www.w3.org/2000/svg" version="1.1">
 <metadata>
  <rdf:RDF xmlns:dc="http://purl.org/dc/elements/1.1/" xmlns:cc="http://creativecommons.org/ns#" xmlns:rdf="http://www.w3.org/1999/02/22-rdf-syntax-ns#">
   <cc:Work>
    <dc:type rdf:resource="http://purl.org/dc/dcmitype/StillImage"/>
    <dc:date>2022-12-11T01:45:01.236175</dc:date>
    <dc:format>image/svg+xml</dc:format>
    <dc:creator>
     <cc:Agent>
      <dc:title>Matplotlib v3.5.1, https://matplotlib.org/</dc:title>
     </cc:Agent>
    </dc:creator>
   </cc:Work>
  </rdf:RDF>
 </metadata>
 <defs>
  <style type="text/css">*{stroke-linejoin: round; stroke-linecap: butt}</style>
 </defs>
 <g id="figure_1">
  <g id="patch_1">
   <path d="M 0 168.594375 
L 225.807813 168.594375 
L 225.807813 0 
L 0 0 
L 0 168.594375 
z
" style="fill: none"/>
  </g>
  <g id="axes_1">
   <g id="patch_2">
    <path d="M 38.482813 131.038125 
L 205.882812 131.038125 
L 205.882812 22.318125 
L 38.482813 22.318125 
z
" style="fill: #ffffff"/>
   </g>
   <g id="PolyCollection_1">
    <path d="M 38.482813 49.498125 
L 38.482813 103.858125 
L 38.650213 103.858125 
L 38.817613 103.858125 
L 38.985013 103.858125 
L 39.152413 103.858125 
L 39.319813 103.858125 
L 39.487212 103.858125 
L 39.654612 103.858125 
L 39.822012 103.858125 
L 39.989413 103.858125 
L 40.156813 103.858125 
L 40.324213 103.858125 
L 40.491613 103.858125 
L 40.659013 103.858125 
L 40.826413 103.858125 
L 40.993813 103.858125 
L 41.161213 103.858125 
L 41.328613 103.858125 
L 41.496012 103.858125 
L 41.663412 103.858125 
L 41.830813 103.858125 
L 41.998213 103.858125 
L 42.165613 103.858125 
L 42.333013 103.858125 
L 42.500413 103.858125 
L 42.667813 103.858125 
L 42.835213 103.858125 
L 43.002613 103.858125 
L 43.170012 103.858125 
L 43.337412 103.858125 
L 43.504812 103.858125 
L 43.672213 103.858125 
L 43.839613 103.858125 
L 44.007013 103.858125 
L 44.174413 103.858125 
L 44.341813 103.858125 
L 44.509213 103.858125 
L 44.676613 103.858125 
L 44.844013 103.858125 
L 45.011413 103.858125 
L 45.178812 103.858125 
L 45.346213 103.858125 
L 45.513613 103.858125 
L 45.681013 103.858125 
L 45.848413 103.858125 
L 46.015813 103.858125 
L 46.183213 103.858125 
L 46.350613 103.858125 
L 46.518013 103.858125 
L 46.685412 103.858125 
L 46.852812 103.858125 
L 47.020212 103.858125 
L 47.187613 103.858125 
L 47.355013 103.858125 
L 47.522413 103.858125 
L 47.689813 103.858125 
L 47.857213 103.858125 
L 48.024613 103.858125 
L 48.192013 103.858125 
L 48.359413 103.858125 
L 48.526813 103.858125 
L 48.694213 103.858125 
L 48.861613 103.858125 
L 49.029013 103.858125 
L 49.196413 103.858125 
L 49.363813 103.858125 
L 49.531213 103.858125 
L 49.698613 103.858125 
L 49.866013 103.858125 
L 50.033413 103.858125 
L 50.200813 103.858125 
L 50.368212 103.858125 
L 50.535612 103.858125 
L 50.703012 103.858125 
L 50.870413 103.858125 
L 51.037813 103.858125 
L 51.205213 103.858125 
L 51.372613 103.858125 
L 51.540013 103.858125 
L 51.707413 103.858125 
L 51.874813 103.858125 
L 52.042213 103.858125 
L 52.209613 103.858125 
L 52.377013 103.858125 
L 52.544413 103.858125 
L 52.711813 103.858125 
L 52.879213 103.858125 
L 53.046613 103.858125 
L 53.214013 103.858125 
L 53.381413 103.858125 
L 53.548813 103.858125 
L 53.716213 103.858125 
L 53.883613 103.858125 
L 54.051013 103.858125 
L 54.218412 103.858125 
L 54.385813 103.858125 
L 54.553213 103.858125 
L 54.720613 103.858125 
L 54.888013 103.858125 
L 55.055413 103.858125 
L 55.222813 103.858125 
L 55.390213 103.858125 
L 55.557613 103.858125 
L 55.725013 103.858125 
L 55.892413 103.858125 
L 56.059813 103.858125 
L 56.227213 103.858125 
L 56.394613 103.858125 
L 56.562013 103.858125 
L 56.729413 103.858125 
L 56.896813 103.858125 
L 57.064213 103.858125 
L 57.231613 103.858125 
L 57.399013 103.858125 
L 57.566413 103.858125 
L 57.733812 103.858125 
L 57.901212 103.858125 
L 58.068613 103.858125 
L 58.236013 103.858125 
L 58.403413 103.858125 
L 58.570813 103.858125 
L 58.738213 103.858125 
L 58.905613 103.858125 
L 59.073013 103.858125 
L 59.240413 103.858125 
L 59.407813 103.858125 
L 59.575213 103.858125 
L 59.742613 103.858125 
L 59.910013 103.858125 
L 60.077413 103.858125 
L 60.244813 103.858125 
L 60.412213 103.858125 
L 60.579613 103.858125 
L 60.747013 103.858125 
L 60.914413 103.858125 
L 61.081813 103.858125 
L 61.249213 103.858125 
L 61.416612 103.858125 
L 61.584013 103.858125 
L 61.751413 103.858125 
L 61.918813 103.858125 
L 62.086213 103.858125 
L 62.253613 103.858125 
L 62.421013 103.858125 
L 62.588413 103.858125 
L 62.755813 103.858125 
L 62.923213 103.858125 
L 63.090613 103.858125 
L 63.258013 103.858125 
L 63.425413 103.858125 
L 63.592813 103.858125 
L 63.760213 103.858125 
L 63.927613 103.858125 
L 64.095013 103.858125 
L 64.262413 103.858125 
L 64.429812 103.858125 
L 64.597213 103.858125 
L 64.764612 103.858125 
L 64.932013 103.858125 
L 65.099412 103.858125 
L 65.266813 103.858125 
L 65.434213 103.858125 
L 65.601613 103.858125 
L 65.769013 103.858125 
L 65.936413 103.858125 
L 66.103813 103.858125 
L 66.271213 103.858125 
L 66.438613 103.858125 
L 66.606013 103.858125 
L 66.773413 103.858125 
L 66.940813 103.858125 
L 67.108213 103.858125 
L 67.275613 103.858125 
L 67.443013 103.858125 
L 67.610413 103.858125 
L 67.777813 103.858125 
L 67.945212 103.858125 
L 68.112613 103.858125 
L 68.280012 103.858125 
L 68.447413 103.858125 
L 68.614812 103.858125 
L 68.782212 103.858125 
L 68.949613 103.858125 
L 69.117013 103.858125 
L 69.284413 103.858125 
L 69.451813 103.858125 
L 69.619213 103.858125 
L 69.786613 103.858125 
L 69.954013 103.858125 
L 70.121413 103.858125 
L 70.288813 103.858125 
L 70.456213 103.858125 
L 70.623613 103.858125 
L 70.791013 103.858125 
L 70.958413 103.858125 
L 71.125812 103.858125 
L 71.293213 103.858125 
L 71.460612 103.858125 
L 71.628013 103.858125 
L 71.795412 103.858125 
L 71.962813 103.858125 
L 72.130212 103.858125 
L 72.297613 103.858125 
L 72.465013 103.858125 
L 72.632413 103.858125 
L 72.799813 103.858125 
L 72.967213 103.858125 
L 73.134613 103.858125 
L 73.302013 103.858125 
L 73.469413 103.858125 
L 73.636813 103.858125 
L 73.804213 103.858125 
L 73.971613 103.858125 
L 74.139013 103.858125 
L 74.306413 103.858125 
L 74.473813 103.858125 
L 74.641213 103.858125 
L 74.808613 103.858125 
L 74.976012 103.858125 
L 75.143413 103.858125 
L 75.310812 103.858125 
L 75.478213 103.858125 
L 75.645612 103.858125 
L 75.813013 103.858125 
L 75.980412 103.858125 
L 76.147813 103.858125 
L 76.315213 103.858125 
L 76.482613 103.858125 
L 76.650013 103.858125 
L 76.817413 103.858125 
L 76.984813 103.858125 
L 77.152213 103.858125 
L 77.319613 103.858125 
L 77.487013 103.858125 
L 77.654413 103.858125 
L 77.821813 103.858125 
L 77.989213 103.858125 
L 78.156613 103.858125 
L 78.324013 103.858125 
L 78.491413 103.858125 
L 78.658813 103.858125 
L 78.826212 103.858125 
L 78.993613 103.858125 
L 79.161012 103.858125 
L 79.328413 103.858125 
L 79.495812 103.858125 
L 79.663213 103.858125 
L 79.830613 103.858125 
L 79.998013 103.858125 
L 80.165413 103.858125 
L 80.332813 103.858125 
L 80.500213 103.858125 
L 80.667613 103.858125 
L 80.835013 103.858125 
L 81.002413 103.858125 
L 81.169813 103.858125 
L 81.337213 103.858125 
L 81.504613 103.858125 
L 81.672013 103.858125 
L 81.839413 103.858125 
L 82.006813 103.858125 
L 82.174213 103.858125 
L 82.341612 103.858125 
L 82.509013 103.858125 
L 82.676412 103.858125 
L 82.843813 103.858125 
L 83.011212 103.858125 
L 83.178613 103.858125 
L 83.346013 103.858125 
L 83.513413 103.858125 
L 83.680813 103.858125 
L 83.848213 103.858125 
L 84.015613 103.858125 
L 84.183013 103.858125 
L 84.350413 103.858125 
L 84.517813 103.858125 
L 84.685213 103.858125 
L 84.852613 103.858125 
L 85.020013 103.858125 
L 85.187413 103.858125 
L 85.354813 103.858125 
L 85.522213 103.858125 
L 85.689613 103.858125 
L 85.857013 103.858125 
L 86.024413 103.858125 
L 86.191812 103.858125 
L 86.359213 103.858125 
L 86.526612 103.858125 
L 86.694013 103.858125 
L 86.861413 103.858125 
L 87.028813 103.858125 
L 87.196213 103.858125 
L 87.363613 103.858125 
L 87.531013 103.858125 
L 87.698413 103.858125 
L 87.865813 103.858125 
L 88.033213 103.858125 
L 88.200613 103.858125 
L 88.368013 103.858125 
L 88.535413 103.858125 
L 88.535413 49.498125 
L 88.535413 49.498125 
L 88.368013 49.498125 
L 88.200613 49.498125 
L 88.033213 49.498125 
L 87.865813 49.498125 
L 87.698413 49.498125 
L 87.531013 49.498125 
L 87.363613 49.498125 
L 87.196213 49.498125 
L 87.028813 49.498125 
L 86.861413 49.498125 
L 86.694013 49.498125 
L 86.526612 49.498125 
L 86.359213 49.498125 
L 86.191812 49.498125 
L 86.024413 49.498125 
L 85.857013 49.498125 
L 85.689613 49.498125 
L 85.522213 49.498125 
L 85.354813 49.498125 
L 85.187413 49.498125 
L 85.020013 49.498125 
L 84.852613 49.498125 
L 84.685213 49.498125 
L 84.517813 49.498125 
L 84.350413 49.498125 
L 84.183013 49.498125 
L 84.015613 49.498125 
L 83.848213 49.498125 
L 83.680813 49.498125 
L 83.513413 49.498125 
L 83.346013 49.498125 
L 83.178613 49.498125 
L 83.011212 49.498125 
L 82.843813 49.498125 
L 82.676412 49.498125 
L 82.509013 49.498125 
L 82.341612 49.498125 
L 82.174213 49.498125 
L 82.006813 49.498125 
L 81.839413 49.498125 
L 81.672013 49.498125 
L 81.504613 49.498125 
L 81.337213 49.498125 
L 81.169813 49.498125 
L 81.002413 49.498125 
L 80.835013 49.498125 
L 80.667613 49.498125 
L 80.500213 49.498125 
L 80.332813 49.498125 
L 80.165413 49.498125 
L 79.998013 49.498125 
L 79.830613 49.498125 
L 79.663213 49.498125 
L 79.495812 49.498125 
L 79.328413 49.498125 
L 79.161012 49.498125 
L 78.993613 49.498125 
L 78.826212 49.498125 
L 78.658813 49.498125 
L 78.491413 49.498125 
L 78.324013 49.498125 
L 78.156613 49.498125 
L 77.989213 49.498125 
L 77.821813 49.498125 
L 77.654413 49.498125 
L 77.487013 49.498125 
L 77.319613 49.498125 
L 77.152213 49.498125 
L 76.984813 49.498125 
L 76.817413 49.498125 
L 76.650013 49.498125 
L 76.482613 49.498125 
L 76.315213 49.498125 
L 76.147813 49.498125 
L 75.980412 49.498125 
L 75.813013 49.498125 
L 75.645612 49.498125 
L 75.478213 49.498125 
L 75.310812 49.498125 
L 75.143413 49.498125 
L 74.976012 49.498125 
L 74.808613 49.498125 
L 74.641213 49.498125 
L 74.473813 49.498125 
L 74.306413 49.498125 
L 74.139013 49.498125 
L 73.971613 49.498125 
L 73.804213 49.498125 
L 73.636813 49.498125 
L 73.469413 49.498125 
L 73.302013 49.498125 
L 73.134613 49.498125 
L 72.967213 49.498125 
L 72.799813 49.498125 
L 72.632413 49.498125 
L 72.465013 49.498125 
L 72.297613 49.498125 
L 72.130212 49.498125 
L 71.962813 49.498125 
L 71.795412 49.498125 
L 71.628013 49.498125 
L 71.460612 49.498125 
L 71.293213 49.498125 
L 71.125812 49.498125 
L 70.958413 49.498125 
L 70.791013 49.498125 
L 70.623613 49.498125 
L 70.456213 49.498125 
L 70.288813 49.498125 
L 70.121413 49.498125 
L 69.954013 49.498125 
L 69.786613 49.498125 
L 69.619213 49.498125 
L 69.451813 49.498125 
L 69.284413 49.498125 
L 69.117013 49.498125 
L 68.949613 49.498125 
L 68.782212 49.498125 
L 68.614812 49.498125 
L 68.447413 49.498125 
L 68.280012 49.498125 
L 68.112613 49.498125 
L 67.945212 49.498125 
L 67.777813 49.498125 
L 67.610413 49.498125 
L 67.443013 49.498125 
L 67.275613 49.498125 
L 67.108213 49.498125 
L 66.940813 49.498125 
L 66.773413 49.498125 
L 66.606013 49.498125 
L 66.438613 49.498125 
L 66.271213 49.498125 
L 66.103813 49.498125 
L 65.936413 49.498125 
L 65.769013 49.498125 
L 65.601613 49.498125 
L 65.434213 49.498125 
L 65.266813 49.498125 
L 65.099412 49.498125 
L 64.932013 49.498125 
L 64.764612 49.498125 
L 64.597213 49.498125 
L 64.429812 49.498125 
L 64.262413 49.498125 
L 64.095013 49.498125 
L 63.927613 49.498125 
L 63.760213 49.498125 
L 63.592813 49.498125 
L 63.425413 49.498125 
L 63.258013 49.498125 
L 63.090613 49.498125 
L 62.923213 49.498125 
L 62.755813 49.498125 
L 62.588413 49.498125 
L 62.421013 49.498125 
L 62.253613 49.498125 
L 62.086213 49.498125 
L 61.918813 49.498125 
L 61.751413 49.498125 
L 61.584013 49.498125 
L 61.416612 49.498125 
L 61.249213 49.498125 
L 61.081813 49.498125 
L 60.914413 49.498125 
L 60.747013 49.498125 
L 60.579613 49.498125 
L 60.412213 49.498125 
L 60.244813 49.498125 
L 60.077413 49.498125 
L 59.910013 49.498125 
L 59.742613 49.498125 
L 59.575213 49.498125 
L 59.407813 49.498125 
L 59.240413 49.498125 
L 59.073013 49.498125 
L 58.905613 49.498125 
L 58.738213 49.498125 
L 58.570813 49.498125 
L 58.403413 49.498125 
L 58.236013 49.498125 
L 58.068613 49.498125 
L 57.901212 49.498125 
L 57.733812 49.498125 
L 57.566413 49.498125 
L 57.399013 49.498125 
L 57.231613 49.498125 
L 57.064213 49.498125 
L 56.896813 49.498125 
L 56.729413 49.498125 
L 56.562013 49.498125 
L 56.394613 49.498125 
L 56.227213 49.498125 
L 56.059813 49.498125 
L 55.892413 49.498125 
L 55.725013 49.498125 
L 55.557613 49.498125 
L 55.390213 49.498125 
L 55.222813 49.498125 
L 55.055413 49.498125 
L 54.888013 49.498125 
L 54.720613 49.498125 
L 54.553213 49.498125 
L 54.385813 49.498125 
L 54.218412 49.498125 
L 54.051013 49.498125 
L 53.883613 49.498125 
L 53.716213 49.498125 
L 53.548813 49.498125 
L 53.381413 49.498125 
L 53.214013 49.498125 
L 53.046613 49.498125 
L 52.879213 49.498125 
L 52.711813 49.498125 
L 52.544413 49.498125 
L 52.377013 49.498125 
L 52.209613 49.498125 
L 52.042213 49.498125 
L 51.874813 49.498125 
L 51.707413 49.498125 
L 51.540013 49.498125 
L 51.372613 49.498125 
L 51.205213 49.498125 
L 51.037813 49.498125 
L 50.870413 49.498125 
L 50.703012 49.498125 
L 50.535612 49.498125 
L 50.368212 49.498125 
L 50.200813 49.498125 
L 50.033413 49.498125 
L 49.866013 49.498125 
L 49.698613 49.498125 
L 49.531213 49.498125 
L 49.363813 49.498125 
L 49.196413 49.498125 
L 49.029013 49.498125 
L 48.861613 49.498125 
L 48.694213 49.498125 
L 48.526813 49.498125 
L 48.359413 49.498125 
L 48.192013 49.498125 
L 48.024613 49.498125 
L 47.857213 49.498125 
L 47.689813 49.498125 
L 47.522413 49.498125 
L 47.355013 49.498125 
L 47.187613 49.498125 
L 47.020212 49.498125 
L 46.852812 49.498125 
L 46.685412 49.498125 
L 46.518013 49.498125 
L 46.350613 49.498125 
L 46.183213 49.498125 
L 46.015813 49.498125 
L 45.848413 49.498125 
L 45.681013 49.498125 
L 45.513613 49.498125 
L 45.346213 49.498125 
L 45.178812 49.498125 
L 45.011413 49.498125 
L 44.844013 49.498125 
L 44.676613 49.498125 
L 44.509213 49.498125 
L 44.341813 49.498125 
L 44.174413 49.498125 
L 44.007013 49.498125 
L 43.839613 49.498125 
L 43.672213 49.498125 
L 43.504812 49.498125 
L 43.337412 49.498125 
L 43.170012 49.498125 
L 43.002613 49.498125 
L 42.835213 49.498125 
L 42.667813 49.498125 
L 42.500413 49.498125 
L 42.333013 49.498125 
L 42.165613 49.498125 
L 41.998213 49.498125 
L 41.830813 49.498125 
L 41.663412 49.498125 
L 41.496012 49.498125 
L 41.328613 49.498125 
L 41.161213 49.498125 
L 40.993813 49.498125 
L 40.826413 49.498125 
L 40.659013 49.498125 
L 40.491613 49.498125 
L 40.324213 49.498125 
L 40.156813 49.498125 
L 39.989413 49.498125 
L 39.822012 49.498125 
L 39.654612 49.498125 
L 39.487212 49.498125 
L 39.319813 49.498125 
L 39.152413 49.498125 
L 38.985013 49.498125 
L 38.817613 49.498125 
L 38.650213 49.498125 
L 38.482813 49.498125 
z
" clip-path="url(#p44084fd38f)" style="fill: #ff0000; fill-opacity: 0.4"/>
   </g>
   <g id="matplotlib.axis_1">
    <g id="xtick_1">
     <g id="line2d_1">
      <defs>
       <path id="md462f97f3d" d="M 0 0 
L 0 3.5 
" style="stroke: #000000; stroke-width: 0.8"/>
      </defs>
      <g>
       <use xlink:href="#md462f97f3d" x="38.482813" y="131.038125" style="stroke: #000000; stroke-width: 0.8"/>
      </g>
     </g>
     <g id="text_1">
      <!-- 0 -->
      <g transform="translate(35.301563 145.636562)scale(0.1 -0.1)">
       <defs>
        <path id="DejaVuSans-30" d="M 2034 4250 
Q 1547 4250 1301 3770 
Q 1056 3291 1056 2328 
Q 1056 1369 1301 889 
Q 1547 409 2034 409 
Q 2525 409 2770 889 
Q 3016 1369 3016 2328 
Q 3016 3291 2770 3770 
Q 2525 4250 2034 4250 
z
M 2034 4750 
Q 2819 4750 3233 4129 
Q 3647 3509 3647 2328 
Q 3647 1150 3233 529 
Q 2819 -91 2034 -91 
Q 1250 -91 836 529 
Q 422 1150 422 2328 
Q 422 3509 836 4129 
Q 1250 4750 2034 4750 
z
" transform="scale(0.015625)"/>
       </defs>
       <use xlink:href="#DejaVuSans-30"/>
      </g>
     </g>
    </g>
    <g id="xtick_2">
     <g id="line2d_2">
      <g>
       <use xlink:href="#md462f97f3d" x="71.962813" y="131.038125" style="stroke: #000000; stroke-width: 0.8"/>
      </g>
     </g>
     <g id="text_2">
      <!-- 200 -->
      <g transform="translate(62.419063 145.636562)scale(0.1 -0.1)">
       <defs>
        <path id="DejaVuSans-32" d="M 1228 531 
L 3431 531 
L 3431 0 
L 469 0 
L 469 531 
Q 828 903 1448 1529 
Q 2069 2156 2228 2338 
Q 2531 2678 2651 2914 
Q 2772 3150 2772 3378 
Q 2772 3750 2511 3984 
Q 2250 4219 1831 4219 
Q 1534 4219 1204 4116 
Q 875 4013 500 3803 
L 500 4441 
Q 881 4594 1212 4672 
Q 1544 4750 1819 4750 
Q 2544 4750 2975 4387 
Q 3406 4025 3406 3419 
Q 3406 3131 3298 2873 
Q 3191 2616 2906 2266 
Q 2828 2175 2409 1742 
Q 1991 1309 1228 531 
z
" transform="scale(0.015625)"/>
       </defs>
       <use xlink:href="#DejaVuSans-32"/>
       <use xlink:href="#DejaVuSans-30" x="63.623047"/>
       <use xlink:href="#DejaVuSans-30" x="127.246094"/>
      </g>
     </g>
    </g>
    <g id="xtick_3">
     <g id="line2d_3">
      <g>
       <use xlink:href="#md462f97f3d" x="105.442813" y="131.038125" style="stroke: #000000; stroke-width: 0.8"/>
      </g>
     </g>
     <g id="text_3">
      <!-- 400 -->
      <g transform="translate(95.899062 145.636562)scale(0.1 -0.1)">
       <defs>
        <path id="DejaVuSans-34" d="M 2419 4116 
L 825 1625 
L 2419 1625 
L 2419 4116 
z
M 2253 4666 
L 3047 4666 
L 3047 1625 
L 3713 1625 
L 3713 1100 
L 3047 1100 
L 3047 0 
L 2419 0 
L 2419 1100 
L 313 1100 
L 313 1709 
L 2253 4666 
z
" transform="scale(0.015625)"/>
       </defs>
       <use xlink:href="#DejaVuSans-34"/>
       <use xlink:href="#DejaVuSans-30" x="63.623047"/>
       <use xlink:href="#DejaVuSans-30" x="127.246094"/>
      </g>
     </g>
    </g>
    <g id="xtick_4">
     <g id="line2d_4">
      <g>
       <use xlink:href="#md462f97f3d" x="138.922813" y="131.038125" style="stroke: #000000; stroke-width: 0.8"/>
      </g>
     </g>
     <g id="text_4">
      <!-- 600 -->
      <g transform="translate(129.379063 145.636562)scale(0.1 -0.1)">
       <defs>
        <path id="DejaVuSans-36" d="M 2113 2584 
Q 1688 2584 1439 2293 
Q 1191 2003 1191 1497 
Q 1191 994 1439 701 
Q 1688 409 2113 409 
Q 2538 409 2786 701 
Q 3034 994 3034 1497 
Q 3034 2003 2786 2293 
Q 2538 2584 2113 2584 
z
M 3366 4563 
L 3366 3988 
Q 3128 4100 2886 4159 
Q 2644 4219 2406 4219 
Q 1781 4219 1451 3797 
Q 1122 3375 1075 2522 
Q 1259 2794 1537 2939 
Q 1816 3084 2150 3084 
Q 2853 3084 3261 2657 
Q 3669 2231 3669 1497 
Q 3669 778 3244 343 
Q 2819 -91 2113 -91 
Q 1303 -91 875 529 
Q 447 1150 447 2328 
Q 447 3434 972 4092 
Q 1497 4750 2381 4750 
Q 2619 4750 2861 4703 
Q 3103 4656 3366 4563 
z
" transform="scale(0.015625)"/>
       </defs>
       <use xlink:href="#DejaVuSans-36"/>
       <use xlink:href="#DejaVuSans-30" x="63.623047"/>
       <use xlink:href="#DejaVuSans-30" x="127.246094"/>
      </g>
     </g>
    </g>
    <g id="xtick_5">
     <g id="line2d_5">
      <g>
       <use xlink:href="#md462f97f3d" x="172.402813" y="131.038125" style="stroke: #000000; stroke-width: 0.8"/>
      </g>
     </g>
     <g id="text_5">
      <!-- 800 -->
      <g transform="translate(162.859063 145.636562)scale(0.1 -0.1)">
       <defs>
        <path id="DejaVuSans-38" d="M 2034 2216 
Q 1584 2216 1326 1975 
Q 1069 1734 1069 1313 
Q 1069 891 1326 650 
Q 1584 409 2034 409 
Q 2484 409 2743 651 
Q 3003 894 3003 1313 
Q 3003 1734 2745 1975 
Q 2488 2216 2034 2216 
z
M 1403 2484 
Q 997 2584 770 2862 
Q 544 3141 544 3541 
Q 544 4100 942 4425 
Q 1341 4750 2034 4750 
Q 2731 4750 3128 4425 
Q 3525 4100 3525 3541 
Q 3525 3141 3298 2862 
Q 3072 2584 2669 2484 
Q 3125 2378 3379 2068 
Q 3634 1759 3634 1313 
Q 3634 634 3220 271 
Q 2806 -91 2034 -91 
Q 1263 -91 848 271 
Q 434 634 434 1313 
Q 434 1759 690 2068 
Q 947 2378 1403 2484 
z
M 1172 3481 
Q 1172 3119 1398 2916 
Q 1625 2713 2034 2713 
Q 2441 2713 2670 2916 
Q 2900 3119 2900 3481 
Q 2900 3844 2670 4047 
Q 2441 4250 2034 4250 
Q 1625 4250 1398 4047 
Q 1172 3844 1172 3481 
z
" transform="scale(0.015625)"/>
       </defs>
       <use xlink:href="#DejaVuSans-38"/>
       <use xlink:href="#DejaVuSans-30" x="63.623047"/>
       <use xlink:href="#DejaVuSans-30" x="127.246094"/>
      </g>
     </g>
    </g>
    <g id="xtick_6">
     <g id="line2d_6">
      <g>
       <use xlink:href="#md462f97f3d" x="205.882813" y="131.038125" style="stroke: #000000; stroke-width: 0.8"/>
      </g>
     </g>
     <g id="text_6">
      <!-- 1000 -->
      <g transform="translate(193.157813 145.636562)scale(0.1 -0.1)">
       <defs>
        <path id="DejaVuSans-31" d="M 794 531 
L 1825 531 
L 1825 4091 
L 703 3866 
L 703 4441 
L 1819 4666 
L 2450 4666 
L 2450 531 
L 3481 531 
L 3481 0 
L 794 0 
L 794 531 
z
" transform="scale(0.015625)"/>
       </defs>
       <use xlink:href="#DejaVuSans-31"/>
       <use xlink:href="#DejaVuSans-30" x="63.623047"/>
       <use xlink:href="#DejaVuSans-30" x="127.246094"/>
       <use xlink:href="#DejaVuSans-30" x="190.869141"/>
      </g>
     </g>
    </g>
    <g id="text_7">
     <!-- Time -->
     <g transform="translate(109.949219 159.314687)scale(0.1 -0.1)">
      <defs>
       <path id="DejaVuSans-54" d="M -19 4666 
L 3928 4666 
L 3928 4134 
L 2272 4134 
L 2272 0 
L 1638 0 
L 1638 4134 
L -19 4134 
L -19 4666 
z
" transform="scale(0.015625)"/>
       <path id="DejaVuSans-69" d="M 603 3500 
L 1178 3500 
L 1178 0 
L 603 0 
L 603 3500 
z
M 603 4863 
L 1178 4863 
L 1178 4134 
L 603 4134 
L 603 4863 
z
" transform="scale(0.015625)"/>
       <path id="DejaVuSans-6d" d="M 3328 2828 
Q 3544 3216 3844 3400 
Q 4144 3584 4550 3584 
Q 5097 3584 5394 3201 
Q 5691 2819 5691 2113 
L 5691 0 
L 5113 0 
L 5113 2094 
Q 5113 2597 4934 2840 
Q 4756 3084 4391 3084 
Q 3944 3084 3684 2787 
Q 3425 2491 3425 1978 
L 3425 0 
L 2847 0 
L 2847 2094 
Q 2847 2600 2669 2842 
Q 2491 3084 2119 3084 
Q 1678 3084 1418 2786 
Q 1159 2488 1159 1978 
L 1159 0 
L 581 0 
L 581 3500 
L 1159 3500 
L 1159 2956 
Q 1356 3278 1631 3431 
Q 1906 3584 2284 3584 
Q 2666 3584 2933 3390 
Q 3200 3197 3328 2828 
z
" transform="scale(0.015625)"/>
       <path id="DejaVuSans-65" d="M 3597 1894 
L 3597 1613 
L 953 1613 
Q 991 1019 1311 708 
Q 1631 397 2203 397 
Q 2534 397 2845 478 
Q 3156 559 3463 722 
L 3463 178 
Q 3153 47 2828 -22 
Q 2503 -91 2169 -91 
Q 1331 -91 842 396 
Q 353 884 353 1716 
Q 353 2575 817 3079 
Q 1281 3584 2069 3584 
Q 2775 3584 3186 3129 
Q 3597 2675 3597 1894 
z
M 3022 2063 
Q 3016 2534 2758 2815 
Q 2500 3097 2075 3097 
Q 1594 3097 1305 2825 
Q 1016 2553 972 2059 
L 3022 2063 
z
" transform="scale(0.015625)"/>
      </defs>
      <use xlink:href="#DejaVuSans-54"/>
      <use xlink:href="#DejaVuSans-69" x="57.958984"/>
      <use xlink:href="#DejaVuSans-6d" x="85.742188"/>
      <use xlink:href="#DejaVuSans-65" x="183.154297"/>
     </g>
    </g>
   </g>
   <g id="matplotlib.axis_2">
    <g id="ytick_1">
     <g id="line2d_7">
      <defs>
       <path id="m3a39e9f203" d="M 0 0 
L -3.5 0 
" style="stroke: #000000; stroke-width: 0.8"/>
      </defs>
      <g>
       <use xlink:href="#m3a39e9f203" x="38.482813" y="121.978125" style="stroke: #000000; stroke-width: 0.8"/>
      </g>
     </g>
     <g id="text_8">
      <!-- −5.0 -->
      <g transform="translate(7.2 125.777344)scale(0.1 -0.1)">
       <defs>
        <path id="DejaVuSans-2212" d="M 678 2272 
L 4684 2272 
L 4684 1741 
L 678 1741 
L 678 2272 
z
" transform="scale(0.015625)"/>
        <path id="DejaVuSans-35" d="M 691 4666 
L 3169 4666 
L 3169 4134 
L 1269 4134 
L 1269 2991 
Q 1406 3038 1543 3061 
Q 1681 3084 1819 3084 
Q 2600 3084 3056 2656 
Q 3513 2228 3513 1497 
Q 3513 744 3044 326 
Q 2575 -91 1722 -91 
Q 1428 -91 1123 -41 
Q 819 9 494 109 
L 494 744 
Q 775 591 1075 516 
Q 1375 441 1709 441 
Q 2250 441 2565 725 
Q 2881 1009 2881 1497 
Q 2881 1984 2565 2268 
Q 2250 2553 1709 2553 
Q 1456 2553 1204 2497 
Q 953 2441 691 2322 
L 691 4666 
z
" transform="scale(0.015625)"/>
        <path id="DejaVuSans-2e" d="M 684 794 
L 1344 794 
L 1344 0 
L 684 0 
L 684 794 
z
" transform="scale(0.015625)"/>
       </defs>
       <use xlink:href="#DejaVuSans-2212"/>
       <use xlink:href="#DejaVuSans-35" x="83.789062"/>
       <use xlink:href="#DejaVuSans-2e" x="147.412109"/>
       <use xlink:href="#DejaVuSans-30" x="179.199219"/>
      </g>
     </g>
    </g>
    <g id="ytick_2">
     <g id="line2d_8">
      <g>
       <use xlink:href="#m3a39e9f203" x="38.482813" y="99.328125" style="stroke: #000000; stroke-width: 0.8"/>
      </g>
     </g>
     <g id="text_9">
      <!-- −2.5 -->
      <g transform="translate(7.2 103.127344)scale(0.1 -0.1)">
       <use xlink:href="#DejaVuSans-2212"/>
       <use xlink:href="#DejaVuSans-32" x="83.789062"/>
       <use xlink:href="#DejaVuSans-2e" x="147.412109"/>
       <use xlink:href="#DejaVuSans-35" x="179.199219"/>
      </g>
     </g>
    </g>
    <g id="ytick_3">
     <g id="line2d_9">
      <g>
       <use xlink:href="#m3a39e9f203" x="38.482813" y="76.678125" style="stroke: #000000; stroke-width: 0.8"/>
      </g>
     </g>
     <g id="text_10">
      <!-- 0.0 -->
      <g transform="translate(15.579688 80.477344)scale(0.1 -0.1)">
       <use xlink:href="#DejaVuSans-30"/>
       <use xlink:href="#DejaVuSans-2e" x="63.623047"/>
       <use xlink:href="#DejaVuSans-30" x="95.410156"/>
      </g>
     </g>
    </g>
    <g id="ytick_4">
     <g id="line2d_10">
      <g>
       <use xlink:href="#m3a39e9f203" x="38.482813" y="54.028125" style="stroke: #000000; stroke-width: 0.8"/>
      </g>
     </g>
     <g id="text_11">
      <!-- 2.5 -->
      <g transform="translate(15.579688 57.827344)scale(0.1 -0.1)">
       <use xlink:href="#DejaVuSans-32"/>
       <use xlink:href="#DejaVuSans-2e" x="63.623047"/>
       <use xlink:href="#DejaVuSans-35" x="95.410156"/>
      </g>
     </g>
    </g>
    <g id="ytick_5">
     <g id="line2d_11">
      <g>
       <use xlink:href="#m3a39e9f203" x="38.482813" y="31.378125" style="stroke: #000000; stroke-width: 0.8"/>
      </g>
     </g>
     <g id="text_12">
      <!-- 5.0 -->
      <g transform="translate(15.579688 35.177344)scale(0.1 -0.1)">
       <use xlink:href="#DejaVuSans-35"/>
       <use xlink:href="#DejaVuSans-2e" x="63.623047"/>
       <use xlink:href="#DejaVuSans-30" x="95.410156"/>
      </g>
     </g>
    </g>
   </g>
   <g id="line2d_12">
    <path d="M 38.482813 78.091701 
L 38.650213 67.173341 
L 38.817613 47.949094 
L 39.152413 88.894748 
L 39.319813 65.217376 
L 39.487212 79.403227 
L 39.654612 82.663239 
L 39.822012 74.776889 
L 39.989413 87.918184 
L 40.156813 74.662609 
L 40.324213 77.478807 
L 40.659013 73.222494 
L 40.826413 76.066645 
L 40.993813 76.530102 
L 41.328613 72.914595 
L 41.496012 86.023356 
L 41.663412 89.633846 
L 41.830813 77.236566 
L 41.998213 89.658709 
L 42.333013 68.173078 
L 42.500413 71.177693 
L 42.667813 86.174549 
L 42.835213 84.472103 
L 43.002613 73.703715 
L 43.170012 80.313883 
L 43.337412 79.547022 
L 43.504812 71.270152 
L 43.672213 85.622942 
L 43.839613 80.313311 
L 44.174413 86.128878 
L 44.341813 84.443253 
L 44.509213 70.540318 
L 44.844013 84.64332 
L 45.011413 78.771906 
L 45.178812 91.525719 
L 45.346213 83.321939 
L 45.513613 57.20298 
L 45.681013 77.495734 
L 45.848413 70.049295 
L 46.015813 77.27145 
L 46.350613 70.669007 
L 46.518013 86.685951 
L 46.852812 62.373606 
L 47.020212 83.88536 
L 47.355013 79.465808 
L 47.857213 65.195375 
L 48.192013 77.240326 
L 48.359413 65.270071 
L 48.526813 70.298879 
L 48.694213 90.228981 
L 48.861613 53.789229 
L 49.029013 60.642637 
L 49.196413 78.202146 
L 49.363813 73.254259 
L 49.531213 64.679435 
L 49.698613 78.238264 
L 50.033413 66.670644 
L 50.200813 85.872448 
L 50.368212 82.135252 
L 50.535612 68.330165 
L 50.703012 72.503146 
L 50.870413 68.308528 
L 51.037813 77.879191 
L 51.205213 79.296512 
L 51.372613 94.785799 
L 51.874813 69.207637 
L 52.042213 71.865649 
L 52.209613 77.839997 
L 52.377013 79.140375 
L 52.544413 74.710478 
L 52.711813 75.969532 
L 52.879213 63.952943 
L 53.214013 90.098213 
L 53.381413 88.207502 
L 53.548813 62.918165 
L 53.716213 87.288839 
L 53.883613 69.751778 
L 54.051013 79.109582 
L 54.385813 77.893368 
L 54.553213 65.612377 
L 54.720613 78.425272 
L 54.888013 76.979998 
L 55.055413 90.547205 
L 55.222813 74.805509 
L 55.390213 71.86688 
L 55.557613 74.511466 
L 55.725013 64.013185 
L 55.892413 76.178273 
L 56.059813 73.969389 
L 56.227213 61.742679 
L 56.394613 90.721254 
L 56.562013 80.807903 
L 56.729413 63.757127 
L 57.064213 70.532001 
L 57.231613 69.134309 
L 57.399013 73.714905 
L 57.566413 61.895852 
L 57.733812 73.255627 
L 58.068613 75.237959 
L 58.236013 74.930778 
L 58.403413 87.160702 
L 58.570813 69.695827 
L 58.738213 77.859909 
L 58.905613 60.171574 
L 59.073013 77.363518 
L 59.240413 72.864605 
L 59.407813 74.443909 
L 59.575213 82.345672 
L 59.910013 59.418248 
L 60.077413 76.812007 
L 60.244813 79.400463 
L 60.412213 79.894685 
L 60.579613 93.822924 
L 60.747013 78.289112 
L 60.914413 74.404082 
L 61.081813 67.122018 
L 61.249213 67.980092 
L 61.416612 80.451607 
L 61.584013 79.186141 
L 61.751413 66.495543 
L 61.918813 78.249708 
L 62.086213 81.298993 
L 62.253613 64.061908 
L 62.421013 67.277599 
L 62.923213 94.905761 
L 63.090613 71.33541 
L 63.425413 94.460477 
L 63.592813 62.319651 
L 63.760213 70.807537 
L 63.927613 86.997539 
L 64.095013 87.680602 
L 64.262413 68.787211 
L 64.429812 84.632539 
L 64.597213 64.935007 
L 64.764612 71.093004 
L 65.099412 73.011584 
L 65.266813 74.94358 
L 65.434213 68.700694 
L 65.601613 80.792093 
L 65.936413 69.865489 
L 66.103813 71.577438 
L 66.271213 87.504705 
L 66.606013 74.387725 
L 66.773413 80.374738 
L 66.940813 60.599718 
L 67.108213 80.240093 
L 67.275613 78.147824 
L 67.443013 69.707088 
L 67.945212 83.531956 
L 68.280012 67.263911 
L 68.447413 72.337522 
L 68.614812 83.728468 
L 68.782212 60.942944 
L 68.949613 89.784121 
L 69.117013 91.017257 
L 69.284413 67.975477 
L 69.786613 86.631176 
L 69.954013 55.651678 
L 70.121413 75.617282 
L 70.288813 71.838262 
L 70.456213 73.798086 
L 70.958413 70.042363 
L 71.125812 80.07764 
L 71.293213 79.320401 
L 71.460612 92.451792 
L 71.962813 67.210213 
L 72.130212 71.250827 
L 72.632413 101.840999 
L 72.799813 66.243415 
L 72.967213 82.01654 
L 73.134613 80.741218 
L 73.302013 75.486065 
L 73.469413 89.412499 
L 73.636813 79.847152 
L 73.804213 58.345469 
L 73.971613 72.099319 
L 74.139013 73.423328 
L 74.306413 91.015525 
L 74.473813 56.351092 
L 74.641213 89.568647 
L 74.808613 59.261863 
L 74.976012 95.840532 
L 75.143413 63.945514 
L 75.310812 62.018553 
L 75.478213 84.147272 
L 75.645612 72.849547 
L 75.813013 71.717951 
L 76.147813 89.807131 
L 76.315213 88.616644 
L 76.482613 71.776591 
L 76.817413 81.790692 
L 76.984813 67.919207 
L 77.152213 72.07503 
L 77.487013 87.561011 
L 77.654413 71.937374 
L 77.821813 81.54863 
L 77.989213 75.779329 
L 78.156613 62.396856 
L 78.491413 84.490264 
L 78.658813 75.222535 
L 78.826212 85.309088 
L 78.993613 62.104914 
L 79.161012 81.766028 
L 79.328413 74.800252 
L 79.495812 73.890068 
L 79.663213 75.235316 
L 79.830613 94.422579 
L 79.998013 89.7827 
L 80.332813 73.784073 
L 80.500213 77.926405 
L 80.835013 88.894849 
L 81.002413 80.316236 
L 81.169813 80.922518 
L 81.337213 72.031827 
L 81.504613 79.63457 
L 81.672013 71.217594 
L 81.839413 82.065652 
L 82.006813 78.997101 
L 82.174213 79.831425 
L 82.341612 83.76637 
L 82.509013 71.01455 
L 82.676412 84.049305 
L 83.011212 77.340589 
L 83.178613 88.432385 
L 83.346013 79.622036 
L 83.513413 83.122561 
L 83.848213 77.221073 
L 84.015613 83.925342 
L 84.183013 78.672012 
L 84.350413 64.821586 
L 84.517813 76.91186 
L 84.685213 66.30205 
L 84.852613 73.538885 
L 85.020013 69.66423 
L 85.187413 83.694723 
L 85.354813 75.727666 
L 85.522213 75.464874 
L 85.689613 82.228514 
L 85.857013 84.13295 
L 86.024413 90.179929 
L 86.191812 63.1231 
L 86.359213 85.488095 
L 86.526612 64.481362 
L 86.694013 80.913613 
L 86.861413 84.492314 
L 87.028813 71.038102 
L 87.196213 82.396724 
L 87.363613 71.527887 
L 87.531013 79.6934 
L 87.698413 72.325479 
L 87.865813 85.449891 
L 88.033213 69.146084 
L 88.200613 72.257092 
L 88.368013 85.01016 
L 88.535413 52.733127 
L 88.702813 71.78461 
L 88.870213 55.926493 
L 89.037613 62.179699 
L 89.205013 78.388968 
L 89.372413 80.413307 
L 89.539813 80.333465 
L 89.707213 93.258184 
L 90.209413 62.852949 
L 90.376812 83.679438 
L 90.544213 68.686692 
L 90.711613 88.026621 
L 90.879013 81.990184 
L 91.046413 80.824349 
L 91.213813 73.309517 
L 91.381213 72.5349 
L 91.548613 67.959309 
L 91.716013 69.694342 
L 91.883413 74.475021 
L 92.050813 73.141419 
L 92.218213 62.286037 
L 92.385613 81.307116 
L 92.553013 69.659086 
L 92.720413 93.059909 
L 92.887813 72.951437 
L 93.055213 81.056366 
L 93.222613 76.65483 
L 93.390013 67.254944 
L 93.557412 75.186452 
L 93.892212 63.325816 
L 94.059613 73.152934 
L 94.227013 66.068493 
L 94.394413 79.636767 
L 94.561813 76.752507 
L 94.729213 81.413057 
L 94.896613 67.228748 
L 95.231413 81.273669 
L 95.566213 67.241515 
L 95.901013 85.275456 
L 96.068413 75.483004 
L 96.235813 94.622049 
L 96.403213 69.713063 
L 96.570613 80.495353 
L 96.738013 80.93008 
L 96.905413 68.744322 
L 97.072813 89.046501 
L 97.240213 59.037411 
L 97.407612 81.029118 
L 97.575013 81.418779 
L 97.742413 67.425829 
L 97.909813 70.257346 
L 98.077213 54.469984 
L 98.244613 78.591651 
L 98.412013 77.769009 
L 98.579413 90.080728 
L 98.746813 79.686972 
L 98.914213 83.214293 
L 99.081613 80.743954 
L 99.249013 92.480466 
L 99.416413 61.633021 
L 99.751213 102.066082 
L 100.086013 82.148911 
L 100.253413 87.093085 
L 100.420813 66.727495 
L 100.588213 77.926948 
L 100.755613 76.448131 
L 100.923012 71.147976 
L 101.090413 74.086852 
L 101.257812 67.812305 
L 101.425213 86.729992 
L 101.592613 81.638639 
L 101.760013 70.644463 
L 101.927413 99.641188 
L 102.262213 72.139135 
L 102.429613 81.029181 
L 102.597013 68.196991 
L 102.764413 69.346952 
L 102.931813 87.532846 
L 103.266613 65.790742 
L 103.601413 85.533957 
L 103.768812 68.710852 
L 104.103612 71.762071 
L 104.271013 70.191719 
L 104.438412 103.809318 
L 104.605813 68.696831 
L 104.773212 60.296451 
L 104.940613 72.72218 
L 105.108013 74.932 
L 105.275413 70.368391 
L 105.442813 73.613802 
L 105.610213 70.772987 
L 106.112413 85.777289 
L 106.279813 85.721742 
L 106.447213 89.117891 
L 106.614613 86.351868 
L 106.782013 60.721054 
L 107.116813 82.340873 
L 107.284213 80.215083 
L 107.451613 75.658354 
L 107.619012 82.617363 
L 107.953812 69.633032 
L 108.121213 77.001954 
L 108.456013 68.646512 
L 108.623413 79.143639 
L 108.790813 74.097922 
L 108.958213 79.481086 
L 109.125613 76.936597 
L 109.460413 81.469686 
L 109.795213 71.545224 
L 109.962613 75.352607 
L 110.130013 72.159659 
L 110.464813 87.583966 
L 110.632213 72.899711 
L 110.799613 70.44592 
L 110.967013 76.226418 
L 111.134413 64.464921 
L 111.301813 68.454374 
L 111.469212 52.392153 
L 111.636613 78.49745 
L 111.804012 85.727695 
L 112.138813 81.801535 
L 112.306213 72.365281 
L 112.473613 96.230226 
L 112.641013 64.732053 
L 112.808413 78.846152 
L 112.975813 78.914075 
L 113.143213 86.456974 
L 113.310613 77.713008 
L 113.478013 76.558173 
L 113.645413 77.782946 
L 113.812813 73.606248 
L 113.980213 82.020191 
L 114.147613 84.794216 
L 114.315013 71.710272 
L 114.482413 75.784198 
L 114.649813 74.891665 
L 114.817213 67.083338 
L 114.984612 85.942558 
L 115.152013 84.426604 
L 115.319412 65.287715 
L 115.486813 90.113048 
L 115.654212 88.541399 
L 115.821613 69.268297 
L 115.989013 74.520031 
L 116.323813 77.508559 
L 116.491213 76.394841 
L 116.658613 77.512661 
L 116.826013 64.397814 
L 116.993413 80.285347 
L 117.160813 78.140169 
L 117.328213 60.420419 
L 117.495613 76.428887 
L 117.663013 56.456057 
L 117.830413 77.629241 
L 117.997813 64.289345 
L 118.165213 91.675542 
L 118.332613 75.286106 
L 118.500013 91.033455 
L 118.667413 69.027369 
L 118.834812 87.666707 
L 119.002213 74.107173 
L 119.504413 91.349526 
L 119.671813 81.308152 
L 119.839213 60.908022 
L 120.006613 79.3371 
L 120.174013 68.368098 
L 120.341413 77.194933 
L 120.508813 68.73498 
L 120.676213 93.229942 
L 121.011013 68.076511 
L 121.178413 78.157215 
L 121.345813 77.46141 
L 121.513213 80.57811 
L 121.680613 66.264748 
L 121.848013 73.982645 
L 122.015413 76.279283 
L 122.182813 70.852051 
L 122.350212 71.348807 
L 122.517613 74.752086 
L 122.685012 62.66202 
L 122.852413 77.22433 
L 123.019813 74.158711 
L 123.187213 82.503275 
L 123.354613 75.318081 
L 123.522013 62.293006 
L 123.689413 82.506039 
L 123.856813 86.948476 
L 124.024213 67.647483 
L 124.191613 78.025946 
L 124.359013 75.808327 
L 124.526413 77.086852 
L 124.693813 75.961282 
L 124.861213 68.972317 
L 125.028613 84.28059 
L 125.196013 85.844798 
L 125.363413 75.908314 
L 125.530813 91.232469 
L 125.698213 89.11799 
L 125.865613 59.765976 
L 126.200412 76.769237 
L 126.367813 65.461782 
L 126.535213 86.105954 
L 127.037413 68.60864 
L 127.204813 72.031098 
L 127.372213 99.701749 
L 127.707013 72.355888 
L 127.874413 79.903046 
L 128.041813 53.663627 
L 128.209213 68.283507 
L 128.376613 71.621903 
L 128.544013 86.797688 
L 128.711413 76.997913 
L 128.878813 74.492817 
L 129.046213 66.460405 
L 129.213613 68.695077 
L 129.381013 67.319243 
L 129.548413 85.048768 
L 129.715813 63.884031 
L 129.883213 89.184828 
L 130.218013 72.775339 
L 130.552813 85.792819 
L 130.720213 84.121366 
L 130.887613 90.705309 
L 131.222413 65.257371 
L 131.389813 77.58769 
L 131.557213 80.305285 
L 131.724613 90.017371 
L 132.059413 56.643708 
L 132.226813 92.963075 
L 132.561613 82.835238 
L 132.729013 81.790845 
L 132.896413 74.618371 
L 133.063813 62.053024 
L 133.398613 71.898093 
L 133.566012 83.236919 
L 133.733413 86.821957 
L 133.900813 83.896909 
L 134.068213 62.65264 
L 134.235613 77.237519 
L 134.403013 80.726461 
L 134.570413 78.342952 
L 134.737813 69.207084 
L 134.905213 88.572543 
L 135.072613 63.859365 
L 135.240013 75.26045 
L 135.407413 78.638201 
L 135.574813 72.665939 
L 135.742213 74.699448 
L 135.909613 79.796545 
L 136.077013 78.967684 
L 136.244413 84.55002 
L 136.411813 70.731225 
L 136.746613 85.341826 
L 137.081413 64.636105 
L 137.416213 82.187522 
L 137.751013 59.13151 
L 137.918413 89.832389 
L 138.085813 73.215368 
L 138.253213 74.82004 
L 138.420613 66.154629 
L 138.588013 67.700488 
L 138.922813 91.939851 
L 139.090213 69.370657 
L 139.257613 84.244971 
L 139.425013 85.255593 
L 139.592413 66.274069 
L 139.759813 84.930429 
L 139.927213 63.968352 
L 140.094613 73.635372 
L 140.429413 73.894306 
L 140.596813 91.522243 
L 140.764213 92.772206 
L 140.931613 74.725214 
L 141.099013 71.531978 
L 141.266413 75.929669 
L 141.433813 84.121228 
L 141.601213 76.506691 
L 141.768613 77.421354 
L 141.936013 85.349977 
L 142.103413 67.491537 
L 142.270813 92.354426 
L 142.438213 71.344119 
L 142.605613 73.196155 
L 142.773013 67.530136 
L 142.940413 85.786251 
L 143.107813 75.759376 
L 143.275213 57.007371 
L 143.610013 75.766859 
L 143.777413 71.793324 
L 143.944813 75.897363 
L 144.112213 56.828589 
L 144.447013 77.453796 
L 144.614413 74.392002 
L 144.781813 80.218755 
L 144.949213 65.716883 
L 145.116613 89.417434 
L 145.284013 91.217056 
L 145.451413 63.462169 
L 145.618813 57.17086 
L 145.786213 72.435283 
L 145.953613 75.656719 
L 146.121013 70.72328 
L 146.288413 82.54043 
L 146.455813 75.126658 
L 146.623213 76.325612 
L 146.790613 71.001453 
L 146.958013 90.793592 
L 147.292813 69.022465 
L 147.460213 82.799005 
L 147.627613 85.677979 
L 147.795013 58.176951 
L 147.962413 76.332776 
L 148.129813 81.923123 
L 148.297213 92.011001 
L 148.464613 70.070247 
L 148.632013 70.343951 
L 148.966813 86.664331 
L 149.134213 76.900543 
L 149.301613 84.250981 
L 149.469013 85.213493 
L 149.636413 77.613233 
L 149.803813 86.203722 
L 149.971213 74.443485 
L 150.138613 71.169713 
L 150.473413 89.074426 
L 150.640813 62.532932 
L 150.808213 85.196973 
L 150.975613 82.657206 
L 151.310413 71.247838 
L 151.477813 79.000356 
L 151.645213 72.503328 
L 151.980013 85.476931 
L 152.314813 54.132844 
L 152.482213 61.312641 
L 152.649613 75.393357 
L 152.817013 60.067201 
L 153.151813 81.002339 
L 153.319213 72.452726 
L 153.654013 85.585176 
L 153.821413 84.816922 
L 153.988813 69.411536 
L 154.156213 93.407705 
L 154.323613 71.204646 
L 154.491013 91.442152 
L 154.658413 95.895984 
L 154.825813 93.338075 
L 154.993213 58.859243 
L 155.160613 78.456005 
L 155.328013 75.893681 
L 155.495413 63.819674 
L 155.662813 68.214456 
L 155.830213 89.285163 
L 155.997613 68.804928 
L 156.332413 79.773729 
L 156.499813 76.458049 
L 156.667213 65.083028 
L 156.834613 84.704981 
L 157.002013 73.046101 
L 157.169413 76.76562 
L 157.336813 92.960436 
L 157.839013 64.924206 
L 158.173813 71.26738 
L 158.341213 84.064522 
L 158.508613 60.359126 
L 158.843413 85.795797 
L 159.178213 68.558114 
L 159.345613 76.60911 
L 159.513013 68.643131 
L 159.680413 66.678658 
L 159.847813 73.049317 
L 160.015213 84.448911 
L 160.182613 75.450906 
L 160.350013 76.268922 
L 160.517413 59.832447 
L 160.684813 91.412602 
L 160.852213 77.899616 
L 161.019613 81.970013 
L 161.187013 73.642068 
L 161.354413 98.762458 
L 161.521813 66.576908 
L 161.689213 76.553564 
L 161.856613 93.391118 
L 162.191413 71.160926 
L 162.358813 91.096643 
L 162.526213 76.648932 
L 162.693613 86.258836 
L 163.195813 75.016066 
L 163.363213 80.943052 
L 163.698013 69.267248 
L 163.865413 79.205088 
L 164.032813 63.708121 
L 164.200213 63.430465 
L 164.367613 80.562166 
L 164.535013 82.45696 
L 164.702413 91.755532 
L 164.869813 77.824843 
L 165.037213 79.970871 
L 165.204613 69.619921 
L 165.372013 90.355659 
L 165.706813 67.901301 
L 165.874213 83.29516 
L 166.041613 83.585121 
L 166.209013 89.787404 
L 166.376413 52.935726 
L 166.543813 83.450232 
L 166.711213 88.459267 
L 166.878613 83.96101 
L 167.046013 83.693238 
L 167.213413 79.118796 
L 167.380813 69.200253 
L 167.715613 85.038904 
L 167.883013 89.827252 
L 168.050413 76.480097 
L 168.217813 76.292721 
L 168.385213 62.807878 
L 168.552613 75.840549 
L 168.720013 77.57514 
L 168.887413 86.197049 
L 169.054812 79.450055 
L 169.222213 80.650704 
L 169.389612 80.031812 
L 169.557013 85.368979 
L 169.724412 71.800859 
L 169.891813 77.96868 
L 170.059213 78.493328 
L 170.226613 92.207383 
L 170.394013 72.20571 
L 170.561413 72.265766 
L 170.728813 84.280637 
L 170.896213 67.707625 
L 171.063613 89.042835 
L 171.231013 76.876266 
L 171.398413 79.135263 
L 171.565813 88.611729 
L 171.900613 61.252839 
L 172.068013 76.065359 
L 172.235413 80.873102 
L 172.402813 72.628086 
L 172.570213 75.720302 
L 172.737613 76.4266 
L 172.905012 80.533537 
L 173.072413 63.795026 
L 173.407213 81.467881 
L 173.574613 77.65664 
L 173.742013 83.390377 
L 173.909413 82.189243 
L 174.076813 82.4831 
L 174.244213 86.954988 
L 174.411613 69.635996 
L 174.579013 79.314961 
L 174.746413 71.657729 
L 174.913813 82.749466 
L 175.081213 77.225009 
L 175.248613 83.120153 
L 175.416013 70.157931 
L 175.918213 91.551956 
L 176.085613 74.180586 
L 176.253013 83.096094 
L 176.420412 76.821085 
L 176.587813 81.1332 
L 176.755212 68.033167 
L 176.922613 71.748174 
L 177.090013 72.626383 
L 177.257413 82.260182 
L 177.592213 61.141751 
L 177.759613 84.21773 
L 177.927013 75.116732 
L 178.094413 91.620031 
L 178.261813 64.007152 
L 178.429213 80.283209 
L 178.596613 69.58796 
L 178.764013 92.290573 
L 178.931413 60.392418 
L 179.098813 79.911381 
L 179.266213 71.73447 
L 179.601013 78.99269 
L 179.768413 61.404847 
L 179.935813 91.609424 
L 180.103213 73.971779 
L 180.270612 68.427675 
L 180.438013 76.948621 
L 180.605412 77.748752 
L 180.772813 77.970876 
L 180.940213 87.800511 
L 181.275013 72.032904 
L 181.609813 79.144946 
L 181.777213 81.115034 
L 181.944613 79.208553 
L 182.112013 65.282962 
L 182.279413 95.583038 
L 182.446813 76.315078 
L 182.614213 79.647585 
L 182.781613 63.488505 
L 182.949013 76.175365 
L 183.116413 63.224699 
L 183.283813 95.920569 
L 183.451213 72.514286 
L 183.618613 74.140801 
L 183.786013 64.079887 
L 183.953413 91.548743 
L 184.120812 78.082749 
L 184.288213 76.079619 
L 184.455613 81.170032 
L 184.623013 65.655931 
L 184.790413 79.746586 
L 184.957813 58.243176 
L 185.125213 67.127273 
L 185.292613 68.063572 
L 185.460013 71.610876 
L 185.627413 86.315207 
L 186.297013 64.835039 
L 186.464413 80.913141 
L 186.631813 84.471115 
L 186.799213 68.894641 
L 186.966613 84.013342 
L 187.134013 68.76592 
L 187.301413 65.808515 
L 187.636212 79.917791 
L 187.971013 71.301324 
L 188.138413 76.585844 
L 188.305813 56.76156 
L 188.473213 85.653604 
L 188.640613 85.762302 
L 188.808013 85.528797 
L 188.975413 82.019719 
L 189.142813 96.419245 
L 189.310213 82.382758 
L 189.477613 82.596884 
L 189.812413 72.892852 
L 189.979813 87.914485 
L 190.314613 60.34981 
L 190.482013 78.565188 
L 190.649413 62.414322 
L 190.816813 74.87528 
L 190.984213 58.660214 
L 191.151613 66.555537 
L 191.319013 90.847101 
L 191.653813 67.125941 
L 191.821213 76.401373 
L 191.988613 77.01229 
L 192.156013 65.174056 
L 192.323413 83.109404 
L 192.658213 73.746076 
L 192.825613 79.702271 
L 192.993013 76.860495 
L 193.160413 69.656414 
L 193.327813 72.756616 
L 193.495213 84.005106 
L 193.662613 86.681488 
L 193.830013 83.827391 
L 193.997413 76.666814 
L 194.164813 78.127179 
L 194.332213 84.21566 
L 194.499613 82.097368 
L 194.667013 90.449681 
L 194.834413 72.89237 
L 195.001812 77.040695 
L 195.169213 88.091798 
L 195.504013 64.51397 
L 195.671413 83.381944 
L 195.838813 64.762978 
L 196.006213 79.60865 
L 196.173613 74.885802 
L 196.341013 75.792503 
L 196.508413 63.980323 
L 196.843213 87.023752 
L 197.345413 92.188575 
L 197.512813 76.260141 
L 197.680213 85.360998 
L 197.847613 77.410278 
L 198.015013 83.055088 
L 198.182413 83.661431 
L 198.349813 81.034584 
L 198.517213 70.30364 
L 198.684613 68.26007 
L 198.852013 73.315302 
L 199.019413 85.645917 
L 199.186813 70.846826 
L 199.354213 70.436721 
L 199.521613 74.189821 
L 199.689013 82.146926 
L 199.856413 70.255857 
L 200.023813 72.847389 
L 200.191213 104.916846 
L 200.358613 70.83939 
L 200.526013 94.016634 
L 200.693413 70.666257 
L 200.860813 78.074021 
L 201.028213 65.864003 
L 201.363013 84.71085 
L 201.697813 67.07628 
L 201.865213 76.440331 
L 202.032613 77.714002 
L 202.200013 69.94153 
L 202.534813 76.731827 
L 202.702213 64.301621 
L 202.869613 62.588792 
L 203.204413 79.268915 
L 203.371813 63.116111 
L 203.706613 70.164917 
L 203.874013 87.695779 
L 204.041413 75.403638 
L 204.208813 83.415795 
L 204.543613 74.503209 
L 204.711013 75.770681 
L 204.878413 80.983211 
L 205.045813 65.145164 
L 205.213213 92.045074 
L 205.380613 70.062662 
L 205.548013 93.506923 
L 205.715413 73.211786 
L 205.882813 84.713478 
L 206.050213 68.720693 
L 206.050213 68.720693 
" clip-path="url(#p44084fd38f)" style="fill: none; stroke: #1f77b4; stroke-linecap: square"/>
   </g>
   <g id="line2d_13">
    <path d="M 38.482813 169.594375 
L 38.482813 -1 
" clip-path="url(#p44084fd38f)" style="fill: none; stroke-dasharray: 7.4,3.2; stroke-dashoffset: 0; stroke: #ff0000; stroke-width: 2"/>
   </g>
   <g id="line2d_14">
    <path d="M 88.702813 131.038125 
L 88.702813 22.318125 
" clip-path="url(#p44084fd38f)" style="fill: none; stroke-dasharray: 7.4,3.2; stroke-dashoffset: 0; stroke: #ff0000; stroke-width: 2"/>
   </g>
   <g id="patch_3">
    <path d="M 38.482813 131.038125 
L 38.482813 22.318125 
" style="fill: none; stroke: #000000; stroke-width: 0.8; stroke-linejoin: miter; stroke-linecap: square"/>
   </g>
   <g id="patch_4">
    <path d="M 205.882812 131.038125 
L 205.882812 22.318125 
" style="fill: none; stroke: #000000; stroke-width: 0.8; stroke-linejoin: miter; stroke-linecap: square"/>
   </g>
   <g id="patch_5">
    <path d="M 38.482813 131.038125 
L 205.882813 131.038125 
" style="fill: none; stroke: #000000; stroke-width: 0.8; stroke-linejoin: miter; stroke-linecap: square"/>
   </g>
   <g id="patch_6">
    <path d="M 38.482813 22.318125 
L 205.882813 22.318125 
" style="fill: none; stroke: #000000; stroke-width: 0.8; stroke-linejoin: miter; stroke-linecap: square"/>
   </g>
   <g id="text_13">
    <!-- Residual -->
    <g transform="translate(96.844063 16.318125)scale(0.12 -0.12)">
     <defs>
      <path id="DejaVuSans-52" d="M 2841 2188 
Q 3044 2119 3236 1894 
Q 3428 1669 3622 1275 
L 4263 0 
L 3584 0 
L 2988 1197 
Q 2756 1666 2539 1819 
Q 2322 1972 1947 1972 
L 1259 1972 
L 1259 0 
L 628 0 
L 628 4666 
L 2053 4666 
Q 2853 4666 3247 4331 
Q 3641 3997 3641 3322 
Q 3641 2881 3436 2590 
Q 3231 2300 2841 2188 
z
M 1259 4147 
L 1259 2491 
L 2053 2491 
Q 2509 2491 2742 2702 
Q 2975 2913 2975 3322 
Q 2975 3731 2742 3939 
Q 2509 4147 2053 4147 
L 1259 4147 
z
" transform="scale(0.015625)"/>
      <path id="DejaVuSans-73" d="M 2834 3397 
L 2834 2853 
Q 2591 2978 2328 3040 
Q 2066 3103 1784 3103 
Q 1356 3103 1142 2972 
Q 928 2841 928 2578 
Q 928 2378 1081 2264 
Q 1234 2150 1697 2047 
L 1894 2003 
Q 2506 1872 2764 1633 
Q 3022 1394 3022 966 
Q 3022 478 2636 193 
Q 2250 -91 1575 -91 
Q 1294 -91 989 -36 
Q 684 19 347 128 
L 347 722 
Q 666 556 975 473 
Q 1284 391 1588 391 
Q 1994 391 2212 530 
Q 2431 669 2431 922 
Q 2431 1156 2273 1281 
Q 2116 1406 1581 1522 
L 1381 1569 
Q 847 1681 609 1914 
Q 372 2147 372 2553 
Q 372 3047 722 3315 
Q 1072 3584 1716 3584 
Q 2034 3584 2315 3537 
Q 2597 3491 2834 3397 
z
" transform="scale(0.015625)"/>
      <path id="DejaVuSans-64" d="M 2906 2969 
L 2906 4863 
L 3481 4863 
L 3481 0 
L 2906 0 
L 2906 525 
Q 2725 213 2448 61 
Q 2172 -91 1784 -91 
Q 1150 -91 751 415 
Q 353 922 353 1747 
Q 353 2572 751 3078 
Q 1150 3584 1784 3584 
Q 2172 3584 2448 3432 
Q 2725 3281 2906 2969 
z
M 947 1747 
Q 947 1113 1208 752 
Q 1469 391 1925 391 
Q 2381 391 2643 752 
Q 2906 1113 2906 1747 
Q 2906 2381 2643 2742 
Q 2381 3103 1925 3103 
Q 1469 3103 1208 2742 
Q 947 2381 947 1747 
z
" transform="scale(0.015625)"/>
      <path id="DejaVuSans-75" d="M 544 1381 
L 544 3500 
L 1119 3500 
L 1119 1403 
Q 1119 906 1312 657 
Q 1506 409 1894 409 
Q 2359 409 2629 706 
Q 2900 1003 2900 1516 
L 2900 3500 
L 3475 3500 
L 3475 0 
L 2900 0 
L 2900 538 
Q 2691 219 2414 64 
Q 2138 -91 1772 -91 
Q 1169 -91 856 284 
Q 544 659 544 1381 
z
M 1991 3584 
L 1991 3584 
z
" transform="scale(0.015625)"/>
      <path id="DejaVuSans-61" d="M 2194 1759 
Q 1497 1759 1228 1600 
Q 959 1441 959 1056 
Q 959 750 1161 570 
Q 1363 391 1709 391 
Q 2188 391 2477 730 
Q 2766 1069 2766 1631 
L 2766 1759 
L 2194 1759 
z
M 3341 1997 
L 3341 0 
L 2766 0 
L 2766 531 
Q 2569 213 2275 61 
Q 1981 -91 1556 -91 
Q 1019 -91 701 211 
Q 384 513 384 1019 
Q 384 1609 779 1909 
Q 1175 2209 1959 2209 
L 2766 2209 
L 2766 2266 
Q 2766 2663 2505 2880 
Q 2244 3097 1772 3097 
Q 1472 3097 1187 3025 
Q 903 2953 641 2809 
L 641 3341 
Q 956 3463 1253 3523 
Q 1550 3584 1831 3584 
Q 2591 3584 2966 3190 
Q 3341 2797 3341 1997 
z
" transform="scale(0.015625)"/>
      <path id="DejaVuSans-6c" d="M 603 4863 
L 1178 4863 
L 1178 0 
L 603 0 
L 603 4863 
z
" transform="scale(0.015625)"/>
     </defs>
     <use xlink:href="#DejaVuSans-52"/>
     <use xlink:href="#DejaVuSans-65" x="64.982422"/>
     <use xlink:href="#DejaVuSans-73" x="126.505859"/>
     <use xlink:href="#DejaVuSans-69" x="178.605469"/>
     <use xlink:href="#DejaVuSans-64" x="206.388672"/>
     <use xlink:href="#DejaVuSans-75" x="269.865234"/>
     <use xlink:href="#DejaVuSans-61" x="333.244141"/>
     <use xlink:href="#DejaVuSans-6c" x="394.523438"/>
    </g>
   </g>
  </g>
 </g>
 <defs>
  <clipPath id="p44084fd38f">
   <rect x="38.482813" y="22.318125" width="167.4" height="108.72"/>
  </clipPath>
 </defs>
</svg>
